<svg id="eS2bARFBXC81" xmlns="http://www.w3.org/2000/svg" xmlns:xlink="http://www.w3.org/1999/xlink" viewBox="0 0 1198 1188" shape-rendering="geometricPrecision" text-rendering="geometricPrecision"><g id="eS2bARFBXC82" transform="matrix(1 0.000044-.000044 1 0.026172-.026572)"><circle r="97.8236" transform="matrix(.358148-.933665 0.933665 0.358148 145.174082 414.798187)" fill="#03a1c3"/><circle r="97.8236" transform="matrix(.358148-.933665 0.933665 0.358148 402.42352 146.178563)" fill="#03a1c3"/><circle r="97.8236" transform="matrix(.358148-.933665 0.933665 0.358148 774.420506 137.013255)" fill="#03a1c3"/><circle r="97.8236" transform="matrix(.358148-.933665 0.933665 0.358148 1044.209812 391.192791)" fill="#03a1c3"/><circle r="97.8236" transform="matrix(.358148-.933665 0.933665 0.358148 1053.219931 766.65177)" fill="#03a1c3"/><circle r="97.8236" transform="matrix(.358148-.933665 0.933665 0.358148 152.91272 787.422072)" fill="#03a1c3"/><path d="M356.076,43.0257C299.227,68.3541,273.67,134.98,298.996,191.83s91.948,82.406,148.797,57.077c56.849-25.328,82.406-91.954,57.08-148.804-25.325-56.8499-91.948-82.4058-148.797-57.0773ZM396.551,179.153c-2.842,3.385-6.465,6.07-10.922,8.034-4.441,2-8.822,2.882-13.101,2.691-4.29-.164-8.222-1.58-11.829-4.167-3.596-2.614-6.519-6.421-8.758-11.447l-14.983-33.683l13.738-6.12l15.043,33.767c1.509,3.388,3.499,5.603,5.961,6.67c2.461,1.068,5.305.893,8.534-.523c3.202-1.426,5.271-3.441,6.171-6.029.9-2.587.595-5.575-.887-8.952l-15.043-33.768l13.738-6.12l14.982,33.682c2.239,5.026,3.067,9.789,2.477,14.224-.573,4.472-2.289,8.382-5.121,11.741Zm41.887-49.651l31.107,19.65-16.008,7.132-19.2-12.149-2.431,21.786-15.599,6.95l5.296-36.738-30.832-19.483l16.009-7.132L425.704,121.5l2.371-21.47l15.599-6.9499-5.236,36.4219Z" fill="#f7f7f7"/><path d="M152.743,352.607l-2.993,7.803l12.808,4.913l2.993-7.803c.888-2.314.983-4.253.297-5.844-.686-1.59-2.057-2.765-4.129-3.559-1.964-.754-3.714-.777-5.288-.053-1.564.696-2.8,2.229-3.688,4.543Z" fill="#f7f7f7"/><path d="M40.3351,375.05C18.1945,432.769,47.026,497.539,104.769,519.689c57.716,22.139,122.484-6.696,144.635-64.441c22.141-57.719-6.691-122.489-64.434-144.639-57.743-22.149-122.484,6.696-144.6349,64.441ZM141.75,442.351c4.629,1.775,8.148,4.268,10.57,7.45c2.448,3.192,3.831,6.748,4.176,10.677s-.272,7.952-1.831,12.015c-1.569,4.09-3.769,7.413-6.596,10.033-2.826,2.621-6.218,4.221-10.132,4.849-3.941.618-8.204.064-12.832-1.712L94.2696,473.835l4.8307-12.593l30.9437,11.869c3.094,1.187,5.778,1.353,8.034.459c2.257-.894,3.948-2.808,5.073-5.741s1.158-5.513.099-7.74c-1.07-2.201-3.155-3.927-6.249-5.114l-30.944-11.869l4.831-12.594l30.862,11.839v0Zm36.398-32.525l-19.894,4.469l12.287,15.362-5.481,14.289-19.93-26.66-31.93,7.199l5.625-14.665l19.591-4.401-12.097-15.135l5.481-14.288l19.767,26.442l32.197-7.25-5.616,14.638v0Zm18.167-47.359l-23.663,3.27-1.156,3.014l19.534,7.493-4.83,12.593-51.716-19.838l8.113-21.15c1.559-4.063,3.6-7.293,6.12-9.598c2.531-2.332,5.321-3.731,8.343-4.208c3.023-.476,6.063-.113,9.103,1.053c3.444,1.322,6.14,3.467,8.088,6.436c1.947,2.97,2.79,6.565,2.465,10.793l25.059-4.093-5.46,14.235Z" fill="#f7f7f7"/><path d="M107.576,684.401c-56.8113,25.312-82.3375,91.856-57.018,148.642c25.3091,56.813,91.851,82.338,148.636,57.016c56.811-25.312,82.337-91.857,57.018-148.643-25.32-56.786-91.834-82.3-148.636-57.015Zm5.28,110.155c-1.045-2.345-1.2-4.596-.455-6.78.735-2.157,2.163-3.708,4.322-4.67c2.085-.929,4.193-.953,6.288-.057s3.665,2.517,4.736,4.872c1.078,2.42,1.223,4.698.488,6.855-.734,2.157-2.163,3.708-4.247,4.637-2.123.945-4.268.987-6.363.091-2.132-.88-3.718-2.538-4.769-4.948Zm74.879,1.375c3.5,2.947,6.294,6.766,8.384,11.457c2.488,5.585,3.465,11.084,2.986,16.518-.49,5.461-2.369,10.358-5.62,14.729-3.25,4.371-7.655,7.806-13.229,10.267-5.584,2.488-11.083,3.465-16.517,2.986-5.46-.489-10.358-2.368-14.728-5.619-4.371-3.251-7.805-7.655-10.266-13.229-3.002-6.739-3.902-13.165-2.709-19.251c1.193-6.087,4.375-11.163,9.455-15.234l6.767,15.19c-1.424,1.862-2.192,3.944-2.351,6.291-.16,2.346.351,4.796,1.496,7.364c1.973,4.431,5.017,7.358,9.126,8.718c4.098,1.387,8.604.985,13.481-1.188c5.175-2.305,8.629-5.518,10.273-9.641c1.67-4.113,1.397-8.632-.792-13.546-1.509-3.388-3.626-5.836-6.383-7.418-2.758-1.583-5.961-2.164-9.644-1.817l7.778,17.461-10.126,4.512-13.301-29.859l12.769-5.689c3.873-.521,7.828-.208,11.874.912c4.019,1.11,7.805,3.148,11.277,6.086Zm-7.516-23.133l-44.797,19.981-6.12-13.738l44.786-19.954l6.131,13.711Zm-18.559-41.66c2.222,4.988,2.719,9.408,1.543,13.278-1.203,3.86-4.546,7.023-10.056,9.478l-17.833,7.945l2.438,5.473-11.392,5.075-2.438-5.472-10.908,4.86-6.12-13.738l10.908-4.86-4.014-9.01l11.392-5.076l4.014,9.01l17.982-8.011c1.34-.598,2.148-1.337,2.462-2.235.314-.899.131-2.111-.56-3.61l-2.189-4.915l11.653-5.192l3.118,7Z" fill="#f7f7f7"/><path d="M1039.11,800.803c5.3,2.033,9.98,2.133,14.08.308c4.09-1.825,7.15-5.374,9.19-10.675l2.55-6.646-33.48-12.84-2.55,6.646c-2.03,5.301-2.16,9.976-.41,14.04c1.77,4.075,5.32,7.134,10.62,9.167Z" fill="#f7f7f7"/><path d="M946.745,726.323c-22.244,57.988,6.731,123.029,64.715,145.272c57.99,22.242,123.03-6.735,145.27-64.723s-6.73-123.029-64.72-145.272c-57.99-22.215-123.032,6.762-145.265,64.723Zm135.495,48.056l-8.27,21.554c-2.32,6.054-5.56,10.891-9.7,14.519-4.14,3.629-8.87,5.827-14.15,6.641-5.29.814-10.8.148-16.48-2.03-5.62-2.157-10.15-5.314-13.55-9.489-3.41-4.148-5.45-8.973-6.12-14.476-.64-5.493.17-11.232,2.48-17.233l8.26-21.553l57.53,22.067Zm-24.16-38.653c1.83-1.214,3.42-3.661,4.82-7.321l1-2.61l11.38,4.366-1,2.61c-1.07,2.799-1.44,5.218-1.16,7.301.3,2.094,1.67,3.605,4.12,4.544c1.96.754,3.7.804,5.23.124s2.63-1.954,3.37-3.891c.8-2.072.78-3.87-.1-5.351-.88-1.507-2.22-2.671-4-3.572l5.25-13.696c5.76,2.455,9.54,6.099,11.33,10.923c1.8,4.824,1.51,10.33-.86,16.492-1.57,4.09-3.62,7.347-6.16,9.706-2.55,2.386-5.33,3.849-8.36,4.417s-6.09.258-9.16-.919c-3.6-1.383-6.19-3.396-7.75-6.093-1.57-2.67-2.33-5.367-2.2-8.098l-.33-.124c-2.24,2.719-4.9,4.507-7.99,5.391s-6.53.612-10.3-.833c-3.39-1.3-6.08-3.226-8.09-5.788-1.98-2.552-3.16-5.597-3.5-9.151-.33-3.555.3-7.358,1.87-11.448c2.51-6.566,6.13-11.167,10.86-13.83c4.72-2.663,10.39-2.867,16.95-.595l-5.22,13.616c-2.41-.865-4.58-.925-6.49-.143-1.9.781-3.34,2.424-4.3,4.926-.81,2.126-.83,4.032-.04,5.663.79,1.659,2.18,2.844,4.2,3.618c2.61,1.092,4.81.98,6.63-.234Z" fill="#f7f7f7"/><path d="M1076.5,459.274c1.68-.747,2.74-1.913,3.22-3.488s.34-3.205-.43-4.918c-.73-1.638-1.8-2.79-3.26-3.475-1.43-.702-3.1-.786-4.96-.267l5.43,12.148Z" fill="#f7f7f7"/><path d="M1029.73,378.331c-.83,1.843-.8,3.705.01,5.529.83,1.862,2.22,3.137,4.16,3.816c1.94.716,4.19.497,6.73-.658c2.53-1.128,4.22-2.64,5-4.503.81-1.879.79-3.742-.04-5.603-.85-1.899-2.22-3.164-4.13-3.806-1.91-.641-4.13-.412-6.71.76-2.53,1.127-4.19,2.623-5.02,4.465Z" fill="#f7f7f7"/><path d="M1046.09,414.641c-.82,1.971-.8,3.924.06,5.86.87,1.936,2.3,3.259,4.28,3.985c2.01.71,4.21.535,6.63-.544c2.42-1.078,4.03-2.621,4.83-4.564.82-1.971.77-3.935-.1-5.844-.86-1.936-2.27-3.248-4.27-3.985-1.98-.727-4.18-.551-6.62.517-2.39,1.062-3.99,2.578-4.81,4.575Z" fill="#f7f7f7"/><path d="M997.909,292.874c-56.141,25.014-81.368,90.778-56.358,146.921c25.011,56.142,90.769,81.368,146.909,56.355c56.15-25.014,81.37-90.778,56.36-146.921s-90.8-81.378-146.911-56.355ZM1081.41,440.04c2.4,1.85,4.3,4.307,5.71,7.471c1.36,3.053,1.93,6.08,1.71,9.053-.21,2.974-1.23,5.638-3.02,8.04-1.78,2.401-4.28,4.316-7.45,5.752-.9.399-1.87.766-2.93,1.102l-9.8-22.003c-1.9,1.028-3.11,2.324-3.67,3.933-.54,1.581-.45,3.191.28,4.829c1.08,2.42,2.86,3.658,5.32,3.676l4.61,10.35c-2.32.408-4.61.269-6.9-.362s-4.37-1.801-6.24-3.444c-1.86-1.67-3.4-3.773-4.53-6.369-1.38-3.09-1.95-6.181-1.73-9.181.26-3.017,1.29-5.772,3.15-8.207c1.87-2.462,4.45-4.436,7.73-5.896c3.27-1.46,6.47-2.083,9.53-1.838c3.09.229,5.83,1.282,8.23,3.094Zm-17.52-39.379c2.28,1.525,3.99,3.599,5.15,6.205.93,2.085,1.32,4.183,1.22,6.304s-.67,4.002-1.73,5.634l14.71-6.552l4.33,9.717-42.07,18.743-4.33-9.717l4.54-2.023c-1.91-.241-3.72-.996-5.36-2.274-1.67-1.287-3.01-3.034-4-5.268-1.16-2.606-1.55-5.288-1.16-8.007.4-2.719,1.59-5.257,3.5-7.58c1.94-2.34,4.52-4.223,7.79-5.683c3.28-1.46,6.4-2.114,9.41-1.981c3,.134,5.71.957,8,2.482Zm-15.62-35.006c2.44,1.924,4.35,4.418,5.73,7.508s1.97,6.218,1.75,9.283c-.2,3.102-1.25,5.91-3.09,8.447-1.83,2.536-4.4,4.548-7.64,5.991-3.23,1.443-6.44,2.002-9.57,1.635-3.13-.368-5.91-1.495-8.38-3.43-2.44-1.924-4.37-4.455-5.75-7.545s-1.98-6.191-1.76-9.256c.22-3.064,1.24-5.883,3.07-8.393c1.82-2.509,4.39-4.521,7.69-5.97c3.28-1.46,6.45-2.003,9.56-1.672c3.19.388,5.96,1.515,8.39,3.402Zm-10.85-44.784c3.07,2.29,5.48,5.344,7.21,9.216c2.1,4.728,2.65,9.35,1.67,13.823-1.01,4.489-3.41,8.259-7.21,11.31l-4.76-10.685c1.3-1.538,2.08-3.246,2.29-5.08.22-1.86-.09-3.707-.92-5.569-1.33-2.978-3.46-4.971-6.36-5.867-2.92-.932-6.12-.619-9.6.951-3.49,1.559-5.86,3.707-7.12,6.497-1.25,2.79-1.22,5.675.11,8.653.83,1.862,1.99,3.328,3.52,4.408c1.53,1.081,3.3,1.634,5.31,1.697l4.76,10.685c-4.84.796-9.24.035-13.22-2.231-3.97-2.267-7.02-5.751-9.14-10.516-1.73-3.872-2.42-7.716-2.04-11.521.36-3.816,1.7-7.25,4.03-10.339c2.32-3.063,5.44-5.478,9.38-7.237c3.95-1.758,7.83-2.461,11.68-2.125c3.87.373,7.33,1.667,10.41,3.93Z" fill="#f7f7f7"/><path d="M730.138,33.7818c-56.849,25.3285-82.406,91.9542-57.081,148.8042c25.326,56.85,91.948,82.406,148.797,57.077c56.849-25.328,82.406-91.954,57.081-148.8037-25.326-56.8501-91.948-82.40599-148.797-57.0775ZM796.643,174.101l21.655-56.453-13.743-5.272L782.9,168.829l13.743,5.272Zm-48.24-44.531l12.952-33.7649-13.743-5.2719-12.929,33.7038c-1.927,5.026-2.546,9.706-1.861,13.993.705,4.295,2.467,7.983,5.306,11.072c2.847,3.068,6.488,5.477,10.939,7.184c4.451,1.708,8.831,2.376,13.118,1.997c4.286-.38,8.165-1.904,11.657-4.565c3.491-2.661,6.187-6.498,8.123-11.544l12.928-33.704-13.743-5.272-12.952,33.765c-1.291,3.364-3.131,5.647-5.554,6.812-2.424,1.165-5.232,1.123-8.452-.112-3.221-1.236-5.315-3.075-6.276-5.538-.982-2.471-.811-5.37.487-8.755Z" clip-rule="evenodd" fill="#f7f7f7" fill-rule="evenodd"/><circle r="97.8379" transform="matrix(.360759-.932659 0.932659 0.360759 796.112567 1036.711425)" fill="#03a1c3"/><circle r="97.8379" transform="matrix(.360759-.932659 0.932659 0.360759 422.385256 1043.017687)" fill="#03a1c3"/><path d="M317.786,1003c-22.264,57.55,6.362,122.25,63.89,144.5s122.237-6.34,144.5-63.9c22.264-57.56-6.335-122.239-63.889-144.502-57.555-22.262-122.248,6.366-144.501,63.902Zm41.31,41.56l14.454-37.36-14.678-5.68l3.349-8.658l25.887,10.018-17.802,46.02-11.21-4.34Zm58.119,22.48l-.581-36.84-25.091,26.91-13.173-5.09l17.793-46l11.209,4.34-10.669,27.58l20.965-23.6l9.033,3.49-.351,31.67l10.7-27.66l11.21,4.33-17.792,46-13.253-5.13Zm67.525-24.84c2.298,2.53,3.762,5.54,4.289,9.05.564,3.49.046,7.31-1.545,11.42l-10.617,27.45-11.21-4.34l10.648-27.53c1.061-2.74,1.21-5.12.411-7.13-.772-2-2.47-3.52-5.105-4.54-2.634-1.02-4.915-1.04-6.884-.1-1.97.94-3.491,2.79-4.551,5.53l-10.649,27.53-11.209-4.33l10.627-27.48c1.591-4.11,3.82-7.24,6.669-9.41c2.85-2.17,6.01-3.39,9.529-3.7c3.518-.31,7.068.26,10.697,1.67c3.619,1.43,6.575,3.37,8.9,5.91Z" fill="#f6f6f6"/><path d="M740.206,1050.96c-2.157-.9-4.265-.88-6.38.03-2.088.92-3.558,2.49-4.336,4.66s-.601,4.59.57,7.24c1.17,2.64,2.812,4.39,4.968,5.29c2.13.88,4.276.85,6.364-.08c2.088-.92,3.558-2.48,4.352-4.62.805-2.16.618-4.55-.553-7.2-1.197-2.65-2.866-4.41-4.985-5.32Z" fill="#f6f6f6"/><path d="M748.663,932.895c-56.816,25.123-82.512,91.555-57.391,148.365c25.121,56.82,91.547,82.52,148.363,57.39c56.816-25.12,82.511-91.55,57.39-148.367-25.094-56.807-91.546-82.512-148.362-57.388Zm6.653,137.475c-1.668,2.48-3.928,4.32-6.771,5.6-2.424,1.08-4.79,1.52-7.072,1.35s-4.276-.85-5.954-2.03l2.159,4.89-10.587,4.68-15.264-34.52l10.588-4.69l2.159,4.89c.335-2.07,1.175-4,2.583-5.8c1.409-1.81,3.32-3.23,5.753-4.33c2.797-1.23,5.699-1.63,8.653-1.19c2.954.43,5.704,1.71,8.249,3.84c2.529,2.09,4.585,4.92,6.14,8.49c1.566,3.54,2.28,6.97,2.125,10.25-.162,3.21-1.092,6.1-2.761,8.57Zm29.57-11.09l3.726,8.43-10.588,4.68-3.725-8.43-6.935,3.07-3.89-8.8l6.935-3.07-6.132-13.87c-.462-1.04-1.026-1.66-1.735-1.9-.682-.24-1.628-.11-2.784.4l-3.765,1.67-3.973-8.99l5.412-2.32c3.84-1.7,7.234-2.09,10.21-1.15c2.977.93,5.409,3.51,7.288,7.76l6.093,13.73l4.213-1.86l3.89,8.8-4.24,1.85Zm37.573-18.6c-1.669,2.48-3.928,4.32-6.772,5.6-2.423,1.08-4.789,1.52-7.071,1.35s-4.276-.85-5.954-2.03l2.159,4.89-10.587,4.68-15.264-34.52l10.588-4.69l2.159,4.89c.335-2.07,1.175-4,2.583-5.8c1.409-1.81,3.32-3.23,5.753-4.33c2.796-1.23,5.698-1.63,8.653-1.19c2.954.43,5.704,1.71,8.249,3.84c2.529,2.09,4.585,4.92,6.14,8.49c1.566,3.54,2.28,6.97,2.124,10.25-.171,3.24-1.091,6.1-2.76,8.57Zm55.058-11.71l-16.292,7.21c-4.585,2.02-8.997,2.88-13.207,2.58-4.238-.31-8.006-1.67-11.32-4.13-3.315-2.46-5.939-5.82-7.834-10.11-1.879-4.25-2.612-8.42-2.188-12.56.424-4.13,1.96-7.86,4.582-11.2c2.649-3.337,6.226-6.033,10.764-8.017l16.292-7.204l19.203,43.431Z" fill="#f6f6f6"/><path d="M796.623,1025.99c-.778,2.17-.601,4.59.569,7.24c1.171,2.64,2.813,4.39,4.969,5.29c2.13.88,4.276.85,6.364-.08c2.088-.92,3.558-2.48,4.352-4.62.805-2.16.617-4.55-.553-7.2-1.17-2.64-2.839-4.4-4.958-5.31-2.157-.9-4.266-.88-6.38.03-2.142.91-3.575,2.45-4.363,4.65Z" fill="#f6f6f6"/><path d="M838.852,1009.01c-1.254,3.16-1.004,6.75.749,10.77c1.764,3.99,4.267,6.62,7.466,7.86s6.825.97,10.814-.79l4.996-2.21-11.16-25.242-4.995,2.212c-3.979,1.73-6.606,4.21-7.87,7.4Z" fill="#f6f6f6"/></g><g clip-path="url(#eS2bARFBXC872)"><g><path d="M901.09,613.618c0,134.827-87.697,249.158-209.141,289.027-29.857,9.801-61.76,15.105-94.902,15.105-105.277,0-198.075-53.533-252.63-134.856-32.479-48.372-51.413-106.604-51.413-169.276c0-167.979,136.113-304.132,304.043-304.132s304.043,136.153,304.043,304.132Z" fill="#fec94c"/><path d="M780.684,790.213l-.807,66.045c-26.975,18.219-56.572,33.815-87.928,46.383-29.857,9.802-61.759,15.106-94.902,15.106-105.276,0-198.074-53.533-252.629-134.856c3.718-40.791,38.272-73.02,79.973-73.02l88.706-17.499c33.891-6.688,68.763-6.601,102.625.289l84.671,17.21c44.151,0,80.291,36.15,80.291,80.342Z" fill="#424242"/><path d="M699.644,709.873l-84.671-17.21c-23.488-4.786-47.465-6.198-71.27-4.44c1.095.202,2.162.404,3.257.606l104.786,21.303c54.671,0,99.398,44.741,99.398,99.427l-2.795,66.246c10.49-5.996,20.778-12.338,30.75-19.055l.835-66.563c.029-44.164-36.11-80.314-80.29-80.314Z" opacity="0.08"/><path d="M560.934,748.33c44.964,0,81.414-15.604,81.414-34.852c0-19.249-36.45-34.853-81.414-34.853s-81.414,15.604-81.414,34.853c0,19.248,36.45,34.852,81.414,34.852Z" fill="#2d2d2d"/><path d="M562.375,759.975c47.447,0,85.91-19.528,85.91-43.617c0-24.088-38.463-43.616-85.91-43.616s-85.91,19.528-85.91,43.616c0,24.089,38.463,43.617,85.91,43.617Z" fill="#ffc5b4"/><path d="M608.317,679.518c10.72,8.879,16.916,19.343,16.916,30.528c0,20.987-21.729,39.35-54.381,49.699c43.459-2.162,77.437-20.756,77.437-43.386c0-15.48-15.937-29.087-39.972-36.841Z" opacity="0.56" fill="#e98d80"/><path d="M686.046,586.778c5.966,5.939,12.45,11.589,19.396,16.893-5.822-8.302-10.692-16.951-14.496-25.743c7.003,7.38,14.784,14.385,23.257,20.842-9.568-13.664-16.571-28.164-20.462-42.924c22.508,5.65,47.35,9.167,73.835,10.349-29.569-9.888-54.007-23.985-71.385-41.742c9.625,2.796,19.683,3.978,29.741,3.488-4.467-1.47-8.79-3.287-12.997-5.42c8.79,2.249,17.896,3.2,27.032,2.739-19.655-6.429-37.263-19.574-48.935-38.572-16.225-26.377-17.32-57.799-5.706-84.148l-6.052,3.719c-7.897-24.215-14.929-46.557-22.047-66.765l-27.205,6.775-19.713,4.9c-16.599,19.891-28.185,40.59-33.747,61.173l-2.968.778c-10.952,13.117-19.684,26.579-25.995,40.099l-6.456,1.615c-30.231,36.236-43.805,75.067-34.813,111.217c9.02,36.352,39.482,64.401,83.547,82.216c18.3,26.666,48.646,40.647,79.137,39.148-15.36-5.016-29.424-14.154-40.433-26.982c21.441,5.102,44.9,8.273,69.858,9.398-13.574-4.555-26.053-9.975-37.292-16.23-2.594-4.526-4.9-9.11-6.888-13.751c7.003,7.38,14.784,14.385,23.257,20.842-8.271-11.819-14.611-24.273-18.704-36.957c10.548,3.459,21.701,5.016,32.883,4.44-4.438-1.442-8.79-3.287-12.969-5.42c5.879,1.499,11.874,2.421,17.955,2.739c7.839,1.729,15.879,2.421,23.948,2.018c3.401.23,6.831.432,10.289.605-3.458-1.153-6.83-2.393-10.173-3.661c4.611.49,9.28.634,13.919.403-19.51-6.371-36.946-19.343-48.618-38.081Z" fill="#262626"/><path d="M710.053,594.389c5.965,5.939,12.45,11.589,19.395,16.893-5.821-8.302-10.692-16.95-14.496-25.743c7.003,7.38,14.784,14.385,23.257,20.843-9.568-13.665-16.571-28.165-20.462-42.925c22.508,5.65,47.35,9.167,73.835,10.349-29.568-9.888-54.007-23.984-71.385-41.742c9.626,2.796,19.684,3.978,29.742,3.488-4.467-1.47-8.79-3.286-12.998-5.42c8.79,2.249,17.897,3.2,27.033,2.739-19.655-6.429-37.264-19.574-48.936-38.571-16.225-26.378-17.32-57.8-5.706-84.148l-6.052,3.718c-7.896-24.215-14.928-46.556-22.047-66.765l-27.205,6.775-19.712,4.901c-16.6,19.891-28.185,40.589-33.748,61.172l-2.939.721c-10.951,13.116-19.684,26.579-25.995,40.099l-6.456,1.614c-30.231,36.237-43.805,75.068-34.813,111.217c9.02,36.352,39.482,64.402,83.547,82.217c18.3,26.666,48.647,40.647,79.137,39.148-15.36-5.016-29.424-14.154-40.433-26.983c21.441,5.103,44.9,8.274,69.858,9.398-13.574-4.555-26.053-9.974-37.292-16.23-2.594-4.526-4.9-9.109-6.888-13.751c7.003,7.38,14.784,14.385,23.257,20.843-8.271-11.82-14.611-24.273-18.704-36.957c10.548,3.459,21.701,5.016,32.883,4.439-4.438-1.441-8.79-3.286-12.969-5.419c5.88,1.499,11.874,2.421,17.955,2.738c7.839,1.73,15.879,2.422,23.949,2.018c3.4.231,6.83.432,10.288.605-3.458-1.153-6.83-2.392-10.173-3.661c4.611.49,9.28.635,13.92.404-19.511-6.342-36.947-19.315-48.647-38.024Z" fill="#383838"/><path d="M686.046,586.778c5.966,5.939,12.45,11.589,19.396,16.893-5.822-8.302-10.692-16.951-14.496-25.743c7.003,7.38,14.784,14.385,23.257,20.842-9.568-13.664-16.571-28.164-20.462-42.924c22.508,5.65,47.35,9.167,73.835,10.349-29.569-9.888-54.007-23.985-71.385-41.742c9.625,2.796,19.683,3.978,29.741,3.488-4.467-1.47-8.79-3.287-12.997-5.42c8.79,2.249,17.896,3.2,27.032,2.739-19.655-6.429-37.263-19.574-48.935-38.572-16.225-26.377-17.32-57.799-5.706-84.148l-6.052,3.719c-7.897-24.215-14.929-46.557-22.047-66.765l-27.205,6.775-19.713,4.9c-16.599,19.891-28.185,40.59-33.747,61.173l-2.968.778c-10.952,13.117-19.684,26.579-25.995,40.099l-6.456,1.615c-30.231,36.236-43.805,75.067-34.813,111.217c9.02,36.352,39.482,64.401,83.547,82.216c18.3,26.666,48.646,40.647,79.137,39.148-15.36-5.016-29.424-14.154-40.433-26.982c21.441,5.102,44.9,8.273,69.858,9.398-13.574-4.555-26.053-9.975-37.292-16.23-2.594-4.526-4.9-9.11-6.888-13.751c7.003,7.38,14.784,14.385,23.257,20.842-8.271-11.819-14.611-24.273-18.704-36.957c10.548,3.459,21.701,5.016,32.883,4.44-4.438-1.442-8.79-3.287-12.969-5.42c5.879,1.499,11.874,2.421,17.955,2.739c7.839,1.729,15.879,2.421,23.948,2.018c3.401.23,6.831.432,10.289.605-3.458-1.153-6.83-2.393-10.173-3.661c4.611.49,9.28.634,13.919.403-19.51-6.371-36.946-19.343-48.618-38.081Z" fill="#262626"/><path d="M433.506,586.778c-5.965,5.939-12.45,11.589-19.395,16.893c5.821-8.302,10.692-16.951,14.496-25.743-7.003,7.38-14.784,14.385-23.257,20.842c9.568-13.664,16.571-28.164,20.461-42.924-22.507,5.65-47.35,9.167-73.834,10.349c29.568-9.888,54.007-23.985,71.385-41.742-9.626,2.796-19.684,3.978-29.742,3.488c4.467-1.47,8.79-3.287,12.998-5.42-8.79,2.249-17.897,3.2-27.033,2.739c19.655-6.429,37.264-19.574,48.935-38.572c16.226-26.377,17.321-57.799,5.707-84.148l6.052,3.719c7.896-24.215,14.928-46.557,22.046-66.765l27.206,6.775l19.712,4.9c16.6,19.891,28.185,40.59,33.748,61.173l2.939.778c10.951,13.117,19.684,26.579,25.995,40.099l6.456,1.615c30.231,36.236,43.805,75.067,34.813,111.217-9.02,36.352-39.482,64.401-83.547,82.216-18.3,26.666-48.647,40.647-79.137,39.148c15.36-5.016,29.424-14.154,40.433-26.982-21.442,5.102-44.9,8.273-69.858,9.398c13.574-4.555,26.053-9.975,37.292-16.23c2.594-4.526,4.899-9.11,6.888-13.751-7.003,7.38-14.784,14.385-23.257,20.842c8.271-11.819,14.611-24.273,18.704-36.957-10.548,3.459-21.701,5.016-32.883,4.44c4.438-1.442,8.79-3.287,12.968-5.42-5.879,1.499-11.873,2.421-17.954,2.739-7.839,1.729-15.879,2.421-23.949,2.018-3.4.23-6.83.432-10.288.605c3.458-1.153,6.83-2.393,10.173-3.661-4.611.49-9.28.634-13.92.403c19.511-6.371,36.947-19.343,48.647-38.081Z" fill="#262626"/><path d="M409.498,594.389c-5.965,5.939-12.45,11.589-19.395,16.893c5.822-8.302,10.692-16.95,14.496-25.743-7.003,7.38-14.784,14.385-23.257,20.843c9.568-13.665,16.571-28.165,20.462-42.925-22.508,5.65-47.35,9.167-73.835,10.349c29.568-9.888,54.007-23.984,71.385-41.742-9.626,2.796-19.684,3.978-29.741,3.488c4.467-1.47,8.789-3.286,12.997-5.42-8.79,2.249-17.897,3.2-27.032,2.739c19.654-6.429,37.263-19.574,48.935-38.571c16.225-26.378,17.32-57.8,5.706-84.148l6.052,3.718c7.896-24.215,14.928-46.556,22.047-66.765l27.205,6.775l19.712,4.901c16.6,19.891,28.186,40.589,33.748,61.172l2.939.721c10.952,13.116,19.684,26.579,25.995,40.099l6.456,1.614c30.231,36.237,43.805,75.068,34.813,111.217-9.02,36.352-39.482,64.402-83.547,82.217-18.3,26.666-48.646,40.647-79.137,39.148c15.36-5.016,29.424-14.154,40.433-26.983-21.441,5.103-44.9,8.274-69.858,9.398c13.574-4.555,26.053-9.974,37.292-16.23c2.594-4.526,4.9-9.109,6.888-13.751-7.003,7.38-14.784,14.385-23.257,20.843c8.271-11.82,14.611-24.273,18.704-36.957-10.548,3.459-21.701,5.016-32.883,4.439c4.438-1.441,8.79-3.286,12.969-5.419-5.879,1.499-11.874,2.421-17.955,2.738-7.839,1.73-15.879,2.422-23.949,2.018-3.4.231-6.83.432-10.288.605c3.458-1.153,6.83-2.392,10.173-3.661-4.611.49-9.28.635-13.919.404c19.51-6.342,36.946-19.315,48.646-38.024Z" fill="#383838"/><path d="M433.506,586.778c-5.965,5.939-12.45,11.589-19.395,16.893c5.821-8.302,10.692-16.951,14.496-25.743-7.003,7.38-14.784,14.385-23.257,20.842c9.568-13.664,16.571-28.164,20.461-42.924-22.507,5.65-47.35,9.167-73.834,10.349c29.568-9.888,54.007-23.985,71.385-41.742-9.626,2.796-19.684,3.978-29.742,3.488c4.467-1.47,8.79-3.287,12.998-5.42-8.79,2.249-17.897,3.2-27.033,2.739c19.655-6.429,37.264-19.574,48.935-38.572c16.226-26.377,17.321-57.799,5.707-84.148l6.052,3.719c7.896-24.215,14.928-46.557,22.046-66.765l27.206,6.775l19.712,4.9c16.6,19.891,28.185,40.59,33.748,61.173l2.939.778c10.951,13.117,19.684,26.579,25.995,40.099l6.456,1.615c30.231,36.236,43.805,75.067,34.813,111.217-9.02,36.352-39.482,64.401-83.547,82.216-18.3,26.666-48.647,40.647-79.137,39.148c15.36-5.016,29.424-14.154,40.433-26.982-21.442,5.102-44.9,8.273-69.858,9.398c13.574-4.555,26.053-9.975,37.292-16.23c2.594-4.526,4.899-9.11,6.888-13.751-7.003,7.38-14.784,14.385-23.257,20.842c8.271-11.819,14.611-24.273,18.704-36.957-10.548,3.459-21.701,5.016-32.883,4.44c4.438-1.442,8.79-3.287,12.968-5.42-5.879,1.499-11.873,2.421-17.954,2.739-7.839,1.729-15.879,2.421-23.949,2.018-3.4.23-6.83.432-10.288.605c3.458-1.153,6.83-2.393,10.173-3.661-4.611.49-9.28.634-13.92.403c19.511-6.371,36.947-19.343,48.647-38.081Z" fill="#262626"/><path d="M704.2,450.738c11.096-15.279,49.54,8.475,26.197,47.104-16.571,27.416-34.237,30.644-35.217,40.475l9.02-87.579Z" fill="#f68d6f"/><path d="M694.083,455.81c11.095-15.278,49.54,8.476,26.197,47.105-16.571,27.415-34.238,30.644-35.218,40.474l9.021-87.579Z" fill="#ffc5b4"/><path d="M422.956,450.741c-11.095-15.25-49.54,8.504-26.197,47.133c16.571,27.415,34.238,30.644,35.217,40.474l-9.02-87.607Z" fill="#f68d6f"/><path d="M433.073,455.816c-11.095-15.278-49.54,8.476-26.197,47.105c16.572,27.415,34.238,30.643,35.218,40.474l-9.021-87.579Z" fill="#ffc5b4"/><path d="M496.293,614.193v93.546l.086.231c5.851,14.846,18.157,26.377,33.488,30.817c9.28,2.681,18.906,4.122,28.618,4.151.259,0,.519,0,.807,0c9.712-.029,19.338-1.47,28.589-4.151c15.418-4.469,27.724-16.086,33.516-31.048v-93.546h-125.104Z" fill="#ffc5b4"/><path d="M496.293,668.535l7.81,4.67c16.456,9.801,35.217,15.278,54.382,15.336.259,0,.519,0,.807,0c19.193-.058,37.955-5.564,54.439-15.423l7.695-4.583v-48.027h-125.133v48.027Z" fill="#e98d80"/><path d="M698.952,444.829c23.056,138.085-53.301,231.285-137.323,231.285-90.75,0-155.394-96.746-140.35-222.982c13.718-115.052,15.044-178.991,134.326-178.991c124.298.028,124.298,56.704,143.347,170.688Z" fill="#ffc5b4"/><path d="M698.62,450.727c-16.384-82.606-20.937-135.048-78.564-157.614c17.514,34.712,24.46,81.858,36.291,141.582c21.236,106.899-29.478,192.326-91.359,242.092c86.87-6.205,157.361-106.554,133.632-226.06Z" opacity="0.31" fill="#f3a697"/><path d="M583.501,542.441c-2.681-.721-4.784-2.681-5.88-5.218-2.564-5.967-7.954-10.061-14.15-10.061-6.311,0-11.758,4.238-14.265,10.378-.98,2.335-2.738,4.324-5.13,5.218-5.044,1.845-8.531,6.861-8.098,12.626.489,6.054,5.302,10.84,11.354,11.301.058,0,.087,0,.144,0c3.372.23,6.456,1.874,8.704,4.411c1.787,1.989,4.352,3.228,7.234,3.228c2.91,0,5.533-1.297,7.32-3.315c2.305-2.652,5.706-4.151,9.222-4.295.749-.029,1.498-.116,2.248-.289c5.447-1.153,9.337-5.88,9.625-11.444.317-5.795-2.709-11.012-8.328-12.54Z" fill="#f58e6f"/><path d="M537.215,559.822c1.873,3.805,5.648,6.515,10.115,6.861.058,0,.087,0,.145,0c3.371.231,6.455,1.874,8.703,4.411c1.787,1.989,4.352,3.229,7.234,3.229c2.91,0,5.533-1.298,7.32-3.316c2.305-2.652,5.706-4.151,9.222-4.295.749-.029,1.498-.115,2.248-.288c3.746-.807,6.772-3.287,8.386-6.602h-53.373Z" fill="#da6864"/><path d="M525.975,606.159c-1.452-.242-2.872-.511-4.321-.782c8.205,4.04,17.756,7.153,28.153,8.848c27.548,4.493,52.669-2.205,63.737-15.456-23.511,9.538-54.607,12.754-87.569,7.39Z" fill="#bb6864"/><path d="M571.059,624.681c-5.217.577-9.828.923-12.133,5.218c3.199,3.69,7.839,3.69,13.055,3.114c5.216-.577,9.741-1.615,12.075-5.91-3.228-3.69-7.781-2.998-12.997-2.422Z" fill="#f5906b"/><path d="M715.004,454.979c-6.456,13.808-22.105,20.698-36.63,16.143l-50.059-15.711c-42.076-13.203-87.149-13.347-129.312-.432l-45.159,13.837c-13.027,4.007-27.148-1.182-34.497-12.655l-4.726-7.38c-3.66-5.708-5.534-12.367-5.39-19.113l-.172,8.85c-.145,6.775,1.729,13.434,5.389,19.113l4.726,7.38c7.349,11.473,21.47,16.662,34.497,12.655l45.159-13.837c42.163-12.915,87.236-12.771,129.312.432l50.059,15.711c14.525,4.555,30.203-2.335,36.63-16.143c2.017-4.324,3.112-9.023,3.199-13.78l.173-8.85c-.087,4.785-1.182,9.484-3.199,13.78Z" opacity="0.15"/><path d="M713.737,452.095c-.115-1.816-.259-3.69-.432-5.65-.317-4.122-.721-8.504-1.124-12.972-2.191-23.063-5.245-48.287-5.245-48.287L603.302,359.904h-91.012l-66.111,27.271-36.254,63.709c0,0-2.537,55.609,8.847,73.309c0,0-1.239-29.894.576-49.843c0,0,0,0,0-.029c5.591,9.629,17.58,14.962,31.5,14.847-8.473-2.797-15.073-8.187-18.127-15.769-4.208-10.493-.577-22.716,8.415-32.748l-.058.028c14.871-15.249,33.286-35.313,33.286-35.313l133.952-2.537l93.519,29.087c0,0,0,.057.028.144l-.317-.029c-6.887,8.937-11.787,20.439-13.516,33.383-2.911,22.024,4.15,42.463,17.004,54.253-5.418-11.07-7.782-24.734-5.851-39.09c1.038-7.812,3.228-15.077,6.312-21.592c1.412,16.893,2.046,40.589-1.124,67.716c0,.029,11.124-49.41,9.366-74.606Z" fill="#383838"/><path d="M409.233,394.584l134.471-46.902c.029,0,9.741-5.881,9.798-5.881l163.809,52.783c.317.029.576.289.576.634v45.433c0,4.756-1.008,9.484-2.939,13.837-6.167,13.924-21.701,21.16-36.312,16.893L628.26,456.679c-42.336-12.338-87.409-11.589-129.312,2.162l-44.872,14.731c-12.969,4.267-27.148-.634-34.756-11.963l-4.87-7.294c-3.776-5.621-5.764-12.252-5.764-18.997v-40.1c-.029-.317.23-.605.547-.634Z" fill="#0d8cb3"/><path d="M562.208,397.813c52.768,0,104.729,3.546,155.652,10.378v-12.973c0-.317-.23-.576-.576-.634L553.475,341.801c-.028,0-9.74,5.881-9.798,5.881L409.235,394.584c-.317.029-.547.289-.547.606v12.684c50.231-6.602,101.472-10.061,153.52-10.061Z" opacity="0.06"/><path d="M563.268,382.908c56.515,0,109.225,4.209,153.895,11.503l-.202-.087v-41.079c0-60.048-48.675-100.926-108.735-100.926-25.735-19.43-61.068-20.093-87.553-1.672l-2.392,1.672c-60.03,0-108.735,40.849-108.735,100.926v41.108l-.144.058c44.67-7.294,97.381-11.503,153.866-11.503Z" fill="#11a1c4"/><path d="M674.048,368.728c0,6.688-.375,13.26-1.067,19.775c15.419,1.644,30.203,3.633,44.18,5.91l-.202-.086v-41.08c0-50.852-34.871-87.924-81.99-98.101c24.467,31.307,39.079,70.744,39.079,113.582Z" opacity="0.07"/><path d="M452.836,368.728c0,6.688.375,13.26,1.067,19.775-15.419,1.644-30.203,3.633-44.18,5.91l.201-.086v-41.08c0-50.852,34.872-87.924,81.991-98.101-24.467,31.307-39.079,70.744-39.079,113.582Z" opacity="0.07" fill="#fff"/><path d="M555.118,286.566c-.72-18.969-16.311-34.132-35.447-34.132-2.162,0-4.265.201-6.312.576c18.589,4.007,33.978,16.663,41.759,33.556Z" opacity="0.07"/><path d="M609.414,252.406c-12.651.49-22.738,10.868-22.738,23.639c0,1.441.144,2.825.374,4.209c2.681-12.425,11.096-22.688,22.364-27.848Z" opacity="0.17" fill="#fff"/><path d="M590.621,495.682h74.7l4.611-5.391-15.303-5.592c-4.669-2.422-9.655-4.152-14.842-5.103h-.058c-7.262-1.326-14.698-1.124-21.874.577-5.533,1.326-10.836,3.545-15.677,6.572l-8.675,7.092c-.893.721-1.844,1.355-2.882,1.845Z"/><path d="M590.621,495.682l18.617-8.764c1.499-.692,3.055-1.239,4.64-1.614l9.885-2.277c3.516-.808,7.176-.779,10.692.115l9.539,2.393c1.672.403,3.257,1.009,4.784,1.787l16.543,8.36-16.168,10.782-21.557,3.862-22.335-3.862-14.64-10.782Z" fill="#fff"/><path d="M628.374,510.328c7.656,0,13.862-6.208,13.862-13.866s-6.206-13.866-13.862-13.866-13.862,6.208-13.862,13.866s6.206,13.866,13.862,13.866Z" fill="#281300"/><path d="M628.374,503.38c4.25,0,7.695-3.446,7.695-7.697s-3.445-7.697-7.695-7.697c-4.249,0-7.694,3.446-7.694,7.697s3.445,7.697,7.694,7.697Z"/><path d="M619.901,501.103c2.133,0,3.862-1.73,3.862-3.863c0-2.134-1.729-3.863-3.862-3.863s-3.862,1.729-3.862,3.863c0,2.133,1.729,3.863,3.862,3.863Z" fill="#fff"/><path d="M537.397,495.682h-74.7l-4.611-5.391l15.303-5.592c4.669-2.422,9.654-4.152,14.842-5.103h.058c7.262-1.326,14.697-1.124,21.873.577c5.534,1.326,10.836,3.545,15.678,6.572l8.675,7.092c.893.721,1.873,1.355,2.882,1.845Z"/><path d="M537.391,495.682l-18.617-8.764c-1.499-.692-3.055-1.239-4.64-1.614l-9.885-2.277c-3.516-.808-7.176-.779-10.692.115l-9.539,2.393c-1.672.403-3.257,1.009-4.784,1.787l-16.543,8.36l16.168,10.782l21.557,3.862l22.335-3.862l14.64-10.782Z" fill="#fff"/><path d="M499.675,510.328c7.655,0,13.862-6.208,13.862-13.866s-6.207-13.866-13.862-13.866c-7.656,0-13.863,6.208-13.863,13.866s6.207,13.866,13.863,13.866Z" fill="#281300"/><path d="M499.675,503.38c4.25,0,7.695-3.446,7.695-7.697s-3.445-7.697-7.695-7.697c-4.249,0-7.695,3.446-7.695,7.697s3.446,7.697,7.695,7.697Z"/><path d="M490.854,501.103c2.133,0,3.862-1.73,3.862-3.863c0-2.134-1.729-3.863-3.862-3.863s-3.862,1.729-3.862,3.863c0,2.133,1.729,3.863,3.862,3.863Z" fill="#fff"/></g><clipPath id="eS2bARFBXC872"><rect width="608.086" height="680.477" rx="0" ry="0" transform="translate(293 237.275)" fill="#fff"/></clipPath></g><script><![CDATA[!function(t,n){"object"==typeof exports&&"undefined"!=typeof module?module.exports=n():"function"==typeof define&&define.amd?define(n):((t="undefined"!=typeof globalThis?globalThis:t||self).__SVGATOR_PLAYER__=t.__SVGATOR_PLAYER__||{},t.__SVGATOR_PLAYER__["5c7f360c"]=n())}(this,(function(){"use strict";function t(t,n){var r=Object.keys(t);if(Object.getOwnPropertySymbols){var e=Object.getOwnPropertySymbols(t);n&&(e=e.filter((function(n){return Object.getOwnPropertyDescriptor(t,n).enumerable}))),r.push.apply(r,e)}return r}function n(n){for(var r=1;r<arguments.length;r++){var e=null!=arguments[r]?arguments[r]:{};r%2?t(Object(e),!0).forEach((function(t){u(n,t,e[t])})):Object.getOwnPropertyDescriptors?Object.defineProperties(n,Object.getOwnPropertyDescriptors(e)):t(Object(e)).forEach((function(t){Object.defineProperty(n,t,Object.getOwnPropertyDescriptor(e,t))}))}return n}function r(t){return(r="function"==typeof Symbol&&"symbol"==typeof Symbol.iterator?function(t){return typeof t}:function(t){return t&&"function"==typeof Symbol&&t.constructor===Symbol&&t!==Symbol.prototype?"symbol":typeof t})(t)}function e(t,n){if(!(t instanceof n))throw new TypeError("Cannot call a class as a function")}function i(t,n){for(var r=0;r<n.length;r++){var e=n[r];e.enumerable=e.enumerable||!1,e.configurable=!0,"value"in e&&(e.writable=!0),Object.defineProperty(t,e.key,e)}}function o(t,n,r){return n&&i(t.prototype,n),r&&i(t,r),t}function u(t,n,r){return n in t?Object.defineProperty(t,n,{value:r,enumerable:!0,configurable:!0,writable:!0}):t[n]=r,t}function a(t){return(a=Object.setPrototypeOf?Object.getPrototypeOf:function(t){return t.__proto__||Object.getPrototypeOf(t)})(t)}function l(t,n){return(l=Object.setPrototypeOf||function(t,n){return t.__proto__=n,t})(t,n)}function f(){if("undefined"==typeof Reflect||!Reflect.construct)return!1;if(Reflect.construct.sham)return!1;if("function"==typeof Proxy)return!0;try{return Boolean.prototype.valueOf.call(Reflect.construct(Boolean,[],(function(){}))),!0}catch(t){return!1}}function s(t,n,r){return(s=f()?Reflect.construct:function(t,n,r){var e=[null];e.push.apply(e,n);var i=new(Function.bind.apply(t,e));return r&&l(i,r.prototype),i}).apply(null,arguments)}function c(t,n){if(n&&("object"==typeof n||"function"==typeof n))return n;if(void 0!==n)throw new TypeError("Derived constructors may only return object or undefined");return function(t){if(void 0===t)throw new ReferenceError("this hasn't been initialised - super() hasn't been called");return t}(t)}function h(t,n,r){return(h="undefined"!=typeof Reflect&&Reflect.get?Reflect.get:function(t,n,r){var e=function(t,n){for(;!Object.prototype.hasOwnProperty.call(t,n)&&null!==(t=a(t)););return t}(t,n);if(e){var i=Object.getOwnPropertyDescriptor(e,n);return i.get?i.get.call(r):i.value}})(t,n,r||t)}function v(t){return function(t){if(Array.isArray(t))return y(t)}(t)||function(t){if("undefined"!=typeof Symbol&&null!=t[Symbol.iterator]||null!=t["@@iterator"])return Array.from(t)}(t)||function(t,n){if(!t)return;if("string"==typeof t)return y(t,n);var r=Object.prototype.toString.call(t).slice(8,-1);"Object"===r&&t.constructor&&(r=t.constructor.name);if("Map"===r||"Set"===r)return Array.from(t);if("Arguments"===r||/^(?:Ui|I)nt(?:8|16|32)(?:Clamped)?Array$/.test(r))return y(t,n)}(t)||function(){throw new TypeError("Invalid attempt to spread non-iterable instance.\nIn order to be iterable, non-array objects must have a [Symbol.iterator]() method.")}()}function y(t,n){(null==n||n>t.length)&&(n=t.length);for(var r=0,e=new Array(n);r<n;r++)e[r]=t[r];return e}Number.isInteger||(Number.isInteger=function(t){return"number"==typeof t&&isFinite(t)&&Math.floor(t)===t}),Number.EPSILON||(Number.EPSILON=2220446049250313e-31);var g=p(Math.pow(10,-6));function p(t){var n=arguments.length>1&&void 0!==arguments[1]?arguments[1]:6;if(Number.isInteger(t))return t;var r=Math.pow(10,n);return Math.round((+t+Number.EPSILON)*r)/r}function d(t,n){var r=arguments.length>2&&void 0!==arguments[2]?arguments[2]:g;return Math.abs(t-n)<r}var m=Math.PI/180;function b(t){return t}function w(t,n,r){var e=1-r;return 3*r*e*(t*e+n*r)+r*r*r}function x(){var t=arguments.length>0&&void 0!==arguments[0]?arguments[0]:0,n=arguments.length>1&&void 0!==arguments[1]?arguments[1]:0,r=arguments.length>2&&void 0!==arguments[2]?arguments[2]:1,e=arguments.length>3&&void 0!==arguments[3]?arguments[3]:1;return t<0||t>1||r<0||r>1?null:d(t,n)&&d(r,e)?b:function(i){if(i<=0)return t>0?i*n/t:0===n&&r>0?i*e/r:0;if(i>=1)return r<1?1+(i-1)*(e-1)/(r-1):1===r&&t<1?1+(i-1)*(n-1)/(t-1):1;for(var o,u=0,a=1;u<a;){var l=w(t,r,o=(u+a)/2);if(d(i,l))break;l<i?u=o:a=o}return w(n,e,o)}}function A(){return 1}function k(t){return 1===t?1:0}function _(){var t=arguments.length>0&&void 0!==arguments[0]?arguments[0]:1,n=arguments.length>1&&void 0!==arguments[1]?arguments[1]:0;if(1===t){if(0===n)return k;if(1===n)return A}var r=1/t;return function(t){return t>=1?1:(t+=n*r)-t%r}}var S=Math.sin,O=Math.cos,j=Math.acos,M=Math.asin,P=Math.tan,E=Math.atan2,I=Math.PI/180,R=180/Math.PI,F=Math.sqrt,N=function(){function t(){var n=arguments.length>0&&void 0!==arguments[0]?arguments[0]:1,r=arguments.length>1&&void 0!==arguments[1]?arguments[1]:0,i=arguments.length>2&&void 0!==arguments[2]?arguments[2]:0,o=arguments.length>3&&void 0!==arguments[3]?arguments[3]:1,u=arguments.length>4&&void 0!==arguments[4]?arguments[4]:0,a=arguments.length>5&&void 0!==arguments[5]?arguments[5]:0;e(this,t),this.m=[n,r,i,o,u,a],this.i=null,this.w=null,this.s=null}return o(t,[{key:"determinant",get:function(){var t=this.m;return t[0]*t[3]-t[1]*t[2]}},{key:"isIdentity",get:function(){if(null===this.i){var t=this.m;this.i=1===t[0]&&0===t[1]&&0===t[2]&&1===t[3]&&0===t[4]&&0===t[5]}return this.i}},{key:"point",value:function(t,n){var r=this.m;return{x:r[0]*t+r[2]*n+r[4],y:r[1]*t+r[3]*n+r[5]}}},{key:"translateSelf",value:function(){var t=arguments.length>0&&void 0!==arguments[0]?arguments[0]:0,n=arguments.length>1&&void 0!==arguments[1]?arguments[1]:0;if(!t&&!n)return this;var r=this.m;return r[4]+=r[0]*t+r[2]*n,r[5]+=r[1]*t+r[3]*n,this.w=this.s=this.i=null,this}},{key:"rotateSelf",value:function(){var t=arguments.length>0&&void 0!==arguments[0]?arguments[0]:0;if(t%=360){var n=S(t*=I),r=O(t),e=this.m,i=e[0],o=e[1];e[0]=i*r+e[2]*n,e[1]=o*r+e[3]*n,e[2]=e[2]*r-i*n,e[3]=e[3]*r-o*n,this.w=this.s=this.i=null}return this}},{key:"scaleSelf",value:function(){var t=arguments.length>0&&void 0!==arguments[0]?arguments[0]:1,n=arguments.length>1&&void 0!==arguments[1]?arguments[1]:1;if(1!==t||1!==n){var r=this.m;r[0]*=t,r[1]*=t,r[2]*=n,r[3]*=n,this.w=this.s=this.i=null}return this}},{key:"skewSelf",value:function(t,n){if(n%=360,(t%=360)||n){var r=this.m,e=r[0],i=r[1],o=r[2],u=r[3];t&&(t=P(t*I),r[2]+=e*t,r[3]+=i*t),n&&(n=P(n*I),r[0]+=o*n,r[1]+=u*n),this.w=this.s=this.i=null}return this}},{key:"resetSelf",value:function(){var t=arguments.length>0&&void 0!==arguments[0]?arguments[0]:1,n=arguments.length>1&&void 0!==arguments[1]?arguments[1]:0,r=arguments.length>2&&void 0!==arguments[2]?arguments[2]:0,e=arguments.length>3&&void 0!==arguments[3]?arguments[3]:1,i=arguments.length>4&&void 0!==arguments[4]?arguments[4]:0,o=arguments.length>5&&void 0!==arguments[5]?arguments[5]:0,u=this.m;return u[0]=t,u[1]=n,u[2]=r,u[3]=e,u[4]=i,u[5]=o,this.w=this.s=this.i=null,this}},{key:"recomposeSelf",value:function(){var t=arguments.length>0&&void 0!==arguments[0]?arguments[0]:null,n=arguments.length>1&&void 0!==arguments[1]?arguments[1]:null,r=arguments.length>2&&void 0!==arguments[2]?arguments[2]:null,e=arguments.length>3&&void 0!==arguments[3]?arguments[3]:null,i=arguments.length>4&&void 0!==arguments[4]?arguments[4]:null;return this.isIdentity||this.resetSelf(),t&&(t.x||t.y)&&this.translateSelf(t.x,t.y),n&&this.rotateSelf(n),r&&(r.x&&this.skewSelf(r.x,0),r.y&&this.skewSelf(0,r.y)),!e||1===e.x&&1===e.y||this.scaleSelf(e.x,e.y),i&&(i.x||i.y)&&this.translateSelf(i.x,i.y),this}},{key:"decompose",value:function(){var t=arguments.length>0&&void 0!==arguments[0]?arguments[0]:0,n=arguments.length>1&&void 0!==arguments[1]?arguments[1]:0,r=this.m,e=r[0]*r[0]+r[1]*r[1],i=[[r[0],r[1]],[r[2],r[3]]],o=F(e);if(0===o)return{origin:{x:p(r[4]),y:p(r[5])},translate:{x:p(t),y:p(n)},scale:{x:0,y:0},skew:{x:0,y:0},rotate:0};i[0][0]/=o,i[0][1]/=o;var u=r[0]*r[3]-r[1]*r[2]<0;u&&(o=-o);var a=i[0][0]*i[1][0]+i[0][1]*i[1][1];i[1][0]-=i[0][0]*a,i[1][1]-=i[0][1]*a;var l=F(i[1][0]*i[1][0]+i[1][1]*i[1][1]);if(0===l)return{origin:{x:p(r[4]),y:p(r[5])},translate:{x:p(t),y:p(n)},scale:{x:p(o),y:0},skew:{x:0,y:0},rotate:0};i[1][0]/=l,i[1][1]/=l,a/=l;var f=0;return i[1][1]<0?(f=j(i[1][1])*R,i[0][1]<0&&(f=360-f)):f=M(i[0][1])*R,u&&(f=-f),a=E(a,F(i[0][0]*i[0][0]+i[0][1]*i[0][1]))*R,u&&(a=-a),{origin:{x:p(r[4]),y:p(r[5])},translate:{x:p(t),y:p(n)},scale:{x:p(o),y:p(l)},skew:{x:p(a),y:0},rotate:p(f)}}},{key:"clone",value:function(){var t=this.m;return new this.constructor(t[0],t[1],t[2],t[3],t[4],t[5])}},{key:"toString",value:function(){var t=arguments.length>0&&void 0!==arguments[0]?arguments[0]:" ";if(null===this.s){var n=this.m.map((function(t){return p(t)}));1===n[0]&&0===n[1]&&0===n[2]&&1===n[3]?this.s="translate("+n[4]+t+n[5]+")":this.s="matrix("+n.join(t)+")"}return this.s}}],[{key:"create",value:function(t){return t?Array.isArray(t)?s(this,v(t)):t instanceof this?t.clone():(new this).recomposeSelf(t.origin,t.rotate,t.skew,t.scale,t.translate):new this}}]),t}();function T(t,n,r){return t>=.5?r:n}function q(t,n,r){return 0===t||n===r?n:t*(r-n)+n}function B(t,n,r){var e=q(t,n,r);return e<=0?0:e}function L(t,n,r){var e=q(t,n,r);return e<=0?0:e>=1?1:e}function C(t,n,r){return 0===t?n:1===t?r:{x:q(t,n.x,r.x),y:q(t,n.y,r.y)}}function D(t,n,r){var e=function(t,n,r){return Math.round(q(t,n,r))}(t,n,r);return e<=0?0:e>=255?255:e}function z(t,n,r){return 0===t?n:1===t?r:{r:D(t,n.r,r.r),g:D(t,n.g,r.g),b:D(t,n.b,r.b),a:q(t,null==n.a?1:n.a,null==r.a?1:r.a)}}function V(t,n){for(var r=[],e=0;e<t;e++)r.push(n);return r}function G(t,n){if(--n<=0)return t;var r=(t=Object.assign([],t)).length;do{for(var e=0;e<r;e++)t.push(t[e])}while(--n>0);return t}var Y,$=function(){function t(n){e(this,t),this.list=n,this.length=n.length}return o(t,[{key:"setAttribute",value:function(t,n){for(var r=this.list,e=0;e<this.length;e++)r[e].setAttribute(t,n)}},{key:"removeAttribute",value:function(t){for(var n=this.list,r=0;r<this.length;r++)n[r].removeAttribute(t)}},{key:"style",value:function(t,n){for(var r=this.list,e=0;e<this.length;e++)r[e].style[t]=n}}]),t}(),U=/-./g,Q=function(t,n){return n.toUpperCase()};function H(t){return"function"==typeof t?t:T}function J(t){return t?"function"==typeof t?t:Array.isArray(t)?function(t){var n=arguments.length>1&&void 0!==arguments[1]?arguments[1]:b;if(!Array.isArray(t))return n;switch(t.length){case 1:return _(t[0])||n;case 2:return _(t[0],t[1])||n;case 4:return x(t[0],t[1],t[2],t[3])||n}return n}(t,null):function(t,n){var r=arguments.length>2&&void 0!==arguments[2]?arguments[2]:b;switch(t){case"linear":return b;case"steps":return _(n.steps||1,n.jump||0)||r;case"bezier":case"cubic-bezier":return x(n.x1||0,n.y1||0,n.x2||0,n.y2||0)||r}return r}(t.type,t.value,null):null}function Z(t,n,r){var e=arguments.length>3&&void 0!==arguments[3]&&arguments[3],i=n.length-1;if(t<=n[0].t)return e?[0,0,n[0].v]:n[0].v;if(t>=n[i].t)return e?[i,1,n[i].v]:n[i].v;var o,u=n[0],a=null;for(o=1;o<=i;o++){if(!(t>n[o].t)){a=n[o];break}u=n[o]}return null==a?e?[i,1,n[i].v]:n[i].v:u.t===a.t?e?[o,1,a.v]:a.v:(t=(t-u.t)/(a.t-u.t),u.e&&(t=u.e(t)),e?[o,t,r(t,u.v,a.v)]:r(t,u.v,a.v))}function K(t,n){var r=arguments.length>2&&void 0!==arguments[2]?arguments[2]:null;return t&&t.length?"function"!=typeof n?null:("function"!=typeof r&&(r=null),function(e){var i=Z(e,t,n);return null!=i&&r&&(i=r(i)),i}):null}function W(t,n){return t.t-n.t}function X(t,n,e,i,o){var u,a="@"===e[0],l="#"===e[0],f=Y[e],s=T;switch(a?(u=e.substr(1),e=u.replace(U,Q)):l&&(e=e.substr(1)),r(f)){case"function":if(s=f(i,o,Z,J,e,a,n,t),l)return s;break;case"string":s=K(i,H(f));break;case"object":if((s=K(i,H(f.i),f.f))&&"function"==typeof f.u)return f.u(n,s,e,a,t)}return s?function(t,n,r){if(arguments.length>3&&void 0!==arguments[3]&&arguments[3])return t instanceof $?function(e){return t.style(n,r(e))}:function(e){return t.style[n]=r(e)};if(Array.isArray(n)){var e=n.length;return function(i){var o=r(i);if(null==o)for(var u=0;u<e;u++)t[u].removeAttribute(n);else for(var a=0;a<e;a++)t[a].setAttribute(n,o)}}return function(e){var i=r(e);null==i?t.removeAttribute(n):t.setAttribute(n,i)}}(n,e,s,a):null}function tt(t,n,e,i){if(!i||"object"!==r(i))return null;var o=null,u=null;return Array.isArray(i)?u=function(t){if(!t||!t.length)return null;for(var n=0;n<t.length;n++)t[n].e&&(t[n].e=J(t[n].e));return t.sort(W)}(i):(u=i.keys,o=i.data||null),u?X(t,n,e,u,o):null}function nt(t,n,r){if(!r)return null;var e=[];for(var i in r)if(r.hasOwnProperty(i)){var o=tt(t,n,i,r[i]);o&&e.push(o)}return e.length?e:null}function rt(t,n){if(!n.duration||n.duration<0)return null;var r=function(t,n){if(!n)return null;var r=[];if(Array.isArray(n))for(var e=n.length,i=0;i<e;i++){var o=n[i];if(2===o.length){var u=null;if("string"==typeof o[0])u=t.getElementById(o[0]);else if(Array.isArray(o[0])){u=[];for(var a=0;a<o[0].length;a++)if("string"==typeof o[0][a]){var l=t.getElementById(o[0][a]);l&&u.push(l)}u=u.length?1===u.length?u[0]:new $(u):null}if(u){var f=nt(t,u,o[1]);f&&(r=r.concat(f))}}}else for(var s in n)if(n.hasOwnProperty(s)){var c=t.getElementById(s);if(c){var h=nt(t,c,n[s]);h&&(r=r.concat(h))}}return r.length?r:null}(t,n.elements);return r?function(t,n){var r=arguments.length>2&&void 0!==arguments[2]?arguments[2]:1/0,e=arguments.length>3&&void 0!==arguments[3]?arguments[3]:1,i=arguments.length>4&&void 0!==arguments[4]&&arguments[4],o=arguments.length>5&&void 0!==arguments[5]?arguments[5]:1,u=t.length,a=e>0?n:0;i&&r%2==0&&(a=n-a);var l=null;return function(f,s){var c=f%n,h=1+(f-c)/n;s*=e,i&&h%2==0&&(s=-s);var v=!1;if(h>r)c=a,v=!0,-1===o&&(c=e>0?0:n);else if(s<0&&(c=n-c),c===l)return!1;l=c;for(var y=0;y<u;y++)t[y](c);return v}}(r,n.duration,n.iterations||1/0,n.direction||1,!!n.alternate,n.fill||1):null}function et(t){return+("0x"+(t.replace(/[^0-9a-fA-F]+/g,"")||27))}function it(t,n,r){return!t||!r||n>t.length?t:t.substring(0,n)+it(t.substring(n+1),r,r)}function ot(t){var n=arguments.length>1&&void 0!==arguments[1]?arguments[1]:27;return!t||t%n?t%n:ot(t/n,n)}function ut(t,n,r){if(t&&t.length){var e=et(r),i=et(n),o=ot(e)+5,u=it(t,ot(e,5),o);return u=u.replace(/\x7c$/g,"==").replace(/\x2f$/g,"="),u=function(t,n,r){var e=+("0x"+t.substring(0,4));t=t.substring(4);for(var i=n%e+r%27,o=[],u=0;u<t.length;u+=2)if("|"!==t[u]){var a=+("0x"+t[u]+t[u+1])-i;o.push(a)}else{var l=+("0x"+t.substring(u+1,u+1+4))-i;u+=3,o.push(l)}return String.fromCharCode.apply(String,o)}(u=(u=atob(u)).replace(/[\x41-\x5A]/g,""),i,e),u=JSON.parse(u)}}var at=function(){function t(n,r){var i=arguments.length>2&&void 0!==arguments[2]?arguments[2]:{};e(this,t),this._id=0,this._running=!1,this._rollingBack=!1,this._animations=n,this.duration=r.duration,this.alternate=r.alternate,this.fill=r.fill,this.iterations=r.iterations,this.direction=i.direction||1,this.speed=i.speed||1,this.fps=i.fps||100,this.offset=i.offset||0,this.rollbackStartOffset=0}return o(t,[{key:"maxFiniteDuration",get:function(){return this.iterations>0?this.iterations*this.duration:this.duration}},{key:"_apply",value:function(t){for(var n=arguments.length>1&&void 0!==arguments[1]?arguments[1]:{},r=this._animations,e=r.length,i=0,o=0;o<e;o++)n[o]?i++:(n[o]=r[o](t,this.direction),n[o]&&i++);return i}},{key:"_rollback",value:function(){var t=this,n=1/0,r=null;this.rollbackStartOffset=this.offset,this._rollingBack=!0,this._running=!0;this._id=window.requestAnimationFrame((function e(i){if(t._rollingBack){null==r&&(r=i);var o=i-r,u=t.rollbackStartOffset-o,a=Math.round(u*t.speed);if(a>t.duration&&n!==1/0){var l=!!t.alternate&&a/t.duration%2>1,f=a%t.duration;a=(f+=l?t.duration:0)||t.duration}var s=t.fps?1e3/t.fps:0,c=Math.max(0,a);c<n-s&&(t.offset=c,n=c,t._apply(c));var h=t.iterations>0&&-1===t.fill&&a>=t.maxFiniteDuration;(a<=0||t.offset<a||h)&&t.stop(),t._id=window.requestAnimationFrame(e)}}))}},{key:"_start",value:function(){var t=this,n=arguments.length>0&&void 0!==arguments[0]?arguments[0]:0,r=-1/0,e=null,i={};this._running=!0;var o=function o(u){null==e&&(e=u);var a=Math.round((u-e+n)*t.speed),l=t.fps?1e3/t.fps:0;if(a>r+l&&!t._rollingBack&&(t.offset=a,r=a,t._apply(a,i)===t._animations.length))return void t.pause(!0);t._id=window.requestAnimationFrame(o)};this._id=window.requestAnimationFrame(o)}},{key:"_pause",value:function(){this._id&&window.cancelAnimationFrame(this._id),this._running=!1}},{key:"play",value:function(){if(!this._running)return this._rollingBack?this._rollback():this._start(this.offset)}},{key:"stop",value:function(){this._pause(),this.offset=0,this.rollbackStartOffset=0,this._rollingBack=!1,this._apply(0)}},{key:"reachedToEnd",value:function(){return this.iterations>0&&this.offset>=this.iterations*this.duration}},{key:"restart",value:function(){var t=arguments.length>0&&void 0!==arguments[0]&&arguments[0];this.stop(t),this.play(t)}},{key:"pause",value:function(){this._pause()}},{key:"reverse",value:function(){this.direction=-this.direction}}],[{key:"build",value:function(t,r){return delete t.animationSettings,t.options=ut(t.options,t.root,"5c7f360c"),t.animations.map((function(r){var e=ut(r.s,t.root,"5c7f360c");for(var i in delete r.s,t.animationSettings||(t.animationSettings=n({},e)),e)e.hasOwnProperty(i)&&(r[i]=e[i])})),(t=function(t,n){if(Y=n,!t||!t.root||!Array.isArray(t.animations))return null;for(var r=document.getElementsByTagName("svg"),e=!1,i=0;i<r.length;i++)if(r[i].id===t.root&&!r[i].svgatorAnimation){(e=r[i]).svgatorAnimation=!0;break}if(!e)return null;var o=t.animations.map((function(t){return rt(e,t)})).filter((function(t){return!!t}));return o.length?{element:e,animations:o,animationSettings:t.animationSettings,options:t.options||void 0}:null}(t,r))?{el:t.element,options:t.options||{},player:new this(t.animations,t.animationSettings,t.options)}:null}},{key:"push",value:function(t){return this.build(t)}},{key:"init",value:function(){var t=this,n=window.__SVGATOR_PLAYER__&&window.__SVGATOR_PLAYER__["5c7f360c"];Array.isArray(n)&&n.splice(0).forEach((function(n){return t.build(n)}))}}]),t}();function lt(t){return p(t)+""}function ft(t){var n=arguments.length>1&&void 0!==arguments[1]?arguments[1]:" ";return t&&t.length?t.map(lt).join(n):""}function st(t){if(!t)return"transparent";if(null==t.a||t.a>=1){var n=function(t){return 1===(t=parseInt(t).toString(16)).length?"0"+t:t},r=function(t){return t.charAt(0)===t.charAt(1)},e=n(t.r),i=n(t.g),o=n(t.b);return r(e)&&r(i)&&r(o)&&(e=e.charAt(0),i=i.charAt(0),o=o.charAt(0)),"#"+e+i+o}return"rgba("+t.r+","+t.g+","+t.b+","+t.a+")"}function ct(t){return t?"url(#"+t+")":"none"}!function(){for(var t=0,n=["ms","moz","webkit","o"],r=0;r<n.length&&!window.requestAnimationFrame;++r)window.requestAnimationFrame=window[n[r]+"RequestAnimationFrame"],window.cancelAnimationFrame=window[n[r]+"CancelAnimationFrame"]||window[n[r]+"CancelRequestAnimationFrame"];window.requestAnimationFrame||(window.requestAnimationFrame=function(n){var r=Date.now(),e=Math.max(0,16-(r-t)),i=window.setTimeout((function(){n(r+e)}),e);return t=r+e,i},window.cancelAnimationFrame=window.clearTimeout)}();var ht={f:null,i:function(t,n,r){return 0===t?n:1===t?r:{x:B(t,n.x,r.x),y:B(t,n.y,r.y)}},u:function(t,n){return function(r){var e=n(r);t.setAttribute("rx",lt(e.x)),t.setAttribute("ry",lt(e.y))}}},vt={f:null,i:function(t,n,r){return 0===t?n:1===t?r:{width:B(t,n.width,r.width),height:B(t,n.height,r.height)}},u:function(t,n){return function(r){var e=n(r);t.setAttribute("width",lt(e.width)),t.setAttribute("height",lt(e.height))}}};Object.freeze({M:2,L:2,Z:0,H:1,V:1,C:6,Q:4,T:2,S:4,A:7});var yt={},gt=null;function pt(t){var n=function(){if(gt)return gt;if("object"!==("undefined"==typeof document?"undefined":r(document))||!document.createElementNS)return{};var t=document.createElementNS("http://www.w3.org/2000/svg","svg");return t&&t.style?(t.style.position="absolute",t.style.opacity="0.01",t.style.zIndex="-9999",t.style.left="-9999px",t.style.width="1px",t.style.height="1px",gt={svg:t}):{}}().svg;if(!n)return function(t){return null};var e=document.createElementNS(n.namespaceURI,"path");e.setAttributeNS(null,"d",t),e.setAttributeNS(null,"fill","none"),e.setAttributeNS(null,"stroke","none"),n.appendChild(e);var i=e.getTotalLength();return function(t){var n=e.getPointAtLength(i*t);return{x:n.x,y:n.y}}}function dt(t){return yt[t]?yt[t]:yt[t]=pt(t)}function mt(t,n,r,e){if(!t||!e)return!1;var i=["M",t.x,t.y];if(n&&r&&(i.push("C"),i.push(n.x),i.push(n.y),i.push(r.x),i.push(r.y)),n?!r:r){var o=n||r;i.push("Q"),i.push(o.x),i.push(o.y)}return n||r||i.push("L"),i.push(e.x),i.push(e.y),i.join(" ")}function bt(t,n,r,e){var i=arguments.length>4&&void 0!==arguments[4]?arguments[4]:1,o=mt(t,n,r,e),u=dt(o);try{return u(i)}catch(t){return null}}function wt(t,n,r){return t+(n-t)*r}function xt(t,n,r){var e=arguments.length>3&&void 0!==arguments[3]&&arguments[3],i={x:wt(t.x,n.x,r),y:wt(t.y,n.y,r)};return e&&(i.a=At(t,n)),i}function At(t,n){return Math.atan2(n.y-t.y,n.x-t.x)}function kt(t,n,r,e){var i=1-e;return i*i*t+2*i*e*n+e*e*r}function _t(t,n,r,e){return 2*(1-e)*(n-t)+2*e*(r-n)}function St(t,n,r,e){var i=arguments.length>4&&void 0!==arguments[4]&&arguments[4],o=bt(t,n,null,r,e);return o||(o={x:kt(t.x,n.x,r.x,e),y:kt(t.y,n.y,r.y,e)}),i&&(o.a=Ot(t,n,r,e)),o}function Ot(t,n,r,e){return Math.atan2(_t(t.y,n.y,r.y,e),_t(t.x,n.x,r.x,e))}function jt(t,n,r,e,i){var o=i*i;return i*o*(e-t+3*(n-r))+3*o*(t+r-2*n)+3*i*(n-t)+t}function Mt(t,n,r,e,i){var o=1-i;return 3*(o*o*(n-t)+2*o*i*(r-n)+i*i*(e-r))}function Pt(t,n,r,e,i){var o=arguments.length>5&&void 0!==arguments[5]&&arguments[5],u=bt(t,n,r,e,i);return u||(u={x:jt(t.x,n.x,r.x,e.x,i),y:jt(t.y,n.y,r.y,e.y,i)}),o&&(u.a=Et(t,n,r,e,i)),u}function Et(t,n,r,e,i){return Math.atan2(Mt(t.y,n.y,r.y,e.y,i),Mt(t.x,n.x,r.x,e.x,i))}function It(t,n,r){var e=arguments.length>3&&void 0!==arguments[3]&&arguments[3];if(Ft(n)){if(Nt(r))return St(n,r.start,r,t,e)}else if(Ft(r)){if(n.end)return St(n,n.end,r,t,e)}else{if(n.end)return r.start?Pt(n,n.end,r.start,r,t,e):St(n,n.end,r,t,e);if(r.start)return St(n,r.start,r,t,e)}return xt(n,r,t,e)}function Rt(t,n,r){var e=It(t,n,r,!0);return e.a=function(t){return arguments.length>1&&void 0!==arguments[1]&&arguments[1]?t+Math.PI:t}(e.a)/m,e}function Ft(t){return!t.type||"corner"===t.type}function Nt(t){return null!=t.start&&!Ft(t)}var Tt=new N;var qt={f:lt,i:q},Bt={f:lt,i:L};function Lt(t,n,r){return t.map((function(t){return function(t,n,r){var e=t.v;if(!e||"g"!==e.t||e.s||!e.v||!e.r)return t;var i=r.getElementById(e.r),o=i&&i.querySelectorAll("stop")||[];return e.s=e.v.map((function(t,n){var r=o[n]&&o[n].getAttribute("offset");return{c:t,o:r=p(parseInt(r)/100)}})),delete e.v,t}(t,0,r)}))}var Ct={gt:"gradientTransform",c:{x:"cx",y:"cy"},rd:"r",f:{x:"x1",y:"y1"},to:{x:"x2",y:"y2"}};function Dt(t,n,e,i,o,u,a,l){return Lt(t,0,l),n=function(t,n,r){for(var e,i,o,u=t.length-1,a={},l=0;l<=u;l++)(e=t[l]).e&&(e.e=n(e.e)),e.v&&"g"===(i=e.v).t&&i.r&&(o=r.getElementById(i.r))&&(a[i.r]={e:o,s:o.querySelectorAll("stop")});return a}(t,i,l),function(i){var o=e(i,t,zt);if(!o)return"none";if("c"===o.t)return st(o.v);if("g"===o.t){if(!n[o.r])return ct(o.r);var u=n[o.r];return function(t,n){for(var r=t.s,e=r.length;e<n.length;e++){var i=r[r.length-1].cloneNode();i.id=Yt(i.id),t.e.appendChild(i),r=t.s=t.e.querySelectorAll("stop")}for(var o=0,u=r.length,a=n.length-1;o<u;o++)r[o].setAttribute("stop-color",st(n[Math.min(o,a)].c)),r[o].setAttribute("offset",n[Math.min(o,a)].o)}(u,o.s),Object.keys(Ct).forEach((function(t){if(void 0!==o[t])if("object"!==r(Ct[t])){var n,e="gt"===t?(n=o[t],Array.isArray(n)?"matrix("+n.join(" ")+")":""):o[t],i=Ct[t];u.e.setAttribute(i,e)}else Object.keys(Ct[t]).forEach((function(n){if(void 0!==o[t][n]){var r=o[t][n],e=Ct[t][n];u.e.setAttribute(e,r)}}))})),ct(o.r)}return"none"}}function zt(t,r,e){if(0===t)return r;if(1===t)return e;if(r&&e){var i=r.t;if(i===e.t)switch(r.t){case"c":return{t:i,v:z(t,r.v,e.v)};case"g":if(r.r===e.r){var o={t:i,s:Vt(t,r.s,e.s),r:r.r};return r.gt&&e.gt&&(o.gt=function(t,n,r){var e=n.length;if(e!==r.length)return T(t,n,r);for(var i=new Array(e),o=0;o<e;o++)i[o]=q(t,n[o],r[o]);return i}(t,r.gt,e.gt)),r.c?(o.c=C(t,r.c,e.c),o.rd=B(t,r.rd,e.rd)):r.f&&(o.f=C(t,r.f,e.f),o.to=C(t,r.to,e.to)),o}}if("c"===r.t&&"g"===e.t||"c"===e.t&&"g"===r.t){var u="c"===r.t?r:e,a="g"===r.t?n({},r):n({},e),l=a.s.map((function(t){return{c:u.v,o:t.o}}));return a.s="c"===r.t?Vt(t,l,a.s):Vt(t,a.s,l),a}}return T(t,r,e)}function Vt(t,n,r){if(n.length===r.length)return n.map((function(n,e){return Gt(t,n,r[e])}));for(var e=Math.max(n.length,r.length),i=[],o=0;o<e;o++){var u=Gt(t,n[Math.min(o,n.length-1)],r[Math.min(o,r.length-1)]);i.push(u)}return i}function Gt(t,n,r){return{o:L(t,n.o,r.o||0),c:z(t,n.c,r.c||{})}}function Yt(t){return t.replace(/-fill-([0-9]+)$/,(function(t,n){return"-fill-"+(+n+1)}))}var $t={fill:Dt,"fill-opacity":Bt,stroke:Dt,"stroke-opacity":Bt,"stroke-width":qt,"stroke-dashoffset":{f:lt,i:q},"stroke-dasharray":{f:function(t){var n=arguments.length>1&&void 0!==arguments[1]?arguments[1]:" ";return t&&t.length>0&&(t=t.map((function(t){return p(t,4)}))),ft(t,n)},i:function(t,n,r){var e,i,o,u=n.length,a=r.length;if(u!==a)if(0===u)n=V(u=a,0);else if(0===a)a=u,r=V(u,0);else{var l=(o=(e=u)*(i=a)/function(t,n){for(var r;n;)r=n,n=t%n,t=r;return t||1}(e,i))<0?-o:o;n=G(n,Math.floor(l/u)),r=G(r,Math.floor(l/a)),u=a=l}for(var f=[],s=0;s<u;s++)f.push(p(B(t,n[s],r[s])));return f}},opacity:Bt,transform:function(t,n,e,i){if(!(t=function(t,n){if(!t||"object"!==r(t))return null;var e=!1;for(var i in t)t.hasOwnProperty(i)&&(t[i]&&t[i].length?(t[i].forEach((function(t){t.e&&(t.e=n(t.e))})),e=!0):delete t[i]);return e?t:null}(t,i)))return null;var o=function(r,i,o){var u=arguments.length>3&&void 0!==arguments[3]?arguments[3]:null;return t[r]?e(i,t[r],o):n&&n[r]?n[r]:u};return n&&n.a&&t.o?function(n){var r=e(n,t.o,Rt);return Tt.recomposeSelf(r,o("r",n,q,0)+r.a,o("k",n,C),o("s",n,C),o("t",n,C)).toString()}:function(t){return Tt.recomposeSelf(o("o",t,It,null),o("r",t,q,0),o("k",t,C),o("s",t,C),o("t",t,C)).toString()}},r:qt,"#size":vt,"#radius":ht,_:function(t,n){if(Array.isArray(t))for(var r=0;r<t.length;r++)this[t[r]]=n;else this[t]=n}},Ut=function(t){!function(t,n){if("function"!=typeof n&&null!==n)throw new TypeError("Super expression must either be null or a function");t.prototype=Object.create(n&&n.prototype,{constructor:{value:t,writable:!0,configurable:!0}}),n&&l(t,n)}(u,t);var n,r,i=(n=u,r=f(),function(){var t,e=a(n);if(r){var i=a(this).constructor;t=Reflect.construct(e,arguments,i)}else t=e.apply(this,arguments);return c(this,t)});function u(){return e(this,u),i.apply(this,arguments)}return o(u,null,[{key:"build",value:function(t){var n=h(a(u),"build",this).call(this,t,$t);if(!n)return null;n.el,n.options,function(t,n,r){t.play()}(n.player)}}]),u}(at);return Ut.init(),Ut}));
(function(s,i,o,w,a,b){w[o]=w[o]||{};w[o][s]=w[o][s]||[];w[o][s].push(i);})('5c7f360c',{"root":"eS2bARFBXC81","animations":[{"elements":{"eS2bARFBXC82":{"transform":{"data":{"o":{"x":599.196982,"y":590.103232,"type":"corner"},"t":{"x":-599.196981,"y":-590.103231}},"keys":{"r":[{"t":0,"v":-359.997459},{"t":10000,"v":-719.49033}]}}}},"s":"MVDA1NDljNDM4NTk2OTNM4Mk85NThhOTBHOGYU0MzViNTI1MTUxNTE1PMTRkNDM4NThhOTM4NPjg0OTVMOGE5MDhmNDWM1YjUyNGQ0MzhhOTUY4NjkzODI5NThhOTBPCOGY5NDQzNWI1MTRkNRDM4NzhhUjhkTzhkNDCM1YjUyNGQ0MzgyOGQK5NVY4NjkzOGY4Mjk1QODY0MzViODc4MjhkONTQ4NjRkRTQzOTQ5MTDg2ODY4NTQzNWI1MjlLl"}],"options":"MNDAxMDg4MmY4MDgxNmJU3ZjgxMmY0NzJmNzkF3YzZlNzEyZjhh"},'__SVGATOR_PLAYER__',window)]]></script></svg>