<svg width="1198" height="1188" viewBox="0 0 1198 1188" fill="none" xmlns="http://www.w3.org/2000/svg">
<circle cx="145.174" cy="414.798" r="97.8236" transform="rotate(-69.0135 145.174 414.798)" fill="#03A1C3"/>
<circle cx="402.424" cy="146.179" r="97.8236" transform="rotate(-69.0135 402.424 146.179)" fill="#03A1C3"/>
<circle cx="774.421" cy="137.013" r="97.8236" transform="rotate(-69.0135 774.421 137.013)" fill="#03A1C3"/>
<circle cx="1044.21" cy="391.193" r="97.8236" transform="rotate(-69.0135 1044.21 391.193)" fill="#03A1C3"/>
<circle cx="1053.22" cy="766.656" r="97.8236" transform="rotate(-69.0135 1053.22 766.656)" fill="#03A1C3"/>
<circle cx="152.913" cy="787.422" r="97.8236" transform="rotate(-69.0135 152.913 787.422)" fill="#03A1C3"/>
<path d="M356.076 43.0257C299.227 68.3541 273.67 134.98 298.996 191.83C324.322 248.68 390.944 274.236 447.793 248.907C504.642 223.579 530.199 156.953 504.873 100.103C479.548 43.2531 412.925 17.6972 356.076 43.0257ZM396.551 179.153C393.709 182.538 390.086 185.223 385.629 187.187C381.188 189.187 376.807 190.069 372.528 189.878C368.238 189.714 364.306 188.298 360.699 185.711C357.103 183.097 354.18 179.29 351.941 174.264L336.958 140.581L350.696 134.461L365.739 168.228C367.248 171.616 369.238 173.831 371.7 174.898C374.161 175.966 377.005 175.791 380.234 174.375C383.436 172.949 385.505 170.934 386.405 168.346C387.305 165.759 387 162.771 385.518 159.394L370.475 125.626L384.213 119.506L399.195 153.188C401.434 158.214 402.262 162.977 401.672 167.412C401.099 171.884 399.383 175.794 396.551 179.153ZM438.438 129.502L469.545 149.152L453.537 156.284L434.337 144.135L431.906 165.921L416.307 172.871L421.603 136.133L390.771 116.65L406.78 109.518L425.704 121.5L428.075 100.03L443.674 93.0801L438.438 129.502Z" fill="#F7F7F7"/>
<path d="M152.743 352.607L149.75 360.41L162.558 365.323L165.551 357.52C166.439 355.206 166.534 353.267 165.848 351.676C165.162 350.086 163.791 348.911 161.719 348.117C159.755 347.363 158.005 347.34 156.431 348.064C154.867 348.76 153.631 350.293 152.743 352.607Z" fill="#F7F7F7"/>
<path d="M40.3351 375.05C18.1945 432.769 47.026 497.539 104.769 519.689C162.485 541.828 227.253 512.993 249.404 455.248C271.545 397.529 242.713 332.759 184.97 310.609C127.227 288.46 62.486 317.305 40.3351 375.05ZM141.75 442.351C146.379 444.126 149.898 446.619 152.32 449.801C154.768 452.993 156.151 456.549 156.496 460.478C156.841 464.407 156.224 468.43 154.665 472.493C153.096 476.583 150.896 479.906 148.069 482.526C145.243 485.147 141.851 486.747 137.937 487.375C133.996 487.993 129.733 487.439 125.105 485.663L94.2696 473.835L99.1003 461.242L130.044 473.111C133.138 474.298 135.822 474.464 138.078 473.57C140.335 472.676 142.026 470.762 143.151 467.829C144.276 464.896 144.309 462.316 143.25 460.089C142.18 457.888 140.095 456.162 137.001 454.975L106.057 443.106L110.888 430.512L141.75 442.351V442.351ZM178.148 409.826L158.254 414.295L170.541 429.657L165.06 443.946L145.13 417.286L113.2 424.485L118.825 409.82L138.416 405.419L126.319 390.284L131.8 375.996L151.567 402.438L183.764 395.188L178.148 409.826V409.826ZM196.315 362.467L172.652 365.737L171.496 368.751L191.03 376.244L186.2 388.837L134.484 368.999L142.597 347.849C144.156 343.786 146.197 340.556 148.717 338.251C151.248 335.919 154.038 334.52 157.06 334.043C160.083 333.567 163.123 333.93 166.163 335.096C169.607 336.418 172.303 338.563 174.251 341.532C176.198 344.502 177.041 348.097 176.716 352.325L201.775 348.232L196.315 362.467Z" fill="#F7F7F7"/>
<path d="M107.576 684.401C50.7647 709.713 25.2385 776.257 50.558 833.043C75.8671 889.856 142.409 915.381 199.194 890.059C256.005 864.747 281.531 798.202 256.212 741.416C230.892 684.63 164.378 659.116 107.576 684.401ZM112.856 794.556C111.811 792.211 111.656 789.96 112.401 787.776C113.136 785.619 114.564 784.068 116.723 783.106C118.808 782.177 120.916 782.153 123.011 783.049C125.106 783.945 126.676 785.566 127.747 787.921C128.825 790.341 128.97 792.619 128.235 794.776C127.501 796.933 126.072 798.484 123.988 799.413C121.865 800.358 119.72 800.4 117.625 799.504C115.493 798.624 113.907 796.966 112.856 794.556ZM187.735 795.931C191.235 798.878 194.029 802.697 196.119 807.388C198.607 812.973 199.584 818.472 199.105 823.906C198.615 829.367 196.736 834.264 193.485 838.635C190.235 843.006 185.83 846.441 180.256 848.902C174.672 851.39 169.173 852.367 163.739 851.888C158.279 851.399 153.381 849.52 149.011 846.269C144.64 843.018 141.206 838.614 138.745 833.04C135.743 826.301 134.843 819.875 136.036 813.789C137.229 807.702 140.411 802.626 145.491 798.555L152.258 813.745C150.834 815.607 150.066 817.689 149.907 820.036C149.747 822.382 150.258 824.832 151.403 827.4C153.376 831.831 156.42 834.758 160.529 836.118C164.627 837.505 169.133 837.103 174.01 834.93C179.185 832.625 182.639 829.412 184.283 825.289C185.953 821.176 185.68 816.657 183.491 811.743C181.982 808.355 179.865 805.907 177.108 804.325C174.35 802.742 171.147 802.161 167.464 802.508L175.242 819.969L165.116 824.481L151.815 794.622L164.584 788.933C168.457 788.412 172.412 788.725 176.458 789.845C180.477 790.955 184.263 792.993 187.735 795.931ZM180.219 772.798L135.422 792.779L129.302 779.041L174.088 759.087L180.219 772.798ZM161.66 731.138C163.882 736.126 164.379 740.546 163.203 744.416C162 748.276 158.657 751.439 153.147 753.894L135.314 761.839L137.752 767.312L126.36 772.387L123.922 766.915L113.014 771.775L106.894 758.037L117.802 753.177L113.788 744.167L125.18 739.091L129.194 748.101L147.176 740.09C148.516 739.492 149.324 738.753 149.638 737.855C149.952 736.956 149.769 735.744 149.078 734.245L146.889 729.33L158.542 724.138L161.66 731.138Z" fill="#F7F7F7"/>
<path d="M1039.11 800.803C1044.41 802.836 1049.09 802.936 1053.19 801.111C1057.28 799.286 1060.34 795.737 1062.38 790.436L1064.93 783.79L1031.45 770.95L1028.9 777.596C1026.87 782.897 1026.74 787.572 1028.49 791.636C1030.26 795.711 1033.81 798.77 1039.11 800.803Z" fill="#F7F7F7"/>
<path d="M946.745 726.323C924.501 784.311 953.476 849.352 1011.46 871.595C1069.45 893.837 1134.49 864.86 1156.73 806.872C1178.97 748.884 1150 683.843 1092.01 661.6C1034.02 639.385 968.978 668.362 946.745 726.323ZM1082.24 774.379L1073.97 795.933C1071.65 801.987 1068.41 806.824 1064.27 810.452C1060.13 814.081 1055.4 816.279 1050.12 817.093C1044.83 817.907 1039.32 817.241 1033.64 815.063C1028.02 812.906 1023.49 809.749 1020.09 805.574C1016.68 801.426 1014.64 796.601 1013.97 791.098C1013.33 785.605 1014.14 779.866 1016.45 773.865L1024.71 752.312L1082.24 774.379ZM1058.08 735.726C1059.91 734.512 1061.5 732.065 1062.9 728.405L1063.9 725.795L1075.28 730.161L1074.28 732.771C1073.21 735.57 1072.84 737.989 1073.12 740.072C1073.42 742.166 1074.79 743.677 1077.24 744.616C1079.2 745.37 1080.94 745.42 1082.47 744.74C1084 744.06 1085.1 742.786 1085.84 740.849C1086.64 738.777 1086.62 736.979 1085.74 735.498C1084.86 733.991 1083.52 732.827 1081.74 731.926L1086.99 718.23C1092.75 720.685 1096.53 724.329 1098.32 729.153C1100.12 733.977 1099.83 739.483 1097.46 745.645C1095.89 749.735 1093.84 752.992 1091.3 755.351C1088.75 757.737 1085.97 759.2 1082.94 759.768C1079.91 760.336 1076.85 760.026 1073.78 758.849C1070.18 757.466 1067.59 755.453 1066.03 752.756C1064.46 750.086 1063.7 747.389 1063.83 744.658L1063.5 744.534C1061.26 747.253 1058.6 749.041 1055.51 749.925C1052.42 750.809 1048.98 750.537 1045.21 749.092C1041.82 747.792 1039.13 745.866 1037.12 743.304C1035.14 740.752 1033.96 737.707 1033.62 734.153C1033.29 730.598 1033.92 726.795 1035.49 722.705C1038 716.139 1041.62 711.538 1046.35 708.875C1051.07 706.212 1056.74 706.008 1063.3 708.28L1058.08 721.896C1055.67 721.031 1053.5 720.971 1051.59 721.753C1049.69 722.534 1048.25 724.177 1047.29 726.679C1046.48 728.805 1046.46 730.711 1047.25 732.342C1048.04 734.001 1049.43 735.186 1051.45 735.96C1054.06 737.052 1056.26 736.94 1058.08 735.726Z" fill="#F7F7F7"/>
<path d="M1076.5 459.274C1078.18 458.527 1079.24 457.361 1079.72 455.786C1080.2 454.211 1080.06 452.581 1079.29 450.868C1078.56 449.23 1077.49 448.078 1076.03 447.393C1074.6 446.691 1072.93 446.607 1071.07 447.126L1076.5 459.274Z" fill="#F7F7F7"/>
<path d="M1029.73 378.331C1028.9 380.174 1028.93 382.036 1029.74 383.86C1030.57 385.722 1031.96 386.997 1033.9 387.676C1035.84 388.392 1038.09 388.173 1040.63 387.018C1043.16 385.89 1044.85 384.378 1045.63 382.515C1046.44 380.636 1046.42 378.773 1045.59 376.912C1044.74 375.013 1043.37 373.748 1041.46 373.106C1039.55 372.465 1037.33 372.694 1034.75 373.866C1032.22 374.993 1030.56 376.489 1029.73 378.331Z" fill="#F7F7F7"/>
<path d="M1046.09 414.641C1045.27 416.612 1045.29 418.565 1046.15 420.501C1047.02 422.437 1048.45 423.76 1050.43 424.486C1052.44 425.196 1054.64 425.021 1057.06 423.942C1059.48 422.864 1061.09 421.321 1061.89 419.378C1062.71 417.407 1062.66 415.443 1061.79 413.534C1060.93 411.598 1059.52 410.286 1057.52 409.549C1055.54 408.822 1053.34 408.998 1050.9 410.066C1048.51 411.128 1046.91 412.644 1046.09 414.641Z" fill="#F7F7F7"/>
<path d="M997.909 292.874C941.768 317.888 916.541 383.652 941.551 439.795C966.562 495.937 1032.32 521.163 1088.46 496.15C1144.61 471.136 1169.83 405.372 1144.82 349.229C1119.81 293.086 1054.02 267.851 997.909 292.874ZM1081.41 440.04C1083.81 441.89 1085.71 444.347 1087.12 447.511C1088.48 450.564 1089.05 453.591 1088.83 456.564C1088.62 459.538 1087.6 462.202 1085.81 464.604C1084.03 467.005 1081.53 468.92 1078.36 470.356C1077.46 470.755 1076.49 471.122 1075.43 471.458L1065.63 449.455C1063.73 450.483 1062.52 451.779 1061.96 453.388C1061.42 454.969 1061.51 456.579 1062.24 458.217C1063.32 460.637 1065.1 461.875 1067.56 461.893L1072.17 472.243C1069.85 472.651 1067.56 472.512 1065.27 471.881C1062.98 471.25 1060.9 470.08 1059.03 468.437C1057.17 466.767 1055.63 464.664 1054.5 462.068C1053.12 458.978 1052.55 455.887 1052.77 452.887C1053.03 449.87 1054.06 447.115 1055.92 444.68C1057.79 442.218 1060.37 440.244 1063.65 438.784C1066.92 437.324 1070.12 436.701 1073.18 436.946C1076.27 437.175 1079.01 438.228 1081.41 440.04ZM1063.89 400.661C1066.17 402.186 1067.88 404.26 1069.04 406.866C1069.97 408.951 1070.36 411.049 1070.26 413.17C1070.16 415.291 1069.59 417.172 1068.53 418.804L1083.24 412.252L1087.57 421.969L1045.5 440.712L1041.17 430.995L1045.71 428.972C1043.8 428.731 1041.99 427.976 1040.35 426.698C1038.68 425.411 1037.34 423.664 1036.35 421.43C1035.19 418.824 1034.8 416.142 1035.19 413.423C1035.59 410.704 1036.78 408.166 1038.69 405.843C1040.63 403.503 1043.21 401.62 1046.48 400.16C1049.76 398.7 1052.88 398.046 1055.89 398.179C1058.89 398.313 1061.6 399.136 1063.89 400.661ZM1048.27 365.655C1050.71 367.579 1052.62 370.073 1054 373.163C1055.38 376.253 1055.97 379.381 1055.75 382.446C1055.55 385.548 1054.5 388.356 1052.66 390.893C1050.83 393.429 1048.26 395.441 1045.02 396.884C1041.79 398.327 1038.58 398.886 1035.45 398.519C1032.32 398.151 1029.54 397.024 1027.07 395.089C1024.63 393.165 1022.7 390.634 1021.32 387.544C1019.94 384.454 1019.34 381.353 1019.56 378.288C1019.78 375.224 1020.8 372.405 1022.63 369.895C1024.45 367.386 1027.02 365.374 1030.32 363.925C1033.6 362.465 1036.77 361.922 1039.88 362.253C1043.07 362.641 1045.84 363.768 1048.27 365.655ZM1037.42 320.871C1040.49 323.161 1042.9 326.215 1044.63 330.087C1046.73 334.815 1047.28 339.437 1046.3 343.91C1045.29 348.399 1042.89 352.169 1039.09 355.22L1034.33 344.535C1035.63 342.997 1036.41 341.289 1036.62 339.455C1036.84 337.595 1036.53 335.748 1035.7 333.886C1034.37 330.908 1032.24 328.915 1029.34 328.019C1026.42 327.087 1023.22 327.4 1019.74 328.97C1016.25 330.529 1013.88 332.677 1012.62 335.467C1011.37 338.257 1011.4 341.142 1012.73 344.12C1013.56 345.982 1014.72 347.448 1016.25 348.528C1017.78 349.609 1019.55 350.162 1021.56 350.225L1026.32 360.91C1021.48 361.706 1017.08 360.945 1013.1 358.679C1009.13 356.412 1006.08 352.928 1003.96 348.163C1002.23 344.291 1001.54 340.447 1001.92 336.642C1002.28 332.826 1003.62 329.392 1005.95 326.303C1008.27 323.24 1011.39 320.825 1015.33 319.066C1019.28 317.308 1023.16 316.605 1027.01 316.941C1030.88 317.314 1034.34 318.608 1037.42 320.871Z" fill="#F7F7F7"/>
<path fill-rule="evenodd" clip-rule="evenodd" d="M730.138 33.7818C673.289 59.1103 647.732 125.736 673.057 182.586C698.383 239.436 765.005 264.992 821.854 239.663C878.703 214.335 904.26 147.709 878.935 90.8593C853.609 34.0092 786.987 8.45331 730.138 33.7818ZM796.643 174.101L818.298 117.648L804.555 112.376L782.9 168.829L796.643 174.101ZM748.403 129.57L761.355 95.8051L747.612 90.5332L734.683 124.237C732.756 129.263 732.137 133.943 732.822 138.23C733.527 142.525 735.289 146.213 738.128 149.302C740.975 152.37 744.616 154.779 749.067 156.486C753.518 158.194 757.898 158.862 762.185 158.483C766.471 158.103 770.35 156.579 773.842 153.918C777.333 151.257 780.029 147.42 781.965 142.374L794.893 108.67L781.15 103.398L768.198 137.163C766.907 140.527 765.067 142.81 762.644 143.975C760.22 145.14 757.412 145.098 754.192 143.863C750.971 142.627 748.877 140.788 747.916 138.325C746.934 135.854 747.105 132.955 748.403 129.57Z" fill="#F7F7F7"/>
<circle cx="796.112" cy="1036.71" r="97.8379" transform="rotate(-68.8532 796.112 1036.71)" fill="#03A1C3"/>
<circle cx="422.385" cy="1043.02" r="97.8379" transform="rotate(-68.8532 422.385 1043.02)" fill="#03A1C3"/>
<path d="M317.786 1003C295.522 1060.55 324.148 1125.25 381.676 1147.5C439.204 1169.75 503.913 1141.16 526.176 1083.6C548.44 1026.04 519.841 961.361 462.287 939.098C404.732 916.836 340.039 945.464 317.786 1003ZM359.096 1044.56L373.55 1007.2L358.872 1001.52L362.221 992.862L388.108 1002.88L370.306 1048.9L359.096 1044.56ZM417.215 1067.04L416.634 1030.2L391.543 1057.11L378.37 1052.02L396.163 1006.02L407.372 1010.36L396.703 1037.94L417.668 1014.34L426.701 1017.83L426.35 1049.5L437.05 1021.84L448.26 1026.17L430.468 1072.17L417.215 1067.04ZM484.74 1042.2C487.038 1044.73 488.502 1047.74 489.029 1051.25C489.593 1054.74 489.075 1058.56 487.484 1062.67L476.867 1090.12L465.657 1085.78L476.305 1058.25C477.366 1055.51 477.515 1053.13 476.716 1051.12C475.944 1049.12 474.246 1047.6 471.611 1046.58C468.977 1045.56 466.696 1045.54 464.727 1046.48C462.757 1047.42 461.236 1049.27 460.176 1052.01L449.527 1079.54L438.318 1075.21L448.945 1047.73C450.536 1043.62 452.765 1040.49 455.614 1038.32C458.464 1036.15 461.624 1034.93 465.143 1034.62C468.661 1034.31 472.211 1034.88 475.84 1036.29C479.459 1037.72 482.415 1039.66 484.74 1042.2Z" fill="#F6F6F6"/>
<path d="M740.206 1050.96C738.049 1050.06 735.941 1050.08 733.826 1050.99C731.738 1051.91 730.268 1053.48 729.49 1055.65C728.712 1057.82 728.889 1060.24 730.06 1062.89C731.23 1065.53 732.872 1067.28 735.028 1068.18C737.158 1069.06 739.304 1069.03 741.392 1068.1C743.48 1067.18 744.95 1065.62 745.744 1063.48C746.549 1061.32 746.362 1058.93 745.191 1056.28C743.994 1053.63 742.325 1051.87 740.206 1050.96Z" fill="#F6F6F6"/>
<path d="M748.663 932.895C691.847 958.018 666.151 1024.45 691.272 1081.26C716.393 1138.08 782.819 1163.78 839.635 1138.65C896.451 1113.53 922.146 1047.1 897.025 990.283C871.931 933.476 805.479 907.771 748.663 932.895ZM755.316 1070.37C753.648 1072.85 751.388 1074.69 748.545 1075.97C746.121 1077.05 743.755 1077.49 741.473 1077.32C739.191 1077.15 737.197 1076.47 735.519 1075.29L737.678 1080.18L727.091 1084.86L711.827 1050.34L722.415 1045.65L724.574 1050.54C724.909 1048.47 725.749 1046.54 727.157 1044.74C728.566 1042.93 730.477 1041.51 732.91 1040.41C735.707 1039.18 738.609 1038.78 741.563 1039.22C744.517 1039.65 747.267 1040.93 749.812 1043.06C752.341 1045.15 754.397 1047.98 755.952 1051.55C757.518 1055.09 758.232 1058.52 758.077 1061.8C757.915 1065.01 756.985 1067.9 755.316 1070.37ZM784.886 1059.28L788.612 1067.71L778.024 1072.39L774.299 1063.96L767.364 1067.03L763.474 1058.23L770.409 1055.16L764.277 1041.29C763.815 1040.25 763.251 1039.63 762.542 1039.39C761.86 1039.15 760.914 1039.28 759.758 1039.79L755.993 1041.46L752.02 1032.47L757.432 1030.15C761.272 1028.45 764.666 1028.06 767.642 1029C770.619 1029.93 773.051 1032.51 774.93 1036.76L781.023 1050.49L785.236 1048.63L789.126 1057.43L784.886 1059.28ZM822.459 1040.68C820.79 1043.16 818.531 1045 815.687 1046.28C813.264 1047.36 810.898 1047.8 808.616 1047.63C806.334 1047.46 804.34 1046.78 802.662 1045.6L804.821 1050.49L794.234 1055.17L778.97 1020.65L789.558 1015.96L791.717 1020.85C792.052 1018.78 792.892 1016.85 794.3 1015.05C795.709 1013.24 797.62 1011.82 800.053 1010.72C802.849 1009.49 805.751 1009.09 808.706 1009.53C811.66 1009.96 814.41 1011.24 816.955 1013.37C819.484 1015.46 821.54 1018.29 823.095 1021.86C824.661 1025.4 825.375 1028.83 825.219 1032.11C825.048 1035.35 824.128 1038.21 822.459 1040.68ZM877.517 1028.97L861.225 1036.18C856.64 1038.2 852.228 1039.06 848.018 1038.76C843.78 1038.45 840.012 1037.09 836.698 1034.63C833.383 1032.17 830.759 1028.81 828.864 1024.52C826.985 1020.27 826.252 1016.1 826.676 1011.96C827.1 1007.83 828.636 1004.1 831.258 1000.76C833.907 997.423 837.484 994.727 842.022 992.743L858.314 985.539L877.517 1028.97Z" fill="#F6F6F6"/>
<path d="M796.623 1025.99C795.845 1028.16 796.022 1030.58 797.192 1033.23C798.363 1035.87 800.005 1037.62 802.161 1038.52C804.291 1039.4 806.437 1039.37 808.525 1038.44C810.613 1037.52 812.083 1035.96 812.877 1033.82C813.682 1031.66 813.494 1029.27 812.324 1026.62C811.154 1023.98 809.485 1022.22 807.366 1021.31C805.209 1020.41 803.1 1020.43 800.986 1021.34C798.844 1022.25 797.411 1023.79 796.623 1025.99Z" fill="#F6F6F6"/>
<path d="M838.852 1009.01C837.598 1012.17 837.848 1015.76 839.601 1019.78C841.365 1023.77 843.868 1026.4 847.067 1027.64C850.266 1028.88 853.892 1028.61 857.881 1026.85L862.877 1024.64L851.717 999.398L846.722 1001.61C842.743 1003.34 840.116 1005.82 838.852 1009.01Z" fill="#F6F6F6"/>
<g clip-path="url(#clip0_506_101)">
<path d="M901.09 613.618C901.09 748.445 813.393 862.776 691.949 902.645C662.092 912.446 630.189 917.75 597.047 917.75C491.77 917.75 398.972 864.217 344.417 782.894C311.938 734.522 293.004 676.29 293.004 613.618C293.004 445.639 429.117 309.486 597.047 309.486C764.977 309.486 901.09 445.639 901.09 613.618Z" fill="#FEC94C"/>
<path d="M780.684 790.213L779.877 856.258C752.902 874.477 723.305 890.073 691.949 902.641C662.092 912.443 630.19 917.747 597.047 917.747C491.771 917.747 398.973 864.214 344.418 782.891C348.136 742.1 382.69 709.871 424.391 709.871L513.097 692.372C546.988 685.684 581.86 685.771 615.722 692.661L700.393 709.871C744.544 709.871 780.684 746.021 780.684 790.213Z" fill="#424242"/>
<path opacity="0.08" d="M699.644 709.873L614.973 692.663C591.485 687.877 567.508 686.465 543.703 688.223C544.798 688.425 545.865 688.627 546.96 688.829L651.746 710.132C706.417 710.132 751.144 754.873 751.144 809.559L748.349 875.805C758.839 869.809 769.127 863.467 779.099 856.75L779.934 790.187C779.963 746.023 743.824 709.873 699.644 709.873Z" fill="black"/>
<path d="M560.934 748.33C605.898 748.33 642.348 732.726 642.348 713.478C642.348 694.229 605.898 678.625 560.934 678.625C515.97 678.625 479.52 694.229 479.52 713.478C479.52 732.726 515.97 748.33 560.934 748.33Z" fill="#2D2D2D"/>
<path d="M562.375 759.975C609.822 759.975 648.285 740.447 648.285 716.358C648.285 692.27 609.822 672.742 562.375 672.742C514.928 672.742 476.465 692.27 476.465 716.358C476.465 740.447 514.928 759.975 562.375 759.975Z" fill="#FFC5B4"/>
<path opacity="0.56" d="M608.317 679.518C619.037 688.397 625.233 698.861 625.233 710.046C625.233 731.033 603.504 749.396 570.852 759.745C614.311 757.583 648.289 738.989 648.289 716.359C648.289 700.879 632.352 687.272 608.317 679.518Z" fill="#E98D80"/>
<path d="M686.046 586.778C692.012 592.717 698.496 598.367 705.442 603.671C699.62 595.369 694.75 586.72 690.946 577.928C697.949 585.308 705.73 592.313 714.203 598.77C704.635 585.106 697.632 570.606 693.741 555.846C716.249 561.496 741.091 565.013 767.576 566.195C738.007 556.307 713.569 542.21 696.191 524.453C705.816 527.249 715.874 528.431 725.932 527.941C721.465 526.471 717.142 524.654 712.935 522.521C721.725 524.77 730.831 525.721 739.967 525.26C720.312 518.831 702.704 505.686 691.032 486.688C674.807 460.311 673.712 428.889 685.326 402.54L679.274 406.259C671.377 382.044 664.345 359.702 657.227 339.494L630.022 346.269L610.309 351.169C593.71 371.06 582.124 391.759 576.562 412.342L573.594 413.12C562.642 426.237 553.91 439.699 547.599 453.219L541.143 454.834C510.912 491.07 497.338 529.901 506.33 566.051C515.35 602.403 545.812 630.452 589.877 648.267C608.177 674.933 638.523 688.914 669.014 687.415C653.654 682.399 639.59 673.261 628.581 660.433C650.022 665.535 673.481 668.706 698.439 669.831C684.865 665.276 672.386 659.856 661.147 653.601C658.553 649.075 656.247 644.491 654.259 639.85C661.262 647.23 669.043 654.235 677.516 660.692C669.245 648.873 662.905 636.419 658.812 623.735C669.36 627.194 680.513 628.751 691.695 628.175C687.257 626.733 682.905 624.888 678.726 622.755C684.605 624.254 690.6 625.176 696.681 625.494C704.52 627.223 712.56 627.915 720.629 627.512C724.03 627.742 727.46 627.944 730.918 628.117C727.46 626.964 724.088 625.724 720.745 624.456C725.356 624.946 730.025 625.09 734.664 624.859C715.154 618.488 697.718 605.516 686.046 586.778Z" fill="#262626"/>
<path d="M710.053 594.389C716.018 600.328 722.503 605.978 729.448 611.282C723.627 602.98 718.756 594.332 714.952 585.539C721.955 592.919 729.736 599.924 738.209 606.382C728.641 592.717 721.638 578.217 717.747 563.457C740.255 569.107 765.097 572.624 791.582 573.806C762.014 563.918 737.575 549.822 720.197 532.064C729.823 534.86 739.881 536.042 749.939 535.552C745.472 534.082 741.149 532.266 736.941 530.132C745.731 532.381 754.838 533.332 763.974 532.871C744.319 526.442 726.71 513.297 715.038 494.3C698.813 467.922 697.718 436.5 709.332 410.152L703.28 413.87C695.384 389.655 688.352 367.314 681.233 347.105L654.028 353.88L634.316 358.781C617.716 378.672 606.131 399.37 600.568 419.953L597.629 420.674C586.678 433.79 577.945 447.253 571.634 460.773L565.178 462.387C534.947 498.624 521.373 537.455 530.365 573.604C539.385 609.956 569.847 638.006 613.912 655.821C632.212 682.487 662.559 696.468 693.049 694.969C677.689 689.953 663.625 680.815 652.616 667.986C674.057 673.089 697.516 676.26 722.474 677.384C708.9 672.829 696.421 667.41 685.182 661.154C682.588 656.628 680.282 652.045 678.294 647.403C685.297 654.783 693.078 661.788 701.551 668.246C693.28 656.426 686.94 643.973 682.847 631.289C693.395 634.748 704.548 636.305 715.73 635.728C711.292 634.287 706.94 632.442 702.761 630.309C708.641 631.808 714.635 632.73 720.716 633.047C728.555 634.777 736.595 635.469 744.665 635.065C748.065 635.296 751.495 635.497 754.953 635.67C751.495 634.517 748.123 633.278 744.78 632.009C749.391 632.499 754.06 632.644 758.7 632.413C739.189 626.071 721.753 613.098 710.053 594.389Z" fill="#383838"/>
<path d="M686.046 586.778C692.012 592.717 698.496 598.367 705.442 603.671C699.62 595.369 694.75 586.72 690.946 577.928C697.949 585.308 705.73 592.313 714.203 598.77C704.635 585.106 697.632 570.606 693.741 555.846C716.249 561.496 741.091 565.013 767.576 566.195C738.007 556.307 713.569 542.21 696.191 524.453C705.816 527.249 715.874 528.431 725.932 527.941C721.465 526.471 717.142 524.654 712.935 522.521C721.725 524.77 730.831 525.721 739.967 525.26C720.312 518.831 702.704 505.686 691.032 486.688C674.807 460.311 673.712 428.889 685.326 402.54L679.274 406.259C671.377 382.044 664.345 359.702 657.227 339.494L630.022 346.269L610.309 351.169C593.71 371.06 582.124 391.759 576.562 412.342L573.594 413.12C562.642 426.237 553.91 439.699 547.599 453.219L541.143 454.834C510.912 491.07 497.338 529.901 506.33 566.051C515.35 602.403 545.812 630.452 589.877 648.267C608.177 674.933 638.523 688.914 669.014 687.415C653.654 682.399 639.59 673.261 628.581 660.433C650.022 665.535 673.481 668.706 698.439 669.831C684.865 665.276 672.386 659.856 661.147 653.601C658.553 649.075 656.247 644.491 654.259 639.85C661.262 647.23 669.043 654.235 677.516 660.692C669.245 648.873 662.905 636.419 658.812 623.735C669.36 627.194 680.513 628.751 691.695 628.175C687.257 626.733 682.905 624.888 678.726 622.755C684.605 624.254 690.6 625.176 696.681 625.494C704.52 627.223 712.56 627.915 720.629 627.512C724.03 627.742 727.46 627.944 730.918 628.117C727.46 626.964 724.088 625.724 720.745 624.456C725.356 624.946 730.025 625.09 734.664 624.859C715.154 618.488 697.718 605.516 686.046 586.778Z" fill="#262626"/>
<path d="M433.506 586.778C427.541 592.717 421.056 598.367 414.111 603.671C419.932 595.369 424.803 586.72 428.607 577.928C421.604 585.308 413.823 592.313 405.35 598.77C414.918 585.106 421.921 570.606 425.811 555.846C403.304 561.496 378.461 565.013 351.977 566.195C381.545 556.307 405.984 542.21 423.362 524.453C413.736 527.249 403.678 528.431 393.62 527.941C398.087 526.471 402.41 524.654 406.618 522.521C397.828 524.77 388.721 525.721 379.585 525.26C399.24 518.831 416.849 505.686 428.52 486.688C444.746 460.311 445.841 428.889 434.227 402.54L440.279 406.259C448.175 382.044 455.207 359.702 462.325 339.494L489.531 346.269L509.243 351.169C525.843 371.06 537.428 391.759 542.991 412.342L545.93 413.12C556.881 426.237 565.614 439.699 571.925 453.219L578.381 454.834C608.612 491.07 622.186 529.901 613.194 566.051C604.174 602.403 573.712 630.452 529.647 648.267C511.347 674.933 481 688.914 450.51 687.415C465.87 682.399 479.934 673.261 490.943 660.433C469.501 665.535 446.043 668.706 421.085 669.831C434.659 665.276 447.138 659.856 458.377 653.601C460.971 649.075 463.276 644.491 465.265 639.85C458.262 647.23 450.481 654.235 442.008 660.692C450.279 648.873 456.619 636.419 460.712 623.735C450.164 627.194 439.011 628.751 427.829 628.175C432.267 626.733 436.619 624.888 440.797 622.755C434.918 624.254 428.924 625.176 422.843 625.494C415.004 627.223 406.964 627.915 398.894 627.512C395.494 627.742 392.064 627.944 388.606 628.117C392.064 626.964 395.436 625.724 398.779 624.456C394.168 624.946 389.499 625.09 384.859 624.859C404.37 618.488 421.806 605.516 433.506 586.778Z" fill="#262626"/>
<path d="M409.498 594.389C403.533 600.328 397.048 605.978 390.103 611.282C395.925 602.98 400.795 594.332 404.599 585.539C397.596 592.919 389.815 599.924 381.342 606.382C390.91 592.717 397.913 578.217 401.804 563.457C379.296 569.107 354.454 572.624 327.969 573.806C357.537 563.918 381.976 549.822 399.354 532.064C389.728 534.86 379.67 536.042 369.613 535.552C374.08 534.082 378.402 532.266 382.61 530.132C373.82 532.381 364.713 533.332 355.578 532.871C375.232 526.442 392.841 513.297 404.513 494.3C420.738 467.922 421.833 436.5 410.219 410.152L416.271 413.87C424.167 389.655 431.199 367.314 438.318 347.105L465.523 353.88L485.235 358.781C501.835 378.672 513.421 399.37 518.983 419.953L521.922 420.674C532.874 433.79 541.606 447.253 547.917 460.773L554.373 462.387C584.604 498.624 598.178 537.455 589.186 573.604C580.166 609.956 549.704 638.006 505.639 655.821C487.339 682.487 456.993 696.468 426.502 694.969C441.862 689.953 455.926 680.815 466.935 667.986C445.494 673.089 422.035 676.26 397.077 677.384C410.651 672.829 423.13 667.41 434.369 661.154C436.963 656.628 439.269 652.045 441.257 647.403C434.254 654.783 426.473 661.788 418 668.246C426.271 656.426 432.611 643.973 436.704 631.289C426.156 634.748 415.003 636.305 403.821 635.728C408.259 634.287 412.611 632.442 416.79 630.309C410.911 631.808 404.916 632.73 398.835 633.047C390.996 634.777 382.956 635.469 374.886 635.065C371.486 635.296 368.056 635.497 364.598 635.67C368.056 634.517 371.428 633.278 374.771 632.009C370.16 632.499 365.491 632.644 360.852 632.413C380.362 626.071 397.798 613.098 409.498 594.389Z" fill="#383838"/>
<path d="M433.506 586.778C427.541 592.717 421.056 598.367 414.111 603.671C419.932 595.369 424.803 586.72 428.607 577.928C421.604 585.308 413.823 592.313 405.35 598.77C414.918 585.106 421.921 570.606 425.811 555.846C403.304 561.496 378.461 565.013 351.977 566.195C381.545 556.307 405.984 542.21 423.362 524.453C413.736 527.249 403.678 528.431 393.62 527.941C398.087 526.471 402.41 524.654 406.618 522.521C397.828 524.77 388.721 525.721 379.585 525.26C399.24 518.831 416.849 505.686 428.52 486.688C444.746 460.311 445.841 428.889 434.227 402.54L440.279 406.259C448.175 382.044 455.207 359.702 462.325 339.494L489.531 346.269L509.243 351.169C525.843 371.06 537.428 391.759 542.991 412.342L545.93 413.12C556.881 426.237 565.614 439.699 571.925 453.219L578.381 454.834C608.612 491.07 622.186 529.901 613.194 566.051C604.174 602.403 573.712 630.452 529.647 648.267C511.347 674.933 481 688.914 450.51 687.415C465.87 682.399 479.934 673.261 490.943 660.433C469.501 665.535 446.043 668.706 421.085 669.831C434.659 665.276 447.138 659.856 458.377 653.601C460.971 649.075 463.276 644.491 465.265 639.85C458.262 647.23 450.481 654.235 442.008 660.692C450.279 648.873 456.619 636.419 460.712 623.735C450.164 627.194 439.011 628.751 427.829 628.175C432.267 626.733 436.619 624.888 440.797 622.755C434.918 624.254 428.924 625.176 422.843 625.494C415.004 627.223 406.964 627.915 398.894 627.512C395.494 627.742 392.064 627.944 388.606 628.117C392.064 626.964 395.436 625.724 398.779 624.456C394.168 624.946 389.499 625.09 384.859 624.859C404.37 618.488 421.806 605.516 433.506 586.778Z" fill="#262626"/>
<path d="M704.2 450.738C715.296 435.459 753.74 459.213 730.397 497.842C713.826 525.258 696.16 528.486 695.18 538.317L704.2 450.738Z" fill="#F68D6F"/>
<path d="M694.083 455.81C705.178 440.532 743.623 464.286 720.28 502.915C703.709 530.33 686.042 533.559 685.062 543.389L694.083 455.81Z" fill="#FFC5B4"/>
<path d="M422.956 450.741C411.861 435.491 373.416 459.245 396.759 497.874C413.33 525.289 430.997 528.518 431.976 538.348L422.956 450.741Z" fill="#F68D6F"/>
<path d="M433.073 455.816C421.978 440.538 383.533 464.292 406.876 502.921C423.448 530.336 441.114 533.564 442.094 543.395L433.073 455.816Z" fill="#FFC5B4"/>
<path d="M496.293 614.193V707.739L496.379 707.97C502.23 722.816 514.536 734.347 529.867 738.787C539.147 741.468 548.773 742.909 558.485 742.938C558.744 742.938 559.004 742.938 559.292 742.938C569.004 742.909 578.63 741.468 587.881 738.787C603.299 734.318 615.605 722.701 621.397 707.739V614.193H496.293Z" fill="#FFC5B4"/>
<path d="M496.293 668.535L504.103 673.205C520.559 683.006 539.32 688.483 558.485 688.541C558.744 688.541 559.004 688.541 559.292 688.541C578.485 688.483 597.247 682.977 613.731 673.118L621.426 668.535V620.508H496.293V668.535Z" fill="#E98D80"/>
<path d="M698.952 444.829C722.008 582.914 645.651 676.114 561.629 676.114C470.879 676.114 406.235 579.368 421.279 453.132C434.997 338.08 436.323 274.141 555.605 274.141C679.903 274.169 679.903 330.845 698.952 444.829Z" fill="#FFC5B4"/>
<path opacity="0.31" d="M698.62 450.727C682.236 368.121 677.683 315.679 620.056 293.113C637.57 327.825 644.516 374.971 656.347 434.695C677.583 541.594 626.869 627.021 564.988 676.787C651.858 670.582 722.349 570.233 698.62 450.727Z" fill="#F3A697"/>
<path d="M583.501 542.441C580.82 541.72 578.717 539.76 577.621 537.223C575.057 531.256 569.667 527.162 563.471 527.162C557.16 527.162 551.713 531.4 549.206 537.54C548.226 539.875 546.468 541.864 544.076 542.758C539.032 544.603 535.545 549.619 535.978 555.384C536.467 561.438 541.28 566.224 547.332 566.685C547.39 566.685 547.419 566.685 547.476 566.685C550.848 566.915 553.932 568.559 556.18 571.096C557.967 573.085 560.532 574.324 563.414 574.324C566.324 574.324 568.947 573.027 570.734 571.009C573.039 568.357 576.44 566.858 579.956 566.714C580.705 566.685 581.454 566.598 582.204 566.425C587.651 565.272 591.541 560.545 591.829 554.981C592.146 549.186 589.12 543.969 583.501 542.441Z" fill="#F58E6F"/>
<path d="M537.215 559.822C539.088 563.627 542.863 566.337 547.33 566.683C547.388 566.683 547.417 566.683 547.475 566.683C550.846 566.914 553.93 568.557 556.178 571.094C557.965 573.083 560.53 574.323 563.412 574.323C566.322 574.323 568.945 573.025 570.732 571.007C573.037 568.355 576.438 566.856 579.954 566.712C580.703 566.683 581.452 566.597 582.202 566.424C585.948 565.617 588.974 563.137 590.588 559.822H537.215Z" fill="#DA6864"/>
<path d="M525.975 606.159C524.523 605.917 523.103 605.648 521.654 605.377C529.859 609.417 539.41 612.53 549.807 614.225C577.355 618.718 602.476 612.02 613.544 598.769C590.033 608.307 558.937 611.523 525.975 606.159Z" fill="#BB6864"/>
<path d="M571.059 624.681C565.842 625.258 561.231 625.604 558.926 629.899C562.125 633.589 566.765 633.589 571.981 633.013C577.197 632.436 581.722 631.398 584.056 627.103C580.828 623.413 576.275 624.105 571.059 624.681Z" fill="#F5906B"/>
<path opacity="0.15" d="M715.004 454.979C708.548 468.787 692.899 475.677 678.374 471.122L628.315 455.411C586.239 442.208 541.166 442.064 499.003 454.979L453.844 468.816C440.817 472.823 426.696 467.634 419.347 456.161L414.621 448.781C410.961 443.073 409.087 436.414 409.231 429.668L409.059 438.518C408.914 445.293 410.788 451.952 414.448 457.631L419.174 465.011C426.523 476.484 440.644 481.673 453.671 477.666L498.83 463.829C540.993 450.914 586.066 451.058 628.142 464.261L678.201 479.972C692.726 484.527 708.404 477.637 714.831 463.829C716.848 459.505 717.943 454.806 718.03 450.049L718.203 441.199C718.116 445.984 717.021 450.683 715.004 454.979Z" fill="black"/>
<path d="M713.737 452.095C713.622 450.279 713.478 448.405 713.305 446.445C712.988 442.323 712.584 437.941 712.181 433.473C709.99 410.41 706.936 385.186 706.936 385.186L603.302 359.904H512.29L446.179 387.175L409.925 450.884C409.925 450.884 407.388 506.493 418.772 524.193C418.772 524.193 417.533 494.299 419.348 474.35C419.348 474.35 419.348 474.35 419.348 474.321C424.939 483.95 436.928 489.283 450.848 489.168C442.375 486.371 435.775 480.981 432.721 473.399C428.513 462.906 432.144 450.683 441.136 440.651L441.078 440.679C455.949 425.43 474.364 405.366 474.364 405.366L608.316 402.829L701.835 431.916C701.835 431.916 701.835 431.973 701.863 432.06L701.546 432.031C694.659 440.968 689.759 452.47 688.03 465.414C685.119 487.438 692.18 507.877 705.034 519.667C699.616 508.597 697.252 494.933 699.183 480.577C700.221 472.765 702.411 465.5 705.495 458.985C706.907 475.878 707.541 499.574 704.371 526.701C704.371 526.73 715.495 477.291 713.737 452.095Z" fill="#383838"/>
<path d="M409.233 394.584L543.704 347.682C543.733 347.682 553.445 341.801 553.502 341.801L717.311 394.584C717.628 394.613 717.887 394.873 717.887 395.218V440.651C717.887 445.407 716.879 450.135 714.948 454.488C708.781 468.412 693.247 475.648 678.636 471.381L628.26 456.679C585.924 444.341 540.851 445.09 498.948 458.841L454.076 473.572C441.107 477.839 426.928 472.938 419.32 461.609L414.45 454.315C410.674 448.694 408.686 442.063 408.686 435.318V395.218C408.657 394.901 408.916 394.613 409.233 394.584Z" fill="#0D8CB3"/>
<path opacity="0.06" d="M562.208 397.813C614.976 397.813 666.937 401.359 717.86 408.191V395.218C717.86 394.901 717.63 394.642 717.284 394.584L553.475 341.801C553.447 341.801 543.735 347.682 543.677 347.682L409.235 394.584C408.918 394.613 408.688 394.873 408.688 395.19V407.874C458.919 401.272 510.16 397.813 562.208 397.813Z" fill="black"/>
<path d="M563.268 382.908C619.783 382.908 672.493 387.117 717.163 394.411L716.961 394.324V353.245C716.961 293.197 668.286 252.319 608.226 252.319C582.491 232.889 547.158 232.226 520.673 250.647L518.281 252.319C458.251 252.319 409.546 293.168 409.546 353.245V394.353L409.402 394.411C454.072 387.117 506.783 382.908 563.268 382.908Z" fill="#11A1C4"/>
<path opacity="0.07" d="M674.048 368.728C674.048 375.416 673.673 381.988 672.981 388.503C688.4 390.147 703.184 392.136 717.161 394.413L716.959 394.327V353.247C716.959 302.395 682.088 265.323 634.969 255.146C659.436 286.453 674.048 325.89 674.048 368.728Z" fill="black"/>
<path opacity="0.07" d="M452.836 368.728C452.836 375.416 453.211 381.988 453.903 388.503C438.484 390.147 423.7 392.136 409.723 394.413L409.924 394.327V353.247C409.924 302.395 444.796 265.323 491.915 255.146C467.448 286.453 452.836 325.89 452.836 368.728Z" fill="white"/>
<path opacity="0.07" d="M555.118 286.566C554.398 267.597 538.807 252.434 519.671 252.434C517.509 252.434 515.406 252.635 513.359 253.01C531.948 257.017 547.337 269.673 555.118 286.566Z" fill="black"/>
<path opacity="0.17" d="M609.414 252.406C596.763 252.896 586.676 263.274 586.676 276.045C586.676 277.486 586.82 278.87 587.05 280.254C589.731 267.829 598.146 257.566 609.414 252.406Z" fill="white"/>
<path d="M590.621 495.682H665.321L669.932 490.291L654.629 484.699C649.96 482.277 644.974 480.547 639.787 479.596H639.729C632.467 478.27 625.031 478.472 617.855 480.173C612.322 481.499 607.019 483.718 602.178 486.745L593.503 493.837C592.61 494.558 591.659 495.192 590.621 495.682Z" fill="black"/>
<path d="M590.621 495.682L609.238 486.918C610.737 486.226 612.293 485.679 613.878 485.304L623.763 483.027C627.279 482.219 630.939 482.248 634.455 483.142L643.994 485.535C645.666 485.938 647.251 486.544 648.778 487.322L665.321 495.682L649.153 506.464L627.596 510.326L605.261 506.464L590.621 495.682Z" fill="white"/>
<path d="M628.374 510.328C636.03 510.328 642.236 504.12 642.236 496.462C642.236 488.804 636.03 482.596 628.374 482.596C620.718 482.596 614.512 488.804 614.512 496.462C614.512 504.12 620.718 510.328 628.374 510.328Z" fill="#281300"/>
<path d="M628.374 503.38C632.624 503.38 636.069 499.934 636.069 495.683C636.069 491.432 632.624 487.986 628.374 487.986C624.125 487.986 620.68 491.432 620.68 495.683C620.68 499.934 624.125 503.38 628.374 503.38Z" fill="black"/>
<path d="M619.901 501.103C622.034 501.103 623.763 499.373 623.763 497.24C623.763 495.106 622.034 493.377 619.901 493.377C617.768 493.377 616.039 495.106 616.039 497.24C616.039 499.373 617.768 501.103 619.901 501.103Z" fill="white"/>
<path d="M537.397 495.682H462.697L458.086 490.291L473.389 484.699C478.058 482.277 483.043 480.547 488.231 479.596H488.289C495.551 478.27 502.986 478.472 510.162 480.173C515.696 481.499 520.998 483.718 525.84 486.745L534.515 493.837C535.408 494.558 536.388 495.192 537.397 495.682Z" fill="black"/>
<path d="M537.391 495.682L518.774 486.918C517.275 486.226 515.719 485.679 514.134 485.304L504.249 483.027C500.733 482.219 497.073 482.248 493.557 483.142L484.018 485.535C482.346 485.938 480.761 486.544 479.234 487.322L462.691 495.682L478.859 506.464L500.416 510.326L522.751 506.464L537.391 495.682Z" fill="white"/>
<path d="M499.675 510.328C507.33 510.328 513.537 504.12 513.537 496.462C513.537 488.804 507.33 482.596 499.675 482.596C492.019 482.596 485.812 488.804 485.812 496.462C485.812 504.12 492.019 510.328 499.675 510.328Z" fill="#281300"/>
<path d="M499.675 503.38C503.925 503.38 507.37 499.934 507.37 495.683C507.37 491.432 503.925 487.986 499.675 487.986C495.426 487.986 491.98 491.432 491.98 495.683C491.98 499.934 495.426 503.38 499.675 503.38Z" fill="black"/>
<path d="M490.854 501.103C492.987 501.103 494.716 499.373 494.716 497.24C494.716 495.106 492.987 493.377 490.854 493.377C488.721 493.377 486.992 495.106 486.992 497.24C486.992 499.373 488.721 501.103 490.854 501.103Z" fill="white"/>
</g>
<defs>
<clipPath id="clip0_506_101">
<rect width="608.086" height="680.477" fill="white" transform="translate(293 237.275)"/>
</clipPath>
</defs>
</svg>
