<svg width="1197" height="1010" viewBox="0 0 1197 1010" fill="none" xmlns="http://www.w3.org/2000/svg">
<circle cx="164.778" cy="422.662" r="94.5923" transform="rotate(-69.0135 164.778 422.662)" fill="#03A1C3"/>
<circle cx="413.532" cy="162.916" r="94.5923" transform="rotate(-69.0135 413.532 162.916)" fill="#03A1C3"/>
<circle cx="773.242" cy="154.053" r="94.5923" transform="rotate(-69.0135 773.242 154.053)" fill="#03A1C3"/>
<circle cx="1034.12" cy="399.836" r="94.5923" transform="rotate(-69.0135 1034.12 399.836)" fill="#03A1C3"/>
<circle cx="1042.84" cy="762.896" r="94.5923" transform="rotate(-69.0135 1042.84 762.896)" fill="#03A1C3"/>
<circle cx="172.266" cy="782.977" r="94.5923" transform="rotate(-69.0135 172.266 782.977)" fill="#03A1C3"/>
<path d="M368.716 63.17C313.745 87.6618 289.032 152.087 313.521 207.059C338.01 262.031 402.432 286.743 457.403 262.251C512.374 237.759 537.087 173.334 512.598 118.362C488.109 63.3898 423.687 38.6781 368.716 63.17ZM407.854 194.8C405.106 198.074 401.603 200.67 397.293 202.569C392.999 204.504 388.762 205.356 384.624 205.172C380.477 205.013 376.674 203.644 373.186 201.142C369.709 198.614 366.883 194.933 364.718 190.073L350.23 157.503L363.513 151.585L378.059 184.237C379.519 187.513 381.443 189.654 383.823 190.686C386.203 191.719 388.954 191.55 392.076 190.181C395.172 188.801 397.173 186.853 398.043 184.351C398.913 181.849 398.619 178.96 397.185 175.694L382.639 143.042L395.923 137.124L410.411 169.694C412.576 174.554 413.376 179.159 412.806 183.447C412.251 187.771 410.592 191.553 407.854 194.8ZM448.357 146.79L478.437 165.79L462.957 172.687L444.392 160.939L442.041 182.006L426.958 188.727L432.078 153.201L402.265 134.363L417.745 127.466L436.044 139.052L438.336 118.291L453.42 111.571L448.357 146.79Z" fill="#F7F7F7"/>
<path d="M172.102 362.525L169.207 370.07L181.592 374.821L184.486 367.275C185.345 365.038 185.437 363.163 184.773 361.625C184.11 360.087 182.784 358.951 180.781 358.183C178.882 357.454 177.189 357.432 175.667 358.132C174.155 358.805 172.96 360.287 172.102 362.525Z" fill="#F7F7F7"/>
<path d="M63.405 384.226C41.9958 440.038 69.875 502.669 125.711 524.087C181.52 545.495 244.149 517.613 265.568 461.774C286.977 405.962 259.098 343.332 203.263 321.914C147.427 300.496 84.8242 328.388 63.405 384.226ZM161.471 449.304C165.946 451.02 169.349 453.43 171.691 456.507C174.058 459.595 175.396 463.033 175.729 466.832C176.063 470.631 175.466 474.521 173.959 478.45C172.442 482.405 170.314 485.619 167.581 488.152C164.848 490.686 161.568 492.233 157.783 492.841C153.972 493.439 149.85 492.902 145.375 491.185L115.558 479.748L120.229 467.571L150.15 479.048C153.142 480.196 155.738 480.356 157.92 479.491C160.102 478.627 161.737 476.777 162.825 473.941C163.912 471.104 163.944 468.609 162.92 466.455C161.886 464.327 159.87 462.659 156.877 461.511L126.956 450.033L131.627 437.856L161.471 449.304V449.304ZM196.666 417.853L177.429 422.174L189.31 437.029L184.01 450.846L164.739 425.067L133.863 432.028L139.303 417.847L158.246 413.592L146.549 398.957L151.849 385.14L170.962 410.709L202.096 403.698L196.666 417.853V417.853ZM214.233 372.058L191.351 375.22L190.233 378.135L209.122 385.38L204.451 397.558L154.444 378.375L162.289 357.924C163.796 353.995 165.77 350.872 168.207 348.642C170.654 346.387 173.352 345.034 176.274 344.573C179.197 344.113 182.137 344.464 185.077 345.592C188.407 346.869 191.014 348.944 192.897 351.815C194.78 354.687 195.596 358.164 195.281 362.251L219.513 358.294L214.233 372.058Z" fill="#F7F7F7"/>
<path d="M128.426 683.36C73.491 707.835 48.808 772.182 73.2912 827.092C97.7643 882.029 162.108 906.71 217.017 882.225C271.952 857.749 296.635 793.402 272.152 738.492C247.669 683.582 183.351 658.91 128.426 683.36ZM133.531 789.877C132.521 787.609 132.371 785.432 133.091 783.32C133.802 781.235 135.183 779.735 137.271 778.805C139.287 777.906 141.326 777.883 143.351 778.749C145.377 779.616 146.895 781.183 147.931 783.461C148.973 785.801 149.113 788.004 148.403 790.089C147.692 792.175 146.311 793.675 144.295 794.573C142.243 795.487 140.169 795.527 138.143 794.66C136.082 793.81 134.548 792.207 133.531 789.877ZM205.937 791.205C209.321 794.056 212.023 797.749 214.044 802.285C216.45 807.685 217.395 813.002 216.931 818.257C216.457 823.537 214.641 828.273 211.497 832.499C208.354 836.726 204.095 840.047 198.705 842.427C193.305 844.833 187.988 845.778 182.734 845.315C177.454 844.841 172.718 843.025 168.492 839.881C164.266 836.738 160.945 832.479 158.565 827.089C155.662 820.573 154.792 814.359 155.946 808.474C157.099 802.588 160.176 797.68 165.088 793.744L171.632 808.432C170.255 810.232 169.512 812.245 169.358 814.514C169.204 816.783 169.698 819.152 170.805 821.636C172.713 825.92 175.657 828.75 179.629 830.065C183.592 831.406 187.949 831.018 192.665 828.917C197.669 826.687 201.01 823.581 202.599 819.594C204.214 815.617 203.95 811.247 201.833 806.495C200.374 803.219 198.327 800.852 195.661 799.322C192.994 797.792 189.897 797.23 186.336 797.566L193.857 814.45L184.065 818.813L171.203 789.94L183.551 784.439C187.296 783.935 191.12 784.238 195.032 785.321C198.918 786.394 202.58 788.365 205.937 791.205ZM198.669 768.837L155.352 788.158L149.434 774.874L192.741 755.579L198.669 768.837ZM180.723 728.553C182.872 733.377 183.352 737.65 182.215 741.393C181.052 745.125 177.819 748.183 172.491 750.557L155.248 758.24L157.605 763.532L146.589 768.44L144.232 763.148L133.684 767.847L127.766 754.563L138.314 749.864L134.433 741.152L145.449 736.244L149.33 744.956L166.717 737.209C168.013 736.632 168.795 735.917 169.098 735.048C169.402 734.179 169.225 733.007 168.557 731.557L166.44 726.805L177.708 721.785L180.723 728.553Z" fill="#F7F7F7"/>
<path d="M1029.18 795.918C1034.31 797.884 1038.84 797.98 1042.8 796.216C1046.76 794.452 1049.72 791.02 1051.68 785.894L1054.15 779.467L1021.78 767.051L1019.32 773.478C1017.35 778.604 1017.23 783.124 1018.91 787.054C1020.63 790.994 1024.06 793.952 1029.18 795.918Z" fill="#F7F7F7"/>
<path d="M939.872 723.899C918.363 779.971 946.38 842.864 1002.45 864.372C1058.52 885.88 1121.41 857.859 1142.92 801.787C1164.43 745.714 1136.41 682.822 1080.34 661.314C1024.26 639.832 961.371 667.853 939.872 723.899ZM1070.89 770.367L1062.9 791.209C1060.65 797.063 1057.52 801.74 1053.51 805.249C1049.51 808.758 1044.93 810.883 1039.83 811.67C1034.72 812.457 1029.39 811.814 1023.9 809.708C1018.46 807.622 1014.08 804.569 1010.79 800.532C1007.49 796.521 1005.52 791.855 1004.88 786.534C1004.26 781.222 1005.05 775.673 1007.27 769.871L1015.27 749.029L1070.89 770.367ZM1047.53 732.991C1049.3 731.817 1050.83 729.451 1052.19 725.912L1053.16 723.388L1064.16 727.61L1063.2 730.134C1062.16 732.84 1061.8 735.179 1062.07 737.194C1062.37 739.218 1063.69 740.68 1066.05 741.588C1067.95 742.316 1069.64 742.365 1071.11 741.707C1072.59 741.05 1073.66 739.818 1074.38 737.945C1075.14 735.941 1075.13 734.203 1074.27 732.771C1073.43 731.313 1072.13 730.188 1070.4 729.317L1075.48 716.073C1081.05 718.447 1084.71 721.971 1086.44 726.635C1088.18 731.3 1087.9 736.624 1085.61 742.582C1084.09 746.537 1082.11 749.687 1079.65 751.968C1077.19 754.275 1074.49 755.69 1071.57 756.239C1068.64 756.788 1065.68 756.488 1062.71 755.35C1059.23 754.013 1056.72 752.067 1055.21 749.459C1053.7 746.877 1052.97 744.269 1053.09 741.628L1052.77 741.508C1050.6 744.137 1048.03 745.866 1045.04 746.721C1042.06 747.576 1038.73 747.313 1035.08 745.916C1031.81 744.658 1029.21 742.796 1027.26 740.318C1025.34 737.851 1024.2 734.907 1023.88 731.47C1023.56 728.033 1024.16 724.355 1025.68 720.4C1028.12 714.051 1031.61 709.602 1036.18 707.027C1040.75 704.452 1046.23 704.254 1052.58 706.452L1047.53 719.618C1045.19 718.781 1043.1 718.723 1041.26 719.479C1039.41 720.235 1038.03 721.823 1037.1 724.243C1036.31 726.298 1036.29 728.141 1037.06 729.719C1037.82 731.323 1039.17 732.468 1041.12 733.217C1043.64 734.273 1045.77 734.165 1047.53 732.991Z" fill="#F7F7F7"/>
<path d="M1065.34 465.67C1066.96 464.948 1067.99 463.821 1068.46 462.298C1068.92 460.775 1068.78 459.198 1068.04 457.542C1067.34 455.958 1066.3 454.845 1064.89 454.182C1063.5 453.503 1061.89 453.422 1060.09 453.924L1065.34 465.67Z" fill="#F7F7F7"/>
<path d="M1020.12 387.402C1019.32 389.183 1019.34 390.984 1020.13 392.748C1020.93 394.548 1022.28 395.781 1024.14 396.438C1026.03 397.131 1028.2 396.918 1030.66 395.802C1033.1 394.711 1034.74 393.249 1035.49 391.448C1036.28 389.63 1036.25 387.83 1035.45 386.03C1034.63 384.194 1033.31 382.97 1031.46 382.35C1029.61 381.729 1027.46 381.951 1024.97 383.084C1022.52 384.174 1020.92 385.621 1020.12 387.402Z" fill="#F7F7F7"/>
<path d="M1035.93 422.511C1035.14 424.417 1035.16 426.306 1036 428.178C1036.83 430.05 1038.22 431.329 1040.13 432.032C1042.08 432.718 1044.2 432.548 1046.54 431.505C1048.88 430.463 1050.44 428.971 1051.22 427.091C1052.01 425.186 1051.96 423.287 1051.12 421.441C1050.28 419.569 1048.92 418.3 1046.99 417.587C1045.08 416.885 1042.95 417.055 1040.59 418.087C1038.28 419.114 1036.73 420.58 1035.93 422.511Z" fill="#F7F7F7"/>
<path d="M989.348 304.767C935.061 328.954 910.668 392.546 934.852 446.834C959.037 501.123 1022.63 525.515 1076.91 501.328C1131.2 477.141 1155.59 413.549 1131.41 359.26C1107.22 304.972 1043.61 280.57 989.348 304.767ZM1070.09 447.072C1072.42 448.86 1074.25 451.236 1075.61 454.296C1076.93 457.248 1077.48 460.175 1077.27 463.05C1077.06 465.925 1076.07 468.501 1074.35 470.824C1072.62 473.146 1070.21 474.997 1067.14 476.387C1066.28 476.771 1065.33 477.126 1064.31 477.451L1054.84 456.175C1052.99 457.169 1051.82 458.423 1051.29 459.978C1050.76 461.507 1050.85 463.064 1051.56 464.648C1052.6 466.988 1054.32 468.185 1056.7 468.203L1061.16 478.211C1058.92 478.605 1056.7 478.471 1054.49 477.861C1052.27 477.25 1050.26 476.12 1048.45 474.531C1046.65 472.916 1045.16 470.882 1044.07 468.372C1042.74 465.384 1042.18 462.395 1042.4 459.494C1042.65 456.577 1043.64 453.913 1045.44 451.558C1047.25 449.177 1049.75 447.268 1052.91 445.857C1056.08 444.445 1059.18 443.842 1062.13 444.08C1065.12 444.301 1067.77 445.319 1070.09 447.072ZM1053.15 408.994C1055.36 410.468 1057 412.474 1058.13 414.994C1059.02 417.01 1059.41 419.038 1059.31 421.089C1059.21 423.14 1058.66 424.959 1057.64 426.537L1071.86 420.201L1076.04 429.597L1035.36 447.722L1031.18 438.326L1035.57 436.369C1033.72 436.136 1031.97 435.406 1030.38 434.171C1028.77 432.926 1027.48 431.236 1026.52 429.076C1025.4 426.556 1025.02 423.963 1025.4 421.334C1025.78 418.704 1026.93 416.25 1028.78 414.004C1030.66 411.741 1033.15 409.92 1036.32 408.509C1039.49 407.097 1042.51 406.464 1045.41 406.594C1048.32 406.723 1050.94 407.519 1053.15 408.994ZM1038.04 375.143C1040.4 377.004 1042.26 379.415 1043.59 382.403C1044.92 385.391 1045.49 388.416 1045.28 391.38C1045.08 394.379 1044.07 397.095 1042.29 399.548C1040.52 402 1038.04 403.945 1034.91 405.341C1031.78 406.736 1028.67 407.277 1025.65 406.922C1022.62 406.566 1019.93 405.476 1017.55 403.606C1015.18 401.745 1013.32 399.298 1011.99 396.31C1010.66 393.322 1010.07 390.323 1010.29 387.36C1010.5 384.396 1011.48 381.67 1013.25 379.244C1015.02 376.817 1017.49 374.872 1020.69 373.471C1023.86 372.059 1026.92 371.534 1029.93 371.853C1033.01 372.229 1035.7 373.319 1038.04 375.143ZM1027.55 331.839C1030.53 334.053 1032.85 337.007 1034.52 340.751C1036.56 345.323 1037.08 349.792 1036.14 354.117C1035.16 358.457 1032.84 362.103 1029.17 365.053L1024.57 354.721C1025.82 353.234 1026.58 351.582 1026.78 349.809C1026.99 348.01 1026.69 346.224 1025.89 344.424C1024.61 341.544 1022.54 339.617 1019.74 338.751C1016.92 337.849 1013.82 338.152 1010.46 339.67C1007.08 341.178 1004.79 343.255 1003.58 345.953C1002.36 348.651 1002.4 351.44 1003.68 354.32C1004.48 356.12 1005.61 357.538 1007.09 358.583C1008.57 359.628 1010.27 360.163 1012.22 360.223L1016.82 370.555C1012.14 371.325 1007.88 370.589 1004.04 368.398C1000.19 366.206 997.248 362.837 995.195 358.229C993.527 354.485 992.864 350.769 993.231 347.089C993.572 343.399 994.875 340.078 997.125 337.091C999.366 334.13 1002.38 331.794 1006.2 330.094C1010.01 328.394 1013.77 327.714 1017.49 328.039C1021.23 328.4 1024.57 329.651 1027.55 331.839Z" fill="#F7F7F7"/>
<g clip-path="url(#clip0_506_101)">
<path d="M895 614.916C895 745.29 810.2 855.844 692.767 894.395C663.896 903.873 633.047 909.002 601 909.002C499.201 909.002 409.468 857.237 356.715 778.601C325.309 731.826 307 675.517 307 614.916C307 452.486 438.617 320.83 601 320.83C763.383 320.83 895 452.486 895 614.916Z" fill="#FEC94C"/>
<path d="M778.57 785.679L777.79 849.542C751.706 867.159 723.086 882.24 692.767 894.394C663.896 903.871 633.047 909 601 909C499.2 909 409.468 857.236 356.715 778.599C360.31 739.155 393.723 707.991 434.047 707.991L519.822 691.07C552.594 684.603 586.313 684.687 619.058 691.349L700.932 707.991C743.624 707.991 778.57 742.946 778.57 785.679Z" fill="#424242"/>
<path opacity="0.08" d="M700.208 707.991L618.334 691.349C595.622 686.722 572.436 685.356 549.418 687.057C550.477 687.252 551.508 687.447 552.567 687.642L653.892 708.242C706.757 708.242 750.007 751.505 750.007 804.384L747.304 868.442C757.447 862.644 767.396 856.512 777.038 850.017L777.846 785.652C777.874 742.947 742.929 707.991 700.208 707.991Z" fill="black"/>
<path d="M566.081 745.178C609.559 745.178 644.806 730.09 644.806 711.477C644.806 692.864 609.559 677.775 566.081 677.775C522.602 677.775 487.355 692.864 487.355 711.477C487.355 730.09 522.602 745.178 566.081 745.178Z" fill="#2D2D2D"/>
<path d="M567.475 756.439C613.354 756.439 650.547 737.556 650.547 714.263C650.547 690.971 613.354 672.088 567.475 672.088C521.595 672.088 484.402 690.971 484.402 714.263C484.402 737.556 521.595 756.439 567.475 756.439Z" fill="#FFC5B4"/>
<path opacity="0.56" d="M611.895 678.639C622.262 687.224 628.254 697.343 628.254 708.159C628.254 728.452 607.242 746.209 575.668 756.216C617.692 754.125 650.547 736.146 650.547 714.263C650.547 699.294 635.137 686.137 611.895 678.639Z" fill="#E98D80"/>
<path d="M687.055 588.963C692.823 594.706 699.093 600.169 705.81 605.298C700.18 597.27 695.471 588.908 691.792 580.406C698.564 587.542 706.088 594.315 714.281 600.56C705.029 587.347 698.257 573.325 694.495 559.053C716.26 564.517 740.281 567.917 765.891 569.06C737.3 559.499 713.668 545.868 696.864 528.697C706.172 531.401 715.897 532.543 725.623 532.07C721.304 530.648 717.124 528.892 713.055 526.829C721.555 529.003 730.361 529.923 739.195 529.477C720.189 523.261 703.162 510.55 691.876 492.18C676.187 466.674 675.128 436.289 686.358 410.811L680.506 414.407C672.87 390.992 666.071 369.388 659.188 349.848L632.881 356.398L613.82 361.137C597.768 380.371 586.565 400.386 581.187 420.289L578.317 421.042C567.727 433.725 559.283 446.743 553.18 459.816L546.938 461.377C517.705 496.417 504.58 533.965 513.274 568.921C521.997 604.072 551.453 631.195 594.062 648.422C611.757 674.206 641.102 687.726 670.585 686.277C655.732 681.426 642.133 672.59 631.487 660.185C652.221 665.119 674.905 668.185 699.038 669.273C685.912 664.868 673.846 659.628 662.977 653.579C660.469 649.202 658.24 644.77 656.317 640.282C663.089 647.418 670.613 654.192 678.806 660.436C670.808 649.007 664.677 636.965 660.72 624.7C670.92 628.045 681.704 629.55 692.517 628.993C688.225 627.599 684.017 625.815 679.977 623.752C685.661 625.201 691.458 626.093 697.338 626.4C704.918 628.073 712.693 628.742 720.496 628.351C723.784 628.574 727.1 628.769 730.444 628.937C727.1 627.822 723.84 626.623 720.607 625.397C725.066 625.87 729.58 626.01 734.067 625.787C715.201 619.626 698.341 607.082 687.055 588.963Z" fill="#262626"/>
<path d="M710.269 596.323C716.038 602.065 722.308 607.529 729.024 612.658C723.395 604.63 718.685 596.267 715.007 587.765C721.778 594.901 729.302 601.675 737.495 607.919C728.244 594.706 721.472 580.685 717.71 566.412C739.474 571.876 763.496 575.277 789.106 576.42C760.514 566.858 736.882 553.227 720.078 536.056C729.386 538.76 739.112 539.903 748.837 539.429C744.518 538.007 740.338 536.251 736.269 534.188C744.769 536.363 753.575 537.282 762.409 536.836C743.403 530.62 726.376 517.909 715.09 499.539C699.401 474.033 698.342 443.649 709.572 418.171L703.72 421.767C696.085 398.351 689.285 376.748 682.402 357.207L656.095 363.758L637.034 368.497C620.982 387.731 609.78 407.745 604.401 427.648L601.559 428.345C590.969 441.029 582.525 454.046 576.422 467.12L570.18 468.681C540.947 503.72 527.822 541.269 536.517 576.224C545.239 611.375 574.695 638.498 617.304 655.725C635 681.51 664.344 695.03 693.827 693.58C678.974 688.73 665.375 679.893 654.73 667.489C675.463 672.423 698.147 675.489 722.28 676.576C709.154 672.172 697.088 666.931 686.22 660.882C683.712 656.506 681.482 652.074 679.559 647.586C686.331 654.722 693.855 661.495 702.048 667.74C694.05 656.311 687.92 644.268 683.962 632.003C694.162 635.348 704.946 636.854 715.759 636.296C711.467 634.902 707.259 633.118 703.219 631.055C708.904 632.505 714.7 633.397 720.58 633.704C728.16 635.376 735.935 636.045 743.738 635.655C747.026 635.878 750.342 636.073 753.686 636.24C750.342 635.125 747.082 633.927 743.849 632.7C748.308 633.174 752.822 633.313 757.309 633.09C738.443 626.958 721.583 614.414 710.269 596.323Z" fill="#383838"/>
<path d="M687.055 588.963C692.823 594.706 699.093 600.169 705.81 605.298C700.18 597.27 695.471 588.908 691.792 580.406C698.564 587.542 706.088 594.315 714.281 600.56C705.029 587.347 698.257 573.325 694.495 559.053C716.26 564.517 740.281 567.917 765.891 569.06C737.3 559.499 713.668 545.868 696.864 528.697C706.172 531.401 715.897 532.543 725.623 532.07C721.304 530.648 717.124 528.892 713.055 526.829C721.555 529.003 730.361 529.923 739.195 529.477C720.189 523.261 703.162 510.55 691.876 492.18C676.187 466.674 675.128 436.289 686.358 410.811L680.506 414.407C672.87 390.992 666.071 369.388 659.188 349.848L632.881 356.398L613.82 361.137C597.768 380.371 586.565 400.386 581.187 420.289L578.317 421.042C567.727 433.725 559.283 446.743 553.18 459.816L546.938 461.377C517.705 496.417 504.58 533.965 513.274 568.921C521.997 604.072 551.453 631.195 594.062 648.422C611.757 674.206 641.102 687.726 670.585 686.277C655.732 681.426 642.133 672.59 631.487 660.185C652.221 665.119 674.905 668.185 699.038 669.273C685.912 664.868 673.846 659.628 662.977 653.579C660.469 649.202 658.24 644.77 656.317 640.282C663.089 647.418 670.613 654.192 678.806 660.436C670.808 649.007 664.677 636.965 660.72 624.7C670.92 628.045 681.704 629.55 692.517 628.993C688.225 627.599 684.017 625.815 679.977 623.752C685.661 625.201 691.458 626.093 697.338 626.4C704.918 628.073 712.693 628.742 720.496 628.351C723.784 628.574 727.1 628.769 730.444 628.937C727.1 627.822 723.84 626.623 720.607 625.397C725.066 625.87 729.58 626.01 734.067 625.787C715.201 619.626 698.341 607.082 687.055 588.963Z" fill="#262626"/>
<path d="M442.856 588.963C437.088 594.706 430.817 600.169 424.101 605.298C429.731 597.27 434.44 588.908 438.119 580.406C431.347 587.542 423.823 594.315 415.63 600.56C424.882 587.347 431.653 573.325 435.416 559.053C413.651 564.517 389.63 567.917 364.02 569.06C392.611 559.499 416.243 545.868 433.047 528.697C423.739 531.401 414.013 532.543 404.288 532.07C408.607 530.648 412.787 528.892 416.856 526.829C408.356 529.003 399.55 529.923 390.716 529.477C409.722 523.261 426.749 510.55 438.035 492.18C453.724 466.674 454.783 436.289 443.553 410.811L449.405 414.407C457.041 390.992 463.84 369.388 470.723 349.848L497.03 356.398L516.091 361.137C532.143 380.371 543.346 400.386 548.724 420.289L551.566 421.042C562.156 433.725 570.6 446.743 576.703 459.816L582.945 461.377C612.178 496.417 625.303 533.965 616.609 568.921C607.886 604.072 578.431 631.195 535.821 648.422C518.126 674.206 488.781 687.726 459.298 686.277C474.151 681.426 487.75 672.59 498.396 660.185C477.662 665.119 454.978 668.185 430.845 669.273C443.971 664.868 456.037 659.628 466.906 653.579C469.414 649.202 471.643 644.77 473.566 640.282C466.794 647.418 459.27 654.192 451.077 660.436C459.075 649.007 465.206 636.965 469.163 624.7C458.963 628.045 448.179 629.55 437.366 628.993C441.658 627.599 445.866 625.815 449.907 623.752C444.222 625.201 438.425 626.093 432.545 626.4C424.965 628.073 417.19 628.742 409.387 628.351C406.099 628.574 402.783 628.769 399.439 628.937C402.783 627.822 406.043 626.623 409.276 625.397C404.817 625.87 400.303 626.01 395.816 625.787C414.682 619.626 431.542 607.082 442.856 588.963Z" fill="#262626"/>
<path d="M419.641 596.323C413.873 602.065 407.603 607.529 400.887 612.658C406.516 604.63 411.225 596.267 414.904 587.765C408.132 594.901 400.608 601.675 392.415 607.919C401.667 594.706 408.439 580.685 412.201 566.412C390.436 571.876 366.415 575.277 340.805 576.42C369.397 566.858 393.028 553.227 409.832 536.056C400.524 538.76 390.799 539.903 381.073 539.429C385.392 538.007 389.572 536.251 393.641 534.188C385.142 536.363 376.335 537.282 367.502 536.836C386.507 530.62 403.534 517.909 414.82 499.539C430.51 474.033 431.568 443.649 420.338 418.171L426.19 421.767C433.826 398.351 440.625 376.748 447.509 357.207L473.815 363.758L492.877 368.497C508.928 387.731 520.131 407.745 525.509 427.648L528.352 428.345C538.941 441.029 547.385 454.046 553.488 467.12L559.73 468.681C588.963 503.72 602.088 541.269 593.394 576.224C584.671 611.375 555.216 638.498 512.607 655.725C494.911 681.51 465.567 695.03 436.083 693.58C450.936 688.73 464.535 679.893 475.181 667.489C454.448 672.423 431.764 675.489 407.63 676.576C420.756 672.172 432.823 666.931 443.691 660.882C446.199 656.506 448.428 652.074 450.351 647.586C443.579 654.722 436.055 661.495 427.862 667.74C435.86 656.311 441.991 644.268 445.948 632.003C435.749 635.348 424.964 636.854 414.151 636.296C418.443 634.902 422.651 633.118 426.692 631.055C421.007 632.505 415.21 633.397 409.33 633.704C401.75 635.376 393.975 636.045 386.173 635.655C382.884 635.878 379.568 636.073 376.224 636.24C379.568 635.125 382.829 633.927 386.061 632.7C381.602 633.174 377.088 633.313 372.601 633.09C391.467 626.958 408.327 614.414 419.641 596.323Z" fill="#383838"/>
<path d="M442.856 588.963C437.088 594.706 430.817 600.169 424.101 605.298C429.731 597.27 434.44 588.908 438.119 580.406C431.347 587.542 423.823 594.315 415.63 600.56C424.882 587.347 431.653 573.325 435.416 559.053C413.651 564.517 389.63 567.917 364.02 569.06C392.611 559.499 416.243 545.868 433.047 528.697C423.739 531.401 414.013 532.543 404.288 532.07C408.607 530.648 412.787 528.892 416.856 526.829C408.356 529.003 399.55 529.923 390.716 529.477C409.722 523.261 426.749 510.55 438.035 492.18C453.724 466.674 454.783 436.289 443.553 410.811L449.405 414.407C457.041 390.992 463.84 369.388 470.723 349.848L497.03 356.398L516.091 361.137C532.143 380.371 543.346 400.386 548.724 420.289L551.566 421.042C562.156 433.725 570.6 446.743 576.703 459.816L582.945 461.377C612.178 496.417 625.303 533.965 616.609 568.921C607.886 604.072 578.431 631.195 535.821 648.422C518.126 674.206 488.781 687.726 459.298 686.277C474.151 681.426 487.75 672.59 498.396 660.185C477.662 665.119 454.978 668.185 430.845 669.273C443.971 664.868 456.037 659.628 466.906 653.579C469.414 649.202 471.643 644.77 473.566 640.282C466.794 647.418 459.27 654.192 451.077 660.436C459.075 649.007 465.206 636.965 469.163 624.7C458.963 628.045 448.179 629.55 437.366 628.993C441.658 627.599 445.866 625.815 449.907 623.752C444.222 625.201 438.425 626.093 432.545 626.4C424.965 628.073 417.19 628.742 409.387 628.351C406.099 628.574 402.783 628.769 399.439 628.937C402.783 627.822 406.043 626.623 409.276 625.397C404.817 625.87 400.303 626.01 395.816 625.787C414.682 619.626 431.542 607.082 442.856 588.963Z" fill="#262626"/>
<path d="M704.609 457.419C715.338 442.645 752.513 465.615 729.941 502.968C713.917 529.477 696.834 532.599 695.887 542.105L704.609 457.419Z" fill="#F68D6F"/>
<path d="M694.828 462.325C705.557 447.551 742.732 470.521 720.159 507.874C704.136 534.384 687.053 537.506 686.105 547.011L694.828 462.325Z" fill="#FFC5B4"/>
<path d="M432.655 457.419C421.926 442.673 384.751 465.642 407.324 502.995C423.348 529.505 440.43 532.627 441.378 542.132L432.655 457.419Z" fill="#F68D6F"/>
<path d="M442.436 462.325C431.708 447.551 394.533 470.521 417.105 507.874C433.129 534.384 450.211 537.506 451.159 547.011L442.436 462.325Z" fill="#FFC5B4"/>
<path d="M503.574 615.473V705.928L503.658 706.152C509.315 720.507 521.214 731.658 536.04 735.95C545.013 738.543 554.321 739.937 563.712 739.964C563.963 739.964 564.213 739.964 564.492 739.964C573.883 739.937 583.191 738.543 592.136 735.95C607.045 731.63 618.945 720.396 624.546 705.928V615.473H503.574Z" fill="#FFC5B4"/>
<path d="M503.574 668.019L511.126 672.534C527.038 682.012 545.18 687.308 563.712 687.364C563.963 687.364 564.213 687.364 564.492 687.364C583.052 687.308 601.193 681.984 617.133 672.451L624.574 668.019V621.578H503.574V668.019Z" fill="#E98D80"/>
<path d="M699.54 451.705C721.834 585.228 648 675.35 566.753 675.35C479.001 675.35 416.492 581.8 431.039 459.733C444.304 348.482 445.586 286.654 560.928 286.654C681.12 286.682 681.12 341.485 699.54 451.705Z" fill="#FFC5B4"/>
<path opacity="0.31" d="M699.218 457.408C683.375 377.53 678.972 326.82 623.249 305C640.184 338.565 646.901 384.154 658.341 441.905C678.876 545.273 629.837 627.879 570 676C654 670 722.163 572.966 699.218 457.408Z" fill="#F3A697"/>
<path d="M587.902 546.09C585.311 545.394 583.276 543.498 582.217 541.045C579.737 535.275 574.526 531.316 568.534 531.316C562.432 531.316 557.165 535.414 554.74 541.352C553.793 543.609 552.093 545.533 549.78 546.397C544.903 548.181 541.531 553.031 541.949 558.606C542.423 564.46 547.077 569.088 552.929 569.534C552.984 569.534 553.012 569.534 553.068 569.534C556.329 569.757 559.31 571.346 561.484 573.799C563.212 575.722 565.692 576.921 568.479 576.921C571.293 576.921 573.829 575.666 575.557 573.715C577.786 571.15 581.075 569.701 584.475 569.562C585.199 569.534 585.924 569.45 586.648 569.283C591.915 568.168 595.677 563.596 595.956 558.216C596.262 552.613 593.336 547.568 587.902 546.09Z" fill="#F58E6F"/>
<path d="M543.148 562.898C544.96 566.578 548.61 569.198 552.93 569.533C552.986 569.533 553.013 569.533 553.069 569.533C556.33 569.756 559.311 571.345 561.485 573.798C563.213 575.721 565.693 576.92 568.48 576.92C571.294 576.92 573.83 575.665 575.558 573.714C577.788 571.15 581.076 569.7 584.476 569.561C585.2 569.533 585.925 569.449 586.649 569.282C590.272 568.501 593.198 566.104 594.759 562.898H543.148Z" fill="#DA6864"/>
<path d="M532.273 607.705C530.869 607.47 529.495 607.211 528.094 606.948C536.028 610.855 545.263 613.865 555.318 615.505C581.955 619.849 606.246 613.372 616.949 600.559C594.214 609.782 564.145 612.891 532.273 607.705Z" fill="#BB6864"/>
<path d="M575.869 625.615C570.825 626.173 566.366 626.507 564.137 630.661C567.23 634.229 571.717 634.229 576.761 633.671C581.805 633.114 586.18 632.11 588.437 627.957C585.316 624.389 580.913 625.058 575.869 625.615Z" fill="#F5906B"/>
<path opacity="0.15" d="M715.062 461.518C708.819 474.87 693.687 481.532 679.642 477.128L631.237 461.936C590.55 449.169 546.966 449.029 506.196 461.518L462.528 474.898C449.932 478.773 436.277 473.755 429.171 462.661L424.601 455.524C421.062 450.005 419.25 443.566 419.39 437.043L419.222 445.601C419.083 452.151 420.894 458.591 424.433 464.082L429.004 471.218C436.11 482.313 449.765 487.33 462.361 483.456L506.029 470.075C546.799 457.587 590.383 457.727 631.07 470.494L679.475 485.686C693.52 490.09 708.68 483.428 714.894 470.075C716.845 465.894 717.904 461.35 717.988 456.751L718.155 448.193C718.071 452.82 717.012 457.364 715.062 461.518Z" fill="black"/>
<path d="M713.834 458.73C713.723 456.973 713.583 455.162 713.416 453.266C713.11 449.28 712.72 445.043 712.329 440.722C710.211 418.422 707.258 394.031 707.258 394.031L607.047 369.584H519.042L455.114 395.954L420.057 457.559C420.057 457.559 417.605 511.331 428.612 528.446C428.612 528.446 427.414 499.539 429.17 480.249C429.17 480.249 429.17 480.249 429.17 480.222C434.576 489.532 446.169 494.689 459.629 494.577C451.436 491.874 445.054 486.661 442.1 479.33C438.032 469.183 441.543 457.364 450.237 447.663L450.182 447.691C464.561 432.945 482.368 413.544 482.368 413.544L611.896 411.091L702.325 439.217C702.325 439.217 702.325 439.273 702.353 439.356L702.046 439.328C695.386 447.97 690.649 459.092 688.977 471.608C686.162 492.905 692.989 512.669 705.418 524.07C700.179 513.366 697.894 500.153 699.761 486.271C700.764 478.716 702.882 471.692 705.864 465.392C707.23 481.727 707.843 504.641 704.777 530.871C704.777 530.899 715.534 483.093 713.834 458.73Z" fill="#383838"/>
<path d="M419.387 403.118L549.416 357.765C549.444 357.765 558.835 352.078 558.891 352.078L717.288 403.118C717.595 403.146 717.846 403.397 717.846 403.731V447.663C717.846 452.262 716.87 456.834 715.003 461.043C709.04 474.507 694.019 481.504 679.891 477.378L631.179 463.162C590.241 451.231 546.657 451.956 506.138 465.252L462.749 479.497C450.208 483.622 436.498 478.884 429.141 467.928L424.431 460.876C420.78 455.44 418.858 449.029 418.858 442.506V403.731C418.83 403.425 419.081 403.146 419.387 403.118Z" fill="#0D8CB3"/>
<path opacity="0.06" d="M567.309 406.24C618.334 406.24 668.578 409.669 717.82 416.275V403.731C717.82 403.425 717.597 403.174 717.263 403.118L558.865 352.078C558.837 352.078 549.446 357.765 549.39 357.765L419.389 403.118C419.082 403.146 418.859 403.397 418.859 403.703V415.969C467.432 409.585 516.98 406.24 567.309 406.24Z" fill="black"/>
<path d="M568.338 391.828C622.986 391.828 673.955 395.898 717.15 402.951L716.954 402.867V363.144C716.954 305.08 669.887 265.552 611.811 265.552C586.926 246.764 552.76 246.123 527.15 263.936L524.837 265.552C466.79 265.552 419.694 305.052 419.694 363.144V402.895L419.555 402.951C462.749 395.898 513.718 391.828 568.338 391.828Z" fill="#11A1C4"/>
<path opacity="0.07" d="M675.46 378.114C675.46 384.582 675.098 390.937 674.429 397.237C689.338 398.826 703.634 400.749 717.149 402.951L716.954 402.868V363.145C716.954 313.973 683.235 278.125 637.672 268.285C661.331 298.558 675.46 336.692 675.46 378.114Z" fill="black"/>
<path opacity="0.07" d="M461.553 378.114C461.553 384.582 461.915 390.937 462.584 397.237C447.675 398.826 433.379 400.749 419.863 402.951L420.058 402.868V363.145C420.058 313.973 453.778 278.125 499.341 268.285C475.681 298.558 461.553 336.692 461.553 378.114Z" fill="white"/>
<path opacity="0.07" d="M560.454 298.669C559.757 280.327 544.681 265.664 526.177 265.664C524.087 265.664 522.053 265.859 520.074 266.222C538.049 270.096 552.93 282.334 560.454 298.669Z" fill="black"/>
<path opacity="0.17" d="M612.956 265.637C600.722 266.111 590.969 276.146 590.969 288.495C590.969 289.888 591.108 291.226 591.331 292.564C593.923 280.55 602.06 270.626 612.956 265.637Z" fill="white"/>
<path d="M594.785 500.878H667.017L671.476 495.665L656.678 490.257C652.164 487.916 647.343 486.243 642.327 485.323H642.271C635.248 484.041 628.059 484.236 621.12 485.881C615.769 487.163 610.642 489.309 605.96 492.236L597.572 499.094C596.708 499.791 595.788 500.404 594.785 500.878Z" fill="black"/>
<path d="M594.785 500.878L612.787 492.403C614.237 491.734 615.741 491.205 617.274 490.842L626.833 488.64C630.232 487.86 633.772 487.888 637.171 488.752L646.395 491.065C648.012 491.456 649.544 492.041 651.021 492.794L667.017 500.878L651.384 511.303L630.539 515.038L608.942 511.303L594.785 500.878Z" fill="white"/>
<path d="M631.291 515.039C638.694 515.039 644.695 509.036 644.695 501.631C644.695 494.226 638.694 488.223 631.291 488.223C623.888 488.223 617.887 494.226 617.887 501.631C617.887 509.036 623.888 515.039 631.291 515.039Z" fill="#281300"/>
<path d="M631.292 508.321C635.401 508.321 638.733 504.989 638.733 500.878C638.733 496.768 635.401 493.436 631.292 493.436C627.183 493.436 623.852 496.768 623.852 500.878C623.852 504.989 627.183 508.321 631.292 508.321Z" fill="black"/>
<path d="M623.098 506.119C625.16 506.119 626.832 504.447 626.832 502.384C626.832 500.321 625.16 498.648 623.098 498.648C621.035 498.648 619.363 500.321 619.363 502.384C619.363 504.447 621.035 506.119 623.098 506.119Z" fill="white"/>
<path d="M543.316 500.878H471.084L466.625 495.665L481.423 490.257C485.937 487.916 490.758 486.243 495.774 485.323H495.83C502.853 484.041 510.042 484.236 516.981 485.881C522.332 487.163 527.459 489.309 532.141 492.236L540.529 499.094C541.393 499.791 542.34 500.404 543.316 500.878Z" fill="black"/>
<path d="M543.314 500.878L525.312 492.403C523.863 491.734 522.358 491.205 520.825 490.842L511.267 488.64C507.867 487.86 504.328 487.888 500.928 488.752L491.704 491.065C490.088 491.456 488.555 492.041 487.078 492.794L471.082 500.878L486.716 511.303L507.56 515.038L529.158 511.303L543.314 500.878Z" fill="white"/>
<path d="M506.838 515.039C514.241 515.039 520.242 509.036 520.242 501.631C520.242 494.226 514.241 488.223 506.838 488.223C499.435 488.223 493.434 494.226 493.434 501.631C493.434 509.036 499.435 515.039 506.838 515.039Z" fill="#281300"/>
<path d="M506.839 508.321C510.948 508.321 514.28 504.989 514.28 500.878C514.28 496.768 510.948 493.436 506.839 493.436C502.73 493.436 499.398 496.768 499.398 500.878C499.398 504.989 502.73 508.321 506.839 508.321Z" fill="black"/>
<path d="M498.308 506.119C500.371 506.119 502.043 504.447 502.043 502.384C502.043 500.321 500.371 498.648 498.308 498.648C496.246 498.648 494.574 500.321 494.574 502.384C494.574 504.447 496.246 506.119 498.308 506.119Z" fill="white"/>
</g>
<path fill-rule="evenodd" clip-rule="evenodd" d="M730.421 54.2282C675.45 78.72 650.737 143.145 675.226 198.117C699.716 253.089 764.137 277.801 819.108 253.309C874.079 228.817 898.792 164.393 874.303 109.42C849.814 54.4481 785.392 29.7364 730.421 54.2282ZM794.732 189.914L815.671 135.326L802.382 130.228L781.442 184.817L794.732 189.914ZM748.085 146.855L760.61 114.205L747.32 109.107L734.819 141.697C732.955 146.557 732.356 151.083 733.019 155.229C733.701 159.381 735.405 162.947 738.15 165.935C740.903 168.902 744.423 171.231 748.728 172.882C753.032 174.533 757.266 175.179 761.412 174.812C765.557 174.445 769.308 172.972 772.684 170.398C776.06 167.825 778.667 164.115 780.538 159.235L793.04 126.645L779.75 121.547L767.226 154.197C765.978 157.45 764.199 159.657 761.855 160.783C759.512 161.91 756.797 161.87 753.683 160.675C750.569 159.48 748.543 157.702 747.614 155.321C746.665 152.931 746.83 150.128 748.085 146.855Z" fill="#F7F7F7"/>
<defs>
<clipPath id="clip0_506_101">
<rect width="588" height="658" fill="white" transform="translate(307 251.002)"/>
</clipPath>
</defs>
</svg>
