<svg width="48" height="62" viewBox="0 0 48 62" fill="none" xmlns="http://www.w3.org/2000/svg">
<path d="M11.4444 14.4123L33.1668 36.1347C34.1035 37.0714 34.9436 36.3943 35.882 35.4558C36.8205 34.5174 37.4976 33.6773 36.5609 32.7406L14.8385 11.0182C13.9018 10.0815 13.0617 10.7586 12.1233 11.6971C11.1848 12.6355 10.5077 13.4756 11.4444 14.4123Z" fill="white"/>
<path d="M32.74 11.1612L11.0177 32.8835C10.0809 33.8203 10.758 34.6604 11.6965 35.5988C12.635 36.5373 13.475 37.2144 14.4118 36.2777L36.1341 14.5553C37.0709 13.6186 36.3938 12.7785 35.4553 11.8401C34.5168 10.9016 33.6768 10.2245 32.74 11.1612Z" fill="white"/>
<path d="M8.61969 54.7551C8.61969 53.9082 8.69715 53.0819 8.85208 52.2763C9.01733 51.4707 9.27037 50.7013 9.6112 49.968C9.95203 49.2347 10.3807 48.5582 10.8971 47.9385H12.7871C12.3224 48.5788 11.9299 49.2708 11.6097 50.0145C11.2895 50.7581 11.0468 51.5275 10.8816 52.3228C10.7163 53.1181 10.6337 53.9237 10.6337 54.7396C10.6337 55.5349 10.7163 56.3302 10.8816 57.1254C11.0468 57.9104 11.2844 58.6643 11.5942 59.3873C11.9144 60.1206 12.3069 60.8074 12.7716 61.4478H10.8971C10.3807 60.8384 9.95203 60.1723 9.6112 59.4493C9.27037 58.7366 9.01733 57.9827 8.85208 57.1874C8.69715 56.3921 8.61969 55.5814 8.61969 54.7551ZM28.7075 53.4538C28.7075 54.28 28.6094 55.034 28.4132 55.7156C28.2169 56.3973 27.9174 56.9912 27.5146 57.4972C27.1118 57.993 26.6006 58.3803 25.9809 58.6592L28.6456 61.6337H25.6401L23.6106 59.1549C23.5796 59.1549 23.5486 59.1549 23.5176 59.1549C23.497 59.1549 23.4711 59.1549 23.4401 59.1549C22.5416 59.1549 21.7566 59.0207 21.0853 58.7521C20.4243 58.4733 19.8769 58.086 19.4431 57.5902C19.0197 57.0841 18.6995 56.4799 18.4826 55.7776C18.276 55.0753 18.1728 54.2955 18.1728 53.4383C18.1728 52.2918 18.3587 51.2952 18.7305 50.4482C19.1126 49.6013 19.691 48.9455 20.4656 48.4807C21.2506 48.0056 22.2472 47.7681 23.4556 47.7681C24.6537 47.7681 25.6401 48.0056 26.4147 48.4807C27.1893 48.9455 27.7625 49.6065 28.1343 50.4637C28.5165 51.3106 28.7075 52.3073 28.7075 53.4538ZM20.636 53.4538C20.636 54.2284 20.7342 54.8945 20.9304 55.4523C21.1266 56.01 21.4313 56.4386 21.8444 56.7381C22.2576 57.0376 22.7895 57.1874 23.4401 57.1874C24.1115 57.1874 24.6485 57.0376 25.0513 56.7381C25.4645 56.4386 25.764 56.01 25.9499 55.4523C26.1461 54.8945 26.2443 54.2284 26.2443 53.4538C26.2443 52.2867 26.0274 51.3726 25.5936 50.7116C25.1598 50.0506 24.4471 49.7201 23.4556 49.7201C22.7946 49.7201 22.2576 49.8699 21.8444 50.1694C21.4313 50.4689 21.1266 50.8975 20.9304 51.4552C20.7342 52.013 20.636 52.6791 20.636 53.4538ZM38.2611 54.7551C38.2611 55.5814 38.1785 56.3921 38.0132 57.1874C37.8583 57.9827 37.6104 58.7366 37.2696 59.4493C36.9391 60.1723 36.5105 60.8384 35.9837 61.4478H34.1091C34.5739 60.8074 34.9612 60.1206 35.2711 59.3873C35.5912 58.6643 35.834 57.9104 35.9992 57.1254C36.1645 56.3302 36.2471 55.5349 36.2471 54.7396C36.2471 53.9237 36.1645 53.1181 35.9992 52.3228C35.834 51.5275 35.5912 50.7581 35.2711 50.0145C34.9612 49.2708 34.5688 48.5788 34.0937 47.9385H35.9837C36.5105 48.5582 36.9391 49.2347 37.2696 49.968C37.6104 50.7013 37.8583 51.4707 38.0132 52.2763C38.1785 53.0819 38.2611 53.9082 38.2611 54.7551Z" fill="white"/>
</svg>
