<svg width="24" height="25" viewBox="0 0 24 25" fill="none" xmlns="http://www.w3.org/2000/svg">
<path d="M22 12.5C22.0017 13.8172 21.7424 15.1216 21.237 16.3379C20.7316 17.5543 19.9901 18.6584 19.0555 19.5865C18.1285 20.5118 17.0283 21.2454 15.8177 21.7454C14.6071 22.2453 13.3098 22.5017 12 22.5C6.47701 22.5 2.00001 18.023 2.00001 12.5C1.99651 9.93589 2.98144 7.46909 4.75001 5.61251C5.68318 4.62781 6.80747 3.84388 8.05407 3.3087C9.30068 2.77352 10.6434 2.49834 12 2.50001C13.3098 2.49831 14.6071 2.75475 15.8177 3.25466C17.0283 3.75458 18.1285 4.48817 19.0555 5.41351C19.9901 6.34162 20.7316 7.44575 21.237 8.66208C21.7424 9.87842 22.0017 11.1829 22 12.5V12.5Z" stroke="#03A1C3" stroke-width="1.5" stroke-linecap="round" stroke-linejoin="round"/>
<path d="M21.9982 12.5008C20.5392 12.5008 16.5142 11.9508 12.9117 13.5323C8.99819 15.2508 6.16469 17.9163 4.92969 19.5743" stroke="#03A1C3" stroke-width="1.5" stroke-linecap="round" stroke-linejoin="round"/>
<path d="M8.25 3.22656C9.815 4.67106 13.23 8.34906 14.5 11.9996C15.77 15.6506 16.24 20.1396 16.53 21.4171" stroke="#03A1C3" stroke-width="1.5" stroke-linecap="round" stroke-linejoin="round"/>
<path d="M2.07812 11.2494C3.96713 11.3634 8.96763 11.4659 12.1676 10.0994C15.3676 8.73288 18.1211 6.21937 19.0656 5.42188" stroke="#03A1C3" stroke-width="1.5" stroke-linecap="round" stroke-linejoin="round"/>
<path d="M2.75 16.3066C3.63116 18.4396 5.22035 20.2038 7.25 21.3021" stroke="#03A1C3" stroke-width="1.5" stroke-linecap="round" stroke-linejoin="round"/>
<path d="M2.00001 12.5008C1.99651 9.93667 2.98144 7.46986 4.75001 5.61328" stroke="#03A1C3" stroke-width="1.5" stroke-linecap="round" stroke-linejoin="round"/>
<path d="M12 2.50001C10.6434 2.49834 9.30067 2.77352 8.05406 3.3087C6.80746 3.84388 5.68317 4.62781 4.75 5.61251" stroke="#03A1C3" stroke-width="1.5" stroke-linecap="round" stroke-linejoin="round"/>
<path d="M16 3.33203C17.1388 3.8303 18.175 4.53615 19.0555 5.41353C19.9901 6.34164 20.7315 7.44577 21.2369 8.66211C21.7423 9.87844 22.0017 11.1829 22 12.5C22 13.7315 21.7775 14.9105 21.37 16" stroke="#03A1C3" stroke-width="1.5" stroke-linecap="round" stroke-linejoin="round"/>
<path d="M12 22.4994C13.3098 22.5011 14.6071 22.2447 15.8177 21.7448C17.0283 21.2449 18.1285 20.5113 19.0555 19.5859" stroke="#03A1C3" stroke-width="1.5" stroke-linecap="round" stroke-linejoin="round"/>
</svg>
