<svg width="24" height="25" viewBox="0 0 24 25" fill="none" xmlns="http://www.w3.org/2000/svg">
<path d="M10.1809 17.5082C10.3009 17.5082 10.3919 17.5043 10.4519 17.4963C10.5223 17.482 10.5858 17.4443 10.6319 17.3892C10.6919 17.3263 10.7219 17.2352 10.7219 17.1152L10.7179 16.5583C10.7149 16.2033 10.7139 15.9212 10.7139 15.7142L10.5259 15.7472C10.3755 15.7709 10.2232 15.7803 10.0709 15.7752C9.8797 15.7719 9.68907 15.7528 9.50094 15.7183C9.3013 15.681 9.11343 15.5967 8.95294 15.4722C8.78471 15.345 8.65915 15.1695 8.59294 14.9692L8.51094 14.7802C8.44197 14.6314 8.35535 14.4914 8.25294 14.3632C8.161 14.2318 8.03848 14.1248 7.89594 14.0512L7.83894 14.0112C7.79969 13.9823 7.7641 13.9488 7.73294 13.9113C7.70271 13.8772 7.67776 13.8387 7.65894 13.7972C7.64294 13.7592 7.65594 13.7273 7.69894 13.7032C7.77441 13.6729 7.85583 13.6603 7.93694 13.6663L8.10094 13.6912C8.21094 13.7122 8.34594 13.7782 8.50694 13.8872C8.66694 13.9973 8.79994 14.1382 8.90394 14.3132C9.02994 14.5372 9.18094 14.7082 9.35894 14.8252C9.51606 14.9361 9.70272 14.9973 9.89494 15.0013C10.0749 15.0013 10.2309 14.9883 10.3619 14.9613C10.4895 14.9348 10.6133 14.8932 10.7309 14.8372C10.7799 14.4722 10.9129 14.1903 11.1309 13.9943C10.8479 13.9663 10.5675 13.9168 10.2919 13.8462C10.0229 13.7721 9.76426 13.6646 9.52194 13.5262C9.26818 13.3886 9.04393 13.2024 8.86194 12.9782C8.68794 12.7592 8.54494 12.4732 8.43194 12.1182C8.31412 11.7195 8.25781 11.305 8.26494 10.8892C8.26494 10.2292 8.48094 9.66625 8.91194 9.20225C8.70994 8.70525 8.72894 8.14825 8.96894 7.53125C9.12794 7.48125 9.36294 7.51825 9.67394 7.64125C9.98494 7.76425 10.2139 7.86925 10.3579 7.95725C10.5029 8.04425 10.6179 8.11725 10.7059 8.17725C11.2181 8.03501 11.7474 7.96368 12.2789 7.96525C12.8189 7.96525 13.3439 8.03525 13.8519 8.17825L14.1619 7.98125C14.3759 7.85125 14.6269 7.73025 14.9159 7.62125C15.2059 7.51125 15.4269 7.48125 15.5799 7.53125C15.8259 8.14825 15.8479 8.70525 15.6449 9.20125C16.0769 9.66625 16.2929 10.2282 16.2929 10.8892C16.2929 11.3532 16.2369 11.7642 16.1249 12.1222C16.0129 12.4802 15.8679 12.7663 15.6909 12.9823C15.506 13.2042 15.2807 13.3891 15.0269 13.5273C14.7846 13.6656 14.526 13.7731 14.2569 13.8472C13.9811 13.9175 13.7003 13.9667 13.4169 13.9943C13.7009 14.2393 13.8429 14.6272 13.8429 15.1572V17.1143C13.8429 17.2073 13.8569 17.2823 13.8839 17.3403C13.8967 17.3679 13.9148 17.3927 13.9373 17.4131C13.9598 17.4336 13.9862 17.4492 14.0149 17.4592C14.0749 17.4802 14.1289 17.4943 14.1749 17.4993C14.2219 17.5052 14.2879 17.5082 14.3749 17.5082H10.1819H10.1809Z" fill="#03A1C3"/>
<path d="M5.5 4C4.96957 4 4.46086 4.21071 4.08579 4.58579C3.71071 4.96086 3.5 5.46957 3.5 6V18.7619C3.5 19.2924 3.71071 19.8011 4.08579 20.1762C4.46086 20.5512 4.96957 20.7619 5.5 20.7619L18.5 21C19.0304 21 19.5391 20.7893 19.9142 20.4142C20.2893 20.0391 20.5 19.5304 20.5 19V6C20.5 5.46957 20.2893 4.96086 19.9142 4.58579C19.5391 4.21071 19.0304 4 18.5 4L5.5 4ZM6 2.5H18C19.0609 2.5 20.0783 2.92143 20.8284 3.67157C21.5786 4.42172 22 5.43913 22 6.5V18.5C22 19.5609 21.5786 20.5783 20.8284 21.3284C20.0783 22.0786 19.0609 22.5 18 22.5H6C4.93913 22.5 3.92172 22.0786 3.17157 21.3284C2.42143 20.5783 2 19.5609 2 18.5V6.5C2 5.43913 2.42143 4.42172 3.17157 3.67157C3.92172 2.92143 4.93913 2.5 6 2.5Z" fill="#03A1C3"/>
</svg>
