<svg width="588" height="659" viewBox="0 0 588 659" fill="none" xmlns="http://www.w3.org/2000/svg">
<g clip-path="url(#clip0_506_187)">
<path d="M588 363.916C588 494.29 503.2 604.844 385.767 643.395C356.896 652.873 326.047 658.002 294 658.002C192.201 658.002 102.468 606.237 49.7153 527.601C18.3088 480.826 0 424.517 0 363.916C0 201.486 131.617 69.8301 294 69.8301C456.383 69.8301 588 201.486 588 363.916Z" fill="#FEC94C"/>
<path d="M471.57 534.679L470.79 598.542C444.706 616.159 416.086 631.24 385.767 643.394C356.896 652.871 326.047 658 294 658C192.2 658 102.468 606.236 49.7148 527.599C53.3097 488.155 86.7226 456.991 127.047 456.991L212.822 440.07C245.594 433.603 279.313 433.687 312.058 440.349L393.932 456.991C436.624 456.991 471.57 491.946 471.57 534.679Z" fill="#424242"/>
<path opacity="0.08" d="M393.208 456.991L311.334 440.349C288.622 435.722 265.436 434.356 242.418 436.057C243.477 436.252 244.508 436.447 245.567 436.642L346.892 457.242C399.757 457.242 443.007 500.505 443.007 553.384L440.304 617.442C450.447 611.644 460.396 605.512 470.038 599.017L470.846 534.652C470.874 491.947 435.929 456.991 393.208 456.991Z" fill="black"/>
<path d="M259.081 494.178C302.559 494.178 337.806 479.09 337.806 460.477C337.806 441.864 302.559 426.775 259.081 426.775C215.602 426.775 180.355 441.864 180.355 460.477C180.355 479.09 215.602 494.178 259.081 494.178Z" fill="#2D2D2D"/>
<path d="M260.475 505.439C306.354 505.439 343.547 486.556 343.547 463.263C343.547 439.971 306.354 421.088 260.475 421.088C214.595 421.088 177.402 439.971 177.402 463.263C177.402 486.556 214.595 505.439 260.475 505.439Z" fill="#FFC5B4"/>
<path opacity="0.56" d="M304.895 427.639C315.262 436.224 321.254 446.343 321.254 457.159C321.254 477.452 300.242 495.209 268.668 505.216C310.692 503.125 343.547 485.146 343.547 463.263C343.547 448.294 328.137 435.137 304.895 427.639Z" fill="#E98D80"/>
<path d="M380.055 337.963C385.823 343.706 392.093 349.169 398.81 354.298C393.18 346.27 388.471 337.908 384.792 329.406C391.564 336.542 399.088 343.315 407.281 349.56C398.029 336.347 391.257 322.325 387.495 308.053C409.26 313.517 433.281 316.917 458.891 318.06C430.3 308.499 406.668 294.868 389.864 277.697C399.172 280.401 408.897 281.543 418.623 281.07C414.304 279.648 410.124 277.892 406.055 275.829C414.555 278.003 423.361 278.923 432.195 278.477C413.189 272.261 396.162 259.55 384.876 241.18C369.187 215.674 368.128 185.289 379.358 159.811L373.506 163.407C365.87 139.992 359.071 118.388 352.188 98.8477L325.881 105.398L306.82 110.137C290.768 129.371 279.565 149.386 274.187 169.289L271.317 170.042C260.727 182.725 252.283 195.743 246.18 208.816L239.938 210.377C210.705 245.417 197.58 282.965 206.274 317.921C214.997 353.072 244.453 380.195 287.062 397.422C304.757 423.206 334.102 436.726 363.585 435.277C348.732 430.426 335.133 421.59 324.487 409.185C345.221 414.119 367.905 417.185 392.038 418.273C378.912 413.868 366.846 408.628 355.977 402.579C353.469 398.202 351.24 393.77 349.317 389.282C356.089 396.418 363.613 403.192 371.806 409.436C363.808 398.007 357.677 385.965 353.72 373.7C363.92 377.045 374.704 378.55 385.517 377.993C381.225 376.599 377.017 374.815 372.977 372.752C378.661 374.201 384.458 375.093 390.338 375.4C397.918 377.073 405.693 377.742 413.496 377.351C416.784 377.574 420.1 377.769 423.444 377.937C420.1 376.822 416.84 375.623 413.607 374.397C418.066 374.87 422.58 375.01 427.067 374.787C408.201 368.626 391.341 356.082 380.055 337.963Z" fill="#262626"/>
<path d="M403.269 345.323C409.038 351.065 415.308 356.529 422.024 361.658C416.395 353.63 411.685 345.267 408.007 336.765C414.778 343.901 422.302 350.675 430.495 356.919C421.244 343.706 414.472 329.685 410.71 315.412C432.474 320.876 456.496 324.277 482.106 325.42C453.514 315.858 429.882 302.227 413.078 285.056C422.386 287.76 432.112 288.903 441.837 288.429C437.518 287.007 433.338 285.251 429.269 283.188C437.769 285.363 446.575 286.282 455.409 285.836C436.403 279.62 419.376 266.909 408.09 248.539C392.401 223.033 391.342 192.649 402.572 167.171L396.72 170.767C389.085 147.351 382.285 125.748 375.402 106.207L349.095 112.758L330.034 117.497C313.982 136.731 302.78 156.745 297.401 176.648L294.559 177.345C283.969 190.029 275.525 203.046 269.422 216.12L263.18 217.681C233.947 252.72 220.822 290.269 229.517 325.224C238.239 360.375 267.695 387.498 310.304 404.725C328 430.51 357.344 444.03 386.827 442.58C371.974 437.73 358.375 428.893 347.73 416.489C368.463 421.423 391.147 424.489 415.28 425.576C402.154 421.172 390.088 415.931 379.22 409.882C376.712 405.506 374.482 401.074 372.559 396.586C379.331 403.722 386.855 410.495 395.048 416.74C387.05 405.311 380.92 393.268 376.962 381.003C387.162 384.348 397.946 385.854 408.759 385.296C404.467 383.902 400.259 382.118 396.219 380.055C401.904 381.505 407.7 382.397 413.58 382.704C421.16 384.376 428.935 385.045 436.738 384.655C440.026 384.878 443.342 385.073 446.686 385.24C443.342 384.125 440.082 382.927 436.849 381.7C441.308 382.174 445.822 382.313 450.309 382.09C431.443 375.958 414.583 363.414 403.269 345.323Z" fill="#383838"/>
<path d="M380.055 337.963C385.823 343.706 392.093 349.169 398.81 354.298C393.18 346.27 388.471 337.908 384.792 329.406C391.564 336.542 399.088 343.315 407.281 349.56C398.029 336.347 391.257 322.325 387.495 308.053C409.26 313.517 433.281 316.917 458.891 318.06C430.3 308.499 406.668 294.868 389.864 277.697C399.172 280.401 408.897 281.543 418.623 281.07C414.304 279.648 410.124 277.892 406.055 275.829C414.555 278.003 423.361 278.923 432.195 278.477C413.189 272.261 396.162 259.55 384.876 241.18C369.187 215.674 368.128 185.289 379.358 159.811L373.506 163.407C365.87 139.992 359.071 118.388 352.188 98.8477L325.881 105.398L306.82 110.137C290.768 129.371 279.565 149.386 274.187 169.289L271.317 170.042C260.727 182.725 252.283 195.743 246.18 208.816L239.938 210.377C210.705 245.417 197.58 282.965 206.274 317.921C214.997 353.072 244.453 380.195 287.062 397.422C304.757 423.206 334.102 436.726 363.585 435.277C348.732 430.426 335.133 421.59 324.487 409.185C345.221 414.119 367.905 417.185 392.038 418.273C378.912 413.868 366.846 408.628 355.977 402.579C353.469 398.202 351.24 393.77 349.317 389.282C356.089 396.418 363.613 403.192 371.806 409.436C363.808 398.007 357.677 385.965 353.72 373.7C363.92 377.045 374.704 378.55 385.517 377.993C381.225 376.599 377.017 374.815 372.977 372.752C378.661 374.201 384.458 375.093 390.338 375.4C397.918 377.073 405.693 377.742 413.496 377.351C416.784 377.574 420.1 377.769 423.444 377.937C420.1 376.822 416.84 375.623 413.607 374.397C418.066 374.87 422.58 375.01 427.067 374.787C408.201 368.626 391.341 356.082 380.055 337.963Z" fill="#262626"/>
<path d="M135.856 337.963C130.088 343.706 123.817 349.169 117.101 354.298C122.731 346.27 127.44 337.908 131.119 329.406C124.347 336.542 116.823 343.315 108.63 349.56C117.882 336.347 124.653 322.325 128.416 308.053C106.651 313.517 82.6296 316.917 57.0195 318.06C85.6114 308.499 109.243 294.868 126.047 277.697C116.739 280.401 107.013 281.543 97.2878 281.07C101.607 279.648 105.787 277.892 109.856 275.829C101.356 278.003 92.5503 278.923 83.7164 278.477C102.722 272.261 119.749 259.55 131.035 241.18C146.724 215.674 147.783 185.289 136.553 159.811L142.405 163.407C150.041 139.992 156.84 118.388 163.723 98.8477L190.03 105.398L209.091 110.137C225.143 129.371 236.346 149.386 241.724 169.289L244.566 170.042C255.156 182.725 263.6 195.743 269.703 208.816L275.945 210.377C305.178 245.417 318.303 282.965 309.609 317.921C300.886 353.072 271.431 380.195 228.821 397.422C211.126 423.206 181.781 436.726 152.298 435.277C167.151 430.426 180.75 421.59 191.396 409.185C170.662 414.119 147.978 417.185 123.845 418.273C136.971 413.868 149.037 408.628 159.906 402.579C162.414 398.202 164.643 393.77 166.566 389.282C159.794 396.418 152.27 403.192 144.077 409.436C152.075 398.007 158.206 385.965 162.163 373.7C151.963 377.045 141.179 378.55 130.366 377.993C134.658 376.599 138.866 374.815 142.907 372.752C137.222 374.201 131.425 375.093 125.545 375.4C117.965 377.073 110.19 377.742 102.387 377.351C99.0992 377.574 95.7829 377.769 92.4389 377.937C95.7829 376.822 99.0434 375.623 102.276 374.397C97.8173 374.87 93.3028 375.01 88.8161 374.787C107.682 368.626 124.542 356.082 135.856 337.963Z" fill="#262626"/>
<path d="M112.641 345.323C106.873 351.065 100.603 356.529 93.8866 361.658C99.5158 353.63 104.225 345.267 107.904 336.765C101.132 343.901 93.6079 350.675 85.4149 356.919C94.6669 343.706 101.439 329.685 105.201 315.412C83.4363 320.876 59.4147 324.277 33.8047 325.42C62.3965 315.858 86.028 302.227 102.832 285.056C93.5243 287.76 83.7986 288.903 74.0729 288.429C78.3924 287.007 82.5725 285.251 86.6411 283.188C78.1416 285.363 69.3355 286.282 60.5016 285.836C79.5071 279.62 96.534 266.909 107.82 248.539C123.51 223.033 124.568 192.649 113.338 167.171L119.19 170.767C126.826 147.351 133.625 125.748 140.509 106.207L166.815 112.758L185.877 117.497C201.928 136.731 213.131 156.745 218.509 176.648L221.352 177.345C231.941 190.029 240.385 203.046 246.488 216.12L252.73 217.681C281.963 252.72 295.088 290.269 286.394 325.224C277.671 360.375 248.216 387.498 205.607 404.725C187.911 430.51 158.567 444.03 129.083 442.58C143.936 437.73 157.535 428.893 168.181 416.489C147.448 421.423 124.764 424.489 100.63 425.576C113.756 421.172 125.823 415.931 136.691 409.882C139.199 405.506 141.428 401.074 143.351 396.586C136.579 403.722 129.055 410.495 120.862 416.74C128.86 405.311 134.991 393.268 138.948 381.003C128.749 384.348 117.964 385.854 107.151 385.296C111.443 383.902 115.651 382.118 119.692 380.055C114.007 381.505 108.21 382.397 102.33 382.704C94.7505 384.376 86.9755 385.045 79.1726 384.655C75.8843 384.878 72.5681 385.073 69.224 385.24C72.5681 384.125 75.8286 382.927 79.0612 381.7C74.6024 382.174 70.0879 382.313 65.6013 382.09C84.4674 375.958 101.327 363.414 112.641 345.323Z" fill="#383838"/>
<path d="M135.856 337.963C130.088 343.706 123.817 349.169 117.101 354.298C122.731 346.27 127.44 337.908 131.119 329.406C124.347 336.542 116.823 343.315 108.63 349.56C117.882 336.347 124.653 322.325 128.416 308.053C106.651 313.517 82.6296 316.917 57.0195 318.06C85.6114 308.499 109.243 294.868 126.047 277.697C116.739 280.401 107.013 281.543 97.2878 281.07C101.607 279.648 105.787 277.892 109.856 275.829C101.356 278.003 92.5503 278.923 83.7164 278.477C102.722 272.261 119.749 259.55 131.035 241.18C146.724 215.674 147.783 185.289 136.553 159.811L142.405 163.407C150.041 139.992 156.84 118.388 163.723 98.8477L190.03 105.398L209.091 110.137C225.143 129.371 236.346 149.386 241.724 169.289L244.566 170.042C255.156 182.725 263.6 195.743 269.703 208.816L275.945 210.377C305.178 245.417 318.303 282.965 309.609 317.921C300.886 353.072 271.431 380.195 228.821 397.422C211.126 423.206 181.781 436.726 152.298 435.277C167.151 430.426 180.75 421.59 191.396 409.185C170.662 414.119 147.978 417.185 123.845 418.273C136.971 413.868 149.037 408.628 159.906 402.579C162.414 398.202 164.643 393.77 166.566 389.282C159.794 396.418 152.27 403.192 144.077 409.436C152.075 398.007 158.206 385.965 162.163 373.7C151.963 377.045 141.179 378.55 130.366 377.993C134.658 376.599 138.866 374.815 142.907 372.752C137.222 374.201 131.425 375.093 125.545 375.4C117.965 377.073 110.19 377.742 102.387 377.351C99.0992 377.574 95.7829 377.769 92.4389 377.937C95.7829 376.822 99.0434 375.623 102.276 374.397C97.8173 374.87 93.3028 375.01 88.8161 374.787C107.682 368.626 124.542 356.082 135.856 337.963Z" fill="#262626"/>
<path d="M397.609 206.419C408.338 191.645 445.513 214.615 422.941 251.968C406.917 278.477 389.834 281.599 388.887 291.105L397.609 206.419Z" fill="#F68D6F"/>
<path d="M387.828 211.325C398.557 196.551 435.732 219.521 413.159 256.874C397.136 283.384 380.053 286.506 379.105 296.011L387.828 211.325Z" fill="#FFC5B4"/>
<path d="M125.655 206.419C114.926 191.673 77.7513 214.642 100.324 251.995C116.348 278.505 133.43 281.627 134.378 291.132L125.655 206.419Z" fill="#F68D6F"/>
<path d="M135.436 211.325C124.708 196.551 87.5326 219.521 110.105 256.874C126.129 283.384 143.211 286.506 144.159 296.011L135.436 211.325Z" fill="#FFC5B4"/>
<path d="M196.574 364.473V454.928L196.658 455.152C202.315 469.507 214.214 480.658 229.04 484.95C238.013 487.543 247.321 488.937 256.712 488.964C256.963 488.964 257.213 488.964 257.492 488.964C266.883 488.937 276.191 487.543 285.136 484.95C300.045 480.63 311.945 469.396 317.546 454.928V364.473H196.574Z" fill="#FFC5B4"/>
<path d="M196.574 417.019L204.126 421.534C220.038 431.012 238.18 436.308 256.712 436.364C256.963 436.364 257.213 436.364 257.492 436.364C276.052 436.308 294.193 430.984 310.133 421.451L317.574 417.019V370.578H196.574V417.019Z" fill="#E98D80"/>
<path d="M392.54 200.705C414.834 334.228 341 424.35 259.753 424.35C172.001 424.35 109.492 330.8 124.039 208.733C137.304 97.482 138.586 35.6543 253.928 35.6543C374.12 35.6822 374.12 90.4853 392.54 200.705Z" fill="#FFC5B4"/>
<path opacity="0.31" d="M392.218 206.408C376.375 126.53 371.972 75.8203 316.249 54C333.184 87.5653 339.901 133.154 351.341 190.905C371.876 294.273 322.837 376.879 263 425C347 419 415.163 321.966 392.218 206.408Z" fill="#F3A697"/>
<path d="M280.902 295.09C278.311 294.394 276.276 292.498 275.217 290.045C272.737 284.275 267.526 280.316 261.534 280.316C255.432 280.316 250.165 284.414 247.74 290.352C246.793 292.609 245.093 294.533 242.78 295.397C237.903 297.181 234.531 302.031 234.949 307.606C235.423 313.46 240.077 318.088 245.929 318.534C245.984 318.534 246.012 318.534 246.068 318.534C249.329 318.757 252.31 320.346 254.484 322.799C256.212 324.722 258.692 325.921 261.479 325.921C264.293 325.921 266.829 324.666 268.557 322.715C270.786 320.15 274.075 318.701 277.475 318.562C278.199 318.534 278.924 318.45 279.648 318.283C284.915 317.168 288.677 312.596 288.956 307.216C289.262 301.613 286.336 296.568 280.902 295.09Z" fill="#F58E6F"/>
<path d="M236.148 311.898C237.96 315.578 241.61 318.198 245.93 318.533C245.986 318.533 246.013 318.533 246.069 318.533C249.33 318.756 252.311 320.345 254.485 322.798C256.213 324.721 258.693 325.92 261.48 325.92C264.294 325.92 266.83 324.665 268.558 322.714C270.788 320.15 274.076 318.7 277.476 318.561C278.2 318.533 278.925 318.449 279.649 318.282C283.272 317.501 286.198 315.104 287.759 311.898H236.148Z" fill="#DA6864"/>
<path d="M225.273 356.705C223.869 356.47 222.495 356.211 221.094 355.948C229.028 359.855 238.263 362.865 248.318 364.505C274.955 368.849 299.246 362.372 309.949 349.559C287.214 358.782 257.145 361.891 225.273 356.705Z" fill="#BB6864"/>
<path d="M268.869 374.615C263.825 375.173 259.366 375.507 257.137 379.661C260.23 383.229 264.717 383.229 269.761 382.671C274.805 382.114 279.18 381.11 281.437 376.957C278.316 373.389 273.913 374.058 268.869 374.615Z" fill="#F5906B"/>
<path opacity="0.15" d="M408.062 210.518C401.819 223.87 386.687 230.532 372.642 226.128L324.237 210.936C283.55 198.169 239.966 198.029 199.196 210.518L155.528 223.898C142.932 227.773 129.277 222.755 122.171 211.661L117.601 204.524C114.062 199.005 112.25 192.566 112.39 186.043L112.222 194.601C112.083 201.151 113.894 207.591 117.433 213.082L122.004 220.218C129.11 231.313 142.765 236.33 155.361 232.456L199.029 219.075C239.799 206.587 283.383 206.727 324.07 219.494L372.475 234.686C386.52 239.09 401.68 232.428 407.894 219.075C409.845 214.894 410.904 210.35 410.988 205.751L411.155 197.193C411.071 201.82 410.012 206.364 408.062 210.518Z" fill="black"/>
<path d="M406.834 207.73C406.723 205.973 406.583 204.162 406.416 202.266C406.11 198.28 405.72 194.043 405.329 189.722C403.211 167.422 400.258 143.031 400.258 143.031L300.047 118.584H212.042L148.114 144.954L113.057 206.559C113.057 206.559 110.605 260.331 121.612 277.446C121.612 277.446 120.414 248.539 122.17 229.249C122.17 229.249 122.17 229.249 122.17 229.222C127.576 238.532 139.169 243.689 152.629 243.577C144.436 240.874 138.054 235.661 135.1 228.33C131.032 218.183 134.543 206.364 143.237 196.663L143.182 196.691C157.561 181.945 175.368 162.544 175.368 162.544L304.896 160.091L395.325 188.217C395.325 188.217 395.325 188.273 395.353 188.356L395.046 188.328C388.386 196.97 383.649 208.092 381.977 220.608C379.162 241.905 385.989 261.669 398.418 273.07C393.179 262.366 390.894 249.153 392.761 235.271C393.764 227.716 395.882 220.692 398.864 214.392C400.23 230.727 400.843 253.641 397.777 279.871C397.777 279.899 408.534 232.093 406.834 207.73Z" fill="#383838"/>
<path d="M112.387 152.118L242.416 106.765C242.444 106.765 251.835 101.078 251.891 101.078L410.288 152.118C410.595 152.146 410.846 152.397 410.846 152.731V196.663C410.846 201.262 409.87 205.834 408.003 210.043C402.04 223.507 387.019 230.504 372.891 226.378L324.179 212.162C283.241 200.231 239.657 200.956 199.138 214.252L155.749 228.497C143.208 232.622 129.498 227.884 122.141 216.928L117.431 209.876C113.78 204.44 111.858 198.029 111.858 191.506V152.731C111.83 152.425 112.081 152.146 112.387 152.118Z" fill="#0D8CB3"/>
<path opacity="0.06" d="M260.309 155.24C311.334 155.24 361.578 158.669 410.82 165.275V152.731C410.82 152.425 410.597 152.174 410.263 152.118L251.865 101.078C251.837 101.078 242.446 106.765 242.39 106.765L112.389 152.118C112.082 152.146 111.859 152.397 111.859 152.703V164.969C160.432 158.585 209.98 155.24 260.309 155.24Z" fill="black"/>
<path d="M261.338 140.828C315.986 140.828 366.955 144.898 410.15 151.951L409.954 151.867V112.144C409.954 54.0799 362.887 14.5525 304.811 14.5525C279.926 -4.23557 245.76 -4.87671 220.15 12.9357L217.837 14.5525C159.79 14.5525 112.694 54.052 112.694 112.144V151.895L112.555 151.951C155.749 144.898 206.718 140.828 261.338 140.828Z" fill="#11A1C4"/>
<path opacity="0.07" d="M368.46 127.114C368.46 133.582 368.098 139.937 367.429 146.237C382.338 147.826 396.634 149.749 410.149 151.951L409.954 151.868V112.145C409.954 62.973 376.235 27.1252 330.672 17.2852C354.331 47.5579 368.46 85.6915 368.46 127.114Z" fill="black"/>
<path opacity="0.07" d="M154.553 127.114C154.553 133.582 154.915 139.937 155.584 146.237C140.675 147.826 126.379 149.749 112.863 151.951L113.058 151.868V112.145C113.058 62.973 146.778 27.1252 192.341 17.2852C168.681 47.5579 154.553 85.6915 154.553 127.114Z" fill="white"/>
<path opacity="0.07" d="M253.454 47.6686C252.757 29.3266 237.681 14.6641 219.177 14.6641C217.087 14.6641 215.053 14.8592 213.074 15.2216C231.049 19.0963 245.93 31.3336 253.454 47.6686Z" fill="black"/>
<path opacity="0.17" d="M305.956 14.6367C293.722 15.1106 283.969 25.1458 283.969 37.4946C283.969 38.8884 284.108 40.2264 284.331 41.5644C286.923 29.5501 295.06 19.6264 305.956 14.6367Z" fill="white"/>
<path d="M287.785 249.878H360.017L364.476 244.665L349.678 239.257C345.164 236.916 340.343 235.243 335.327 234.323H335.271C328.248 233.041 321.059 233.236 314.12 234.881C308.769 236.163 303.642 238.309 298.96 241.236L290.572 248.094C289.708 248.791 288.788 249.404 287.785 249.878Z" fill="black"/>
<path d="M287.785 249.878L305.787 241.403C307.237 240.734 308.741 240.205 310.274 239.842L319.833 237.64C323.232 236.86 326.772 236.888 330.171 237.752L339.395 240.065C341.012 240.456 342.544 241.041 344.021 241.794L360.017 249.878L344.384 260.303L323.539 264.038L301.942 260.303L287.785 249.878Z" fill="white"/>
<path d="M324.291 264.039C331.694 264.039 337.695 258.036 337.695 250.631C337.695 243.226 331.694 237.223 324.291 237.223C316.888 237.223 310.887 243.226 310.887 250.631C310.887 258.036 316.888 264.039 324.291 264.039Z" fill="#281300"/>
<path d="M324.292 257.321C328.401 257.321 331.733 253.989 331.733 249.878C331.733 245.768 328.401 242.436 324.292 242.436C320.183 242.436 316.852 245.768 316.852 249.878C316.852 253.989 320.183 257.321 324.292 257.321Z" fill="black"/>
<path d="M316.098 255.119C318.16 255.119 319.832 253.447 319.832 251.384C319.832 249.321 318.16 247.648 316.098 247.648C314.035 247.648 312.363 249.321 312.363 251.384C312.363 253.447 314.035 255.119 316.098 255.119Z" fill="white"/>
<path d="M236.316 249.878H164.084L159.625 244.665L174.423 239.257C178.937 236.916 183.758 235.243 188.774 234.323H188.83C195.853 233.041 203.042 233.236 209.981 234.881C215.332 236.163 220.459 238.309 225.141 241.236L233.529 248.094C234.393 248.791 235.34 249.404 236.316 249.878Z" fill="black"/>
<path d="M236.314 249.878L218.312 241.403C216.863 240.734 215.358 240.205 213.825 239.842L204.267 237.64C200.867 236.86 197.328 236.888 193.928 237.752L184.704 240.065C183.088 240.456 181.555 241.041 180.078 241.794L164.082 249.878L179.716 260.303L200.56 264.038L222.158 260.303L236.314 249.878Z" fill="white"/>
<path d="M199.838 264.039C207.241 264.039 213.242 258.036 213.242 250.631C213.242 243.226 207.241 237.223 199.838 237.223C192.435 237.223 186.434 243.226 186.434 250.631C186.434 258.036 192.435 264.039 199.838 264.039Z" fill="#281300"/>
<path d="M199.839 257.321C203.948 257.321 207.28 253.989 207.28 249.878C207.28 245.768 203.948 242.436 199.839 242.436C195.73 242.436 192.398 245.768 192.398 249.878C192.398 253.989 195.73 257.321 199.839 257.321Z" fill="black"/>
<path d="M191.308 255.119C193.371 255.119 195.043 253.447 195.043 251.384C195.043 249.321 193.371 247.648 191.308 247.648C189.246 247.648 187.574 249.321 187.574 251.384C187.574 253.447 189.246 255.119 191.308 255.119Z" fill="white"/>
</g>
<defs>
<clipPath id="clip0_506_187">
<rect width="588" height="658" fill="white" transform="translate(0 0.00195312)"/>
</clipPath>
</defs>
</svg>
