<svg width="48" height="48" viewBox="0 0 48 48" fill="none" xmlns="http://www.w3.org/2000/svg">
<path d="M39.3592 21.6H8.63922C7.31442 21.6 7.19922 22.6728 7.19922 24C7.19922 25.3272 7.31442 26.4 8.63922 26.4H39.3592C40.684 26.4 40.7992 25.3272 40.7992 24C40.7992 22.6728 40.684 21.6 39.3592 21.6ZM39.3592 31.2H8.63922C7.31442 31.2 7.19922 32.2728 7.19922 33.6C7.19922 34.9272 7.31442 36 8.63922 36H39.3592C40.684 36 40.7992 34.9272 40.7992 33.6C40.7992 32.2728 40.684 31.2 39.3592 31.2ZM8.63922 16.8H39.3592C40.684 16.8 40.7992 15.7272 40.7992 14.4C40.7992 13.0728 40.684 12 39.3592 12H8.63922C7.31442 12 7.19922 13.0728 7.19922 14.4C7.19922 15.7272 7.31442 16.8 8.63922 16.8Z" fill="#404040"/>
</svg>
